<svg width="33" height="32" viewBox="0 0 33 32" fill="none" xmlns="http://www.w3.org/2000/svg">
<path d="M30.9012 0H2.4322C1.96396 0 1.51489 0.186009 1.1838 0.517108C0.852696 0.848207 0.666687 1.29727 0.666687 1.76552L0.666687 30.2345C0.666687 30.7027 0.852696 31.1518 1.1838 31.4829C1.51489 31.814 1.96396 32 2.4322 32H17.7701V19.6248H13.6046V14.7807H17.7701V11.2166C17.7701 7.08414 20.297 4.8331 23.9825 4.8331C25.2245 4.8304 26.4658 4.89301 27.7012 5.02069V9.34069H25.1632C23.155 9.34069 22.7632 10.2897 22.7632 11.691V14.7752H27.5632L26.9398 19.6193H22.7357V32H30.9012C31.3694 32 31.8185 31.814 32.1496 31.4829C32.4807 31.1518 32.6667 30.7027 32.6667 30.2345V1.76552C32.6667 1.29727 32.4807 0.848207 32.1496 0.517108C31.8185 0.186009 31.3694 0 30.9012 0V0Z" fill="#4267B2"/>
</svg>
