<?xml version="1.0" encoding="UTF-8" standalone="no"?><!DOCTYPE svg PUBLIC "-//W3C//DTD SVG 1.1//EN" "http://www.w3.org/Graphics/SVG/1.1/DTD/svg11.dtd"><svg width="100%" height="100%" viewBox="0 0 3630 3684" version="1.1" xmlns="http://www.w3.org/2000/svg" xmlns:xlink="http://www.w3.org/1999/xlink" xml:space="preserve" xmlns:serif="http://www.serif.com/" style="fill-rule:evenodd;clip-rule:evenodd;stroke-linejoin:round;stroke-miterlimit:2;"><path d="M3616.89,2990.26c0,378.679 -305.259,687.829 -687.83,687.829c-378.679,0 -687.829,-305.28 -687.829,-687.829c0,-378.7 305.28,-687.834 687.829,-687.834c382.571,3.854 687.83,309.133 687.83,687.834Zm-1024.58,229.945l3.717,78.092c0.154,3.333 3.004,6.179 6.354,6.354l78.092,3.713c3.35,0.158 7.983,-1.63 10.362,-4.009l36.513,-36.512l71.25,0c3.35,0 6.075,-2.709 6.075,-6.075l0,-71.25l8.592,-8.592l71.25,0c3.354,0 6.079,-2.729 6.079,-6.096l0,-71.25l40.796,-40.8l34.375,34.359c2.379,2.379 6.216,2.379 8.595,0l33.784,-33.767c68.579,20.867 146.129,4.221 200.35,-50c78.296,-78.279 78.296,-205.225 0,-283.525c-78.3,-78.279 -205.229,-78.279 -283.525,0c-54.221,54.221 -70.871,131.771 -49.984,200.35l-278.662,278.646c-2.363,2.375 -4.167,7.012 -4.013,10.362Zm-505.641,-32.883l-2086.67,0l0,-428.921c0,-88.871 38.646,-177.762 108.196,-235.712c305.275,-251.18 626.004,-432.796 796.025,-521.667c19.321,42.5 204.808,475.296 316.875,633.717c0,0 112.062,-398.005 297.533,-289.813c0,0 -374.825,-289.808 -494.616,-436.646l0,-282.083c-46.375,-81.167 -77.275,-162.313 -88.875,-239.583c-34.771,-3.875 -77.292,-50.246 -123.663,-216.409c-57.95,-212.533 -3.854,-255.033 50.246,-258.887c-3.875,-19.325 -7.729,-34.792 -11.6,-54.117c-19.321,-108.192 -27.046,-204.792 0,-301.404c30.921,-127.517 100.471,-227.988 173.892,-309.133c50.241,-50.225 104.337,-96.596 162.308,-135.242c46.354,-34.775 100.467,-61.825 158.421,-81.146c46.371,-15.471 92.741,-23.196 142.983,-27.05c158.421,-15.467 274.358,27.05 359.358,77.275c127.534,69.567 173.888,162.292 173.888,162.292c0,0 289.829,19.321 193.212,614.408c-3.854,19.325 -7.725,34.792 -11.579,54.117c54.096,0 112.05,42.5 50.225,258.887c-46.371,166.163 -92.741,212.534 -123.646,216.409c-11.595,77.27 -42.516,158.416 -88.887,239.583l0,282.083c-123.646,142.967 -494.617,432.775 -494.617,432.775c185.484,-104.321 297.55,289.829 297.55,289.829c112.067,-158.437 297.534,-591.233 316.859,-633.733c88.887,46.371 224.133,123.663 378.695,220.258c-282.083,142.971 -475.291,436.65 -475.291,772.85c0,69.546 7.725,135.242 23.175,197.063Zm980.054,-403.313c24.479,-24.462 64.129,-24.462 88.592,0c24.479,24.48 24.479,64.146 0,88.609c-24.463,24.462 -64.134,24.462 -88.592,0c-24.479,-24.463 -24.479,-64.129 0,-88.609Z" style="fill:#fad896;fill-rule:nonzero;"/></svg>