<svg width="140" height="62" viewBox="0 0 140 62" fill="none" xmlns="http://www.w3.org/2000/svg">
<path d="M2.7607 53C2.6107 53 2.4907 52.955 2.4007 52.865C2.3107 52.775 2.2657 52.66 2.2657 52.52V46.205C2.2657 46.065 2.3107 45.95 2.4007 45.86C2.4907 45.77 2.6057 45.725 2.7457 45.725H5.2807C6.0607 45.725 6.6657 45.875 7.0957 46.175C7.5257 46.475 7.7407 46.94 7.7407 47.57C7.7407 47.92 7.6357 48.255 7.4257 48.575C7.2157 48.885 6.8907 49.115 6.4507 49.265C6.8807 49.335 7.2307 49.52 7.5007 49.82C7.7807 50.12 7.9207 50.505 7.9207 50.975C7.9207 51.305 7.8307 51.625 7.6507 51.935C7.4807 52.235 7.2007 52.49 6.8107 52.7C6.4307 52.9 5.9407 53 5.3407 53H2.7607ZM5.2807 48.935C5.7307 48.935 6.0957 48.815 6.3757 48.575C6.6657 48.325 6.8107 48 6.8107 47.6C6.8107 47.24 6.6807 46.96 6.4207 46.76C6.1707 46.55 5.7707 46.445 5.2207 46.445H3.1807V48.935H5.2807ZM5.3107 52.265C6.4207 52.265 6.9757 51.835 6.9757 50.975C6.9757 50.535 6.8057 50.205 6.4657 49.985C6.1257 49.755 5.6757 49.64 5.1157 49.64H3.1807V52.265H5.3107ZM12.8104 49.055C13.1604 49.135 13.4454 49.29 13.6654 49.52C13.8854 49.75 14.1554 50.13 14.4754 50.66L15.5404 52.385C15.5904 52.455 15.6154 52.54 15.6154 52.64C15.6154 52.76 15.5704 52.865 15.4804 52.955C15.3904 53.035 15.2854 53.075 15.1654 53.075C15.0054 53.075 14.8754 52.99 14.7754 52.82L13.5454 50.81C13.2554 50.34 12.9854 50.03 12.7354 49.88C12.4954 49.72 12.1454 49.64 11.6854 49.64H10.7404V52.61C10.7404 52.75 10.6954 52.865 10.6054 52.955C10.5254 53.035 10.4154 53.075 10.2754 53.075C10.1354 53.075 10.0254 53.035 9.94535 52.955C9.86535 52.865 9.82535 52.75 9.82535 52.61V46.04C9.82535 45.9 9.86535 45.79 9.94535 45.71C10.0254 45.62 10.1354 45.575 10.2754 45.575C10.4154 45.575 10.5254 45.62 10.6054 45.71C10.6954 45.79 10.7404 45.9 10.7404 46.04V48.905H11.9254L14.5654 45.755C14.6854 45.625 14.8104 45.56 14.9404 45.56C15.0504 45.56 15.1404 45.6 15.2104 45.68C15.2904 45.76 15.3304 45.855 15.3304 45.965C15.3304 46.085 15.2904 46.19 15.2104 46.28L12.8104 49.055ZM18.9185 47.39C18.9185 48.47 18.8535 49.37 18.7235 50.09C18.6035 50.81 18.3985 51.41 18.1085 51.89C17.8185 52.36 17.4135 52.74 16.8935 53.03C16.8535 53.06 16.7885 53.075 16.6985 53.075C16.5885 53.075 16.4935 53.04 16.4135 52.97C16.3335 52.89 16.2935 52.8 16.2935 52.7C16.2935 52.55 16.3635 52.43 16.5035 52.34C16.9035 52.11 17.2135 51.81 17.4335 51.44C17.6535 51.06 17.8085 50.555 17.8985 49.925C17.9985 49.285 18.0485 48.44 18.0485 47.39V46.205C18.0485 46.055 18.0885 45.94 18.1685 45.86C18.2585 45.77 18.3785 45.725 18.5285 45.725H22.5185C22.6685 45.725 22.7835 45.77 22.8635 45.86C22.9535 45.94 22.9985 46.055 22.9985 46.205V52.625C22.9985 52.755 22.9535 52.865 22.8635 52.955C22.7835 53.035 22.6785 53.075 22.5485 53.075C22.4185 53.075 22.3085 53.035 22.2185 52.955C22.1285 52.865 22.0835 52.755 22.0835 52.625V46.46H18.9185V47.39ZM28.2616 45.545C29.1416 45.545 29.7966 45.775 30.2266 46.235C30.6666 46.695 30.8866 47.39 30.8866 48.32V52.595C30.8866 52.735 30.8466 52.85 30.7666 52.94C30.6866 53.02 30.5766 53.06 30.4366 53.06C30.2966 53.06 30.1866 53.02 30.1066 52.94C30.0266 52.85 29.9866 52.735 29.9866 52.595V51.695C29.7766 52.145 29.4716 52.495 29.0716 52.745C28.6716 52.985 28.2116 53.105 27.6916 53.105C27.2216 53.105 26.7916 53.01 26.4016 52.82C26.0216 52.63 25.7166 52.37 25.4866 52.04C25.2566 51.71 25.1416 51.34 25.1416 50.93C25.1316 50.38 25.2666 49.955 25.5466 49.655C25.8266 49.345 26.2916 49.125 26.9416 48.995C27.5916 48.865 28.5016 48.8 29.6716 48.8H29.9866V48.245C29.9866 47.585 29.8516 47.105 29.5816 46.805C29.3116 46.495 28.8866 46.34 28.3066 46.34C27.5666 46.34 26.8616 46.535 26.1916 46.925C26.1616 46.945 26.0816 47 25.9516 47.09C25.8316 47.17 25.7266 47.21 25.6366 47.21C25.5366 47.21 25.4516 47.175 25.3816 47.105C25.3216 47.025 25.2916 46.93 25.2916 46.82C25.2916 46.6 25.4666 46.385 25.8166 46.175C26.1666 45.975 26.5566 45.82 26.9866 45.71C27.4166 45.6 27.8416 45.545 28.2616 45.545ZM27.7666 52.31C28.4166 52.31 28.9466 52.09 29.3566 51.65C29.7766 51.21 29.9866 50.65 29.9866 49.97V49.475H29.7016C28.7416 49.475 28.0066 49.515 27.4966 49.595C26.9866 49.675 26.6266 49.815 26.4166 50.015C26.2066 50.205 26.1016 50.485 26.1016 50.855C26.1016 51.275 26.2616 51.625 26.5816 51.905C26.9016 52.175 27.2966 52.31 27.7666 52.31ZM32.6621 54.965C32.5321 54.965 32.4271 54.925 32.3471 54.845C32.2671 54.775 32.2271 54.67 32.2271 54.53V52.73C32.2271 52.59 32.2621 52.475 32.3321 52.385C32.4021 52.295 32.4971 52.25 32.6171 52.25H32.9321C33.3221 51.73 33.6021 51.09 33.7721 50.33C33.9521 49.57 34.0421 48.555 34.0421 47.285V46.205C34.0421 46.065 34.0871 45.95 34.1771 45.86C34.2671 45.77 34.3821 45.725 34.5221 45.725H38.3171C38.4571 45.725 38.5721 45.77 38.6621 45.86C38.7621 45.95 38.8121 46.065 38.8121 46.205V52.25H39.4421C39.5821 52.25 39.6971 52.295 39.7871 52.385C39.8771 52.475 39.9221 52.59 39.9221 52.73V54.53C39.9221 54.67 39.8821 54.775 39.8021 54.845C39.7321 54.925 39.6271 54.965 39.4871 54.965C39.3571 54.965 39.2521 54.925 39.1721 54.845C39.0921 54.775 39.0521 54.67 39.0521 54.53V53H33.0971V54.53C33.0971 54.67 33.0571 54.775 32.9771 54.845C32.9071 54.925 32.8021 54.965 32.6621 54.965ZM37.8971 46.46H34.8971V47.285C34.8971 49.575 34.5571 51.23 33.8771 52.25H37.8971V46.46ZM41.9306 53C41.7806 53 41.6606 52.955 41.5706 52.865C41.4806 52.775 41.4356 52.66 41.4356 52.52V46.025C41.4356 45.895 41.4756 45.79 41.5556 45.71C41.6456 45.62 41.7606 45.575 41.9006 45.575C42.0406 45.575 42.1506 45.615 42.2306 45.695C42.3106 45.775 42.3506 45.885 42.3506 46.025V48.41H43.4756C44.3256 48.41 44.9956 48.58 45.4856 48.92C45.9856 49.26 46.2356 49.835 46.2356 50.645C46.2356 51.435 45.9556 52.025 45.3956 52.415C44.8456 52.805 44.1906 53 43.4306 53H41.9306ZM47.9606 53.075C47.8206 53.075 47.7056 53.035 47.6156 52.955C47.5356 52.865 47.4956 52.755 47.4956 52.625V46.025C47.4956 45.895 47.5356 45.79 47.6156 45.71C47.7056 45.62 47.8206 45.575 47.9606 45.575C48.1006 45.575 48.2106 45.615 48.2906 45.695C48.3706 45.775 48.4106 45.885 48.4106 46.025V52.625C48.4106 52.755 48.3706 52.865 48.2906 52.955C48.2106 53.035 48.1006 53.075 47.9606 53.075ZM43.3256 52.265C43.8456 52.265 44.3056 52.14 44.7056 51.89C45.1056 51.64 45.3056 51.225 45.3056 50.645C45.3056 50.055 45.1256 49.66 44.7656 49.46C44.4156 49.25 43.9356 49.145 43.3256 49.145H42.3506V52.265H43.3256ZM55.011 53.075C54.871 53.075 54.756 53.035 54.666 52.955C54.586 52.865 54.546 52.755 54.546 52.625V46.205C54.546 46.055 54.586 45.94 54.666 45.86C54.756 45.77 54.876 45.725 55.026 45.725H60.066C60.216 45.725 60.331 45.77 60.411 45.86C60.501 45.94 60.546 46.055 60.546 46.205V52.625C60.546 52.755 60.506 52.865 60.426 52.955C60.346 53.035 60.236 53.075 60.096 53.075C59.956 53.075 59.841 53.035 59.751 52.955C59.671 52.865 59.631 52.755 59.631 52.625V46.46H55.461V52.625C55.461 52.755 55.421 52.865 55.341 52.955C55.261 53.035 55.151 53.075 55.011 53.075ZM65.8206 53.105C65.1506 53.105 64.5606 52.95 64.0506 52.64C63.5506 52.33 63.1606 51.89 62.8806 51.32C62.6006 50.75 62.4606 50.085 62.4606 49.325C62.4606 48.565 62.6006 47.9 62.8806 47.33C63.1606 46.76 63.5506 46.32 64.0506 46.01C64.5606 45.7 65.1506 45.545 65.8206 45.545C66.4806 45.545 67.0656 45.7 67.5756 46.01C68.0856 46.32 68.4756 46.76 68.7456 47.33C69.0256 47.9 69.1656 48.565 69.1656 49.325C69.1656 50.085 69.0256 50.75 68.7456 51.32C68.4756 51.89 68.0856 52.33 67.5756 52.64C67.0656 52.95 66.4806 53.105 65.8206 53.105ZM65.8056 52.295C66.5756 52.295 67.1706 52.04 67.5906 51.53C68.0106 51.02 68.2206 50.285 68.2206 49.325C68.2206 48.385 68.0056 47.655 67.5756 47.135C67.1556 46.605 66.5706 46.34 65.8206 46.34C65.0606 46.34 64.4706 46.605 64.0506 47.135C63.6306 47.655 63.4206 48.385 63.4206 49.325C63.4206 50.285 63.6256 51.02 64.0356 51.53C64.4456 52.04 65.0356 52.295 65.8056 52.295ZM70.4844 54.965C70.3544 54.965 70.2494 54.925 70.1694 54.845C70.0894 54.775 70.0494 54.67 70.0494 54.53V52.73C70.0494 52.59 70.0844 52.475 70.1544 52.385C70.2244 52.295 70.3194 52.25 70.4394 52.25H70.7544C71.1444 51.73 71.4244 51.09 71.5944 50.33C71.7744 49.57 71.8644 48.555 71.8644 47.285V46.205C71.8644 46.065 71.9094 45.95 71.9994 45.86C72.0894 45.77 72.2044 45.725 72.3444 45.725H76.1394C76.2794 45.725 76.3944 45.77 76.4844 45.86C76.5844 45.95 76.6344 46.065 76.6344 46.205V52.25H77.2644C77.4044 52.25 77.5194 52.295 77.6094 52.385C77.6994 52.475 77.7444 52.59 77.7444 52.73V54.53C77.7444 54.67 77.7044 54.775 77.6244 54.845C77.5544 54.925 77.4494 54.965 77.3094 54.965C77.1794 54.965 77.0744 54.925 76.9944 54.845C76.9144 54.775 76.8744 54.67 76.8744 54.53V53H70.9194V54.53C70.9194 54.67 70.8794 54.775 70.7994 54.845C70.7294 54.925 70.6244 54.965 70.4844 54.965ZM75.7194 46.46H72.7194V47.285C72.7194 49.575 72.3794 51.23 71.6994 52.25H75.7194V46.46ZM85.0922 53.105C83.9922 53.105 83.1172 52.845 82.4672 52.325C82.3472 52.245 82.2872 52.14 82.2872 52.01C82.2872 51.9 82.3272 51.81 82.4072 51.74C82.4872 51.66 82.5772 51.62 82.6772 51.62C82.7572 51.62 82.8372 51.645 82.9172 51.695C83.2172 51.905 83.5322 52.06 83.8622 52.16C84.2022 52.25 84.6022 52.295 85.0622 52.295C85.6122 52.295 86.0972 52.17 86.5172 51.92C86.9472 51.67 87.1622 51.31 87.1622 50.84C87.1622 50.48 87.0372 50.185 86.7872 49.955C86.5372 49.725 86.1122 49.61 85.5122 49.61H84.3122C84.2122 49.61 84.1222 49.575 84.0422 49.505C83.9722 49.425 83.9372 49.335 83.9372 49.235C83.9372 49.135 83.9722 49.05 84.0422 48.98C84.1222 48.91 84.2122 48.875 84.3122 48.875H85.4072C85.8672 48.875 86.2522 48.75 86.5622 48.5C86.8722 48.24 87.0272 47.915 87.0272 47.525C87.0272 47.165 86.8872 46.88 86.6072 46.67C86.3272 46.45 85.9022 46.34 85.3322 46.34C84.8422 46.34 84.4172 46.4 84.0572 46.52C83.7072 46.63 83.3922 46.785 83.1122 46.985C83.0122 47.025 82.9372 47.045 82.8872 47.045C82.7872 47.045 82.6972 47.005 82.6172 46.925C82.5372 46.845 82.4972 46.755 82.4972 46.655C82.4972 46.525 82.5622 46.415 82.6922 46.325C83.4822 45.805 84.3822 45.545 85.3922 45.545C86.2922 45.545 86.9472 45.72 87.3572 46.07C87.7672 46.42 87.9722 46.89 87.9722 47.48C87.9722 47.83 87.8572 48.165 87.6272 48.485C87.4072 48.805 87.0922 49.03 86.6822 49.16C87.1722 49.24 87.5322 49.44 87.7622 49.76C87.9922 50.07 88.1072 50.44 88.1072 50.87C88.1072 51.57 87.8172 52.12 87.2372 52.52C86.6572 52.91 85.9422 53.105 85.0922 53.105ZM92.8759 45.545C93.7559 45.545 94.4109 45.775 94.8409 46.235C95.2809 46.695 95.5009 47.39 95.5009 48.32V52.595C95.5009 52.735 95.4609 52.85 95.3809 52.94C95.3009 53.02 95.1909 53.06 95.0509 53.06C94.9109 53.06 94.8009 53.02 94.7209 52.94C94.6409 52.85 94.6009 52.735 94.6009 52.595V51.695C94.3909 52.145 94.0859 52.495 93.6859 52.745C93.2859 52.985 92.8259 53.105 92.3059 53.105C91.8359 53.105 91.4059 53.01 91.0159 52.82C90.6359 52.63 90.3309 52.37 90.1009 52.04C89.8709 51.71 89.7559 51.34 89.7559 50.93C89.7459 50.38 89.8809 49.955 90.1609 49.655C90.4409 49.345 90.9059 49.125 91.5559 48.995C92.2059 48.865 93.1159 48.8 94.2859 48.8H94.6009V48.245C94.6009 47.585 94.4659 47.105 94.1959 46.805C93.9259 46.495 93.5009 46.34 92.9209 46.34C92.1809 46.34 91.4759 46.535 90.8059 46.925C90.7759 46.945 90.6959 47 90.5659 47.09C90.4459 47.17 90.3409 47.21 90.2509 47.21C90.1509 47.21 90.0659 47.175 89.9959 47.105C89.9359 47.025 89.9059 46.93 89.9059 46.82C89.9059 46.6 90.0809 46.385 90.4309 46.175C90.7809 45.975 91.1709 45.82 91.6009 45.71C92.0309 45.6 92.4559 45.545 92.8759 45.545ZM92.3809 52.31C93.0309 52.31 93.5609 52.09 93.9709 51.65C94.3909 51.21 94.6009 50.65 94.6009 49.97V49.475H94.3159C93.3559 49.475 92.6209 49.515 92.1109 49.595C91.6009 49.675 91.2409 49.815 91.0309 50.015C90.8209 50.205 90.7159 50.485 90.7159 50.855C90.7159 51.275 90.8759 51.625 91.1959 51.905C91.5159 52.175 91.9109 52.31 92.3809 52.31ZM107.476 54.965C107.346 54.965 107.241 54.925 107.161 54.845C107.081 54.775 107.041 54.67 107.041 54.53V53H98.3564C98.2064 53 98.0864 52.955 97.9964 52.865C97.9064 52.775 97.8614 52.66 97.8614 52.52V46.025C97.8614 45.885 97.9014 45.775 97.9814 45.695C98.0714 45.615 98.1864 45.575 98.3264 45.575C98.4664 45.575 98.5764 45.615 98.6564 45.695C98.7364 45.775 98.7764 45.885 98.7764 46.025V52.25H101.866V46.025C101.866 45.885 101.906 45.775 101.986 45.695C102.076 45.615 102.186 45.575 102.316 45.575C102.456 45.575 102.566 45.615 102.646 45.695C102.736 45.775 102.781 45.885 102.781 46.025V52.25H105.871V46.025C105.871 45.885 105.911 45.775 105.991 45.695C106.081 45.615 106.191 45.575 106.321 45.575C106.461 45.575 106.571 45.615 106.651 45.695C106.741 45.775 106.786 45.885 106.786 46.025V52.25H107.416C107.556 52.25 107.671 52.295 107.761 52.385C107.851 52.475 107.896 52.59 107.896 52.73V54.53C107.896 54.66 107.856 54.765 107.776 54.845C107.706 54.925 107.606 54.965 107.476 54.965ZM114.594 45.8C114.704 45.65 114.854 45.575 115.044 45.575C115.184 45.575 115.299 45.62 115.389 45.71C115.489 45.8 115.539 45.915 115.539 46.055V52.625C115.539 52.755 115.494 52.865 115.404 52.955C115.324 53.035 115.219 53.075 115.089 53.075C114.959 53.075 114.849 53.035 114.759 52.955C114.679 52.865 114.639 52.755 114.639 52.625V46.94L110.349 52.85C110.249 53 110.104 53.075 109.914 53.075C109.764 53.075 109.639 53.03 109.539 52.94C109.449 52.84 109.404 52.72 109.404 52.58V46.025C109.404 45.895 109.444 45.79 109.524 45.71C109.614 45.62 109.724 45.575 109.854 45.575C109.984 45.575 110.094 45.62 110.184 45.71C110.274 45.79 110.319 45.895 110.319 46.025V51.635L114.594 45.8ZM119.985 53.075C119.855 53.075 119.745 53.035 119.655 52.955C119.575 52.865 119.535 52.755 119.535 52.625V46.46H117.195C117.085 46.46 116.995 46.425 116.925 46.355C116.855 46.285 116.82 46.195 116.82 46.085C116.82 45.975 116.855 45.89 116.925 45.83C116.995 45.76 117.085 45.725 117.195 45.725H122.775C122.895 45.725 122.99 45.76 123.06 45.83C123.13 45.89 123.165 45.975 123.165 46.085C123.165 46.195 123.13 46.285 123.06 46.355C122.99 46.425 122.895 46.46 122.775 46.46H120.45V52.625C120.45 52.765 120.405 52.875 120.315 52.955C120.235 53.035 120.125 53.075 119.985 53.075ZM127.329 53.105C126.659 53.105 126.069 52.95 125.559 52.64C125.059 52.33 124.669 51.89 124.389 51.32C124.109 50.75 123.969 50.085 123.969 49.325C123.969 48.565 124.109 47.9 124.389 47.33C124.669 46.76 125.059 46.32 125.559 46.01C126.069 45.7 126.659 45.545 127.329 45.545C127.989 45.545 128.574 45.7 129.084 46.01C129.594 46.32 129.984 46.76 130.254 47.33C130.534 47.9 130.674 48.565 130.674 49.325C130.674 50.085 130.534 50.75 130.254 51.32C129.984 51.89 129.594 52.33 129.084 52.64C128.574 52.95 127.989 53.105 127.329 53.105ZM127.314 52.295C128.084 52.295 128.679 52.04 129.099 51.53C129.519 51.02 129.729 50.285 129.729 49.325C129.729 48.385 129.514 47.655 129.084 47.135C128.664 46.605 128.079 46.34 127.329 46.34C126.569 46.34 125.979 46.605 125.559 47.135C125.139 47.655 124.929 48.385 124.929 49.325C124.929 50.285 125.134 51.02 125.544 51.53C125.954 52.04 126.544 52.295 127.314 52.295ZM137.768 45.8C137.878 45.65 138.028 45.575 138.218 45.575C138.358 45.575 138.473 45.62 138.563 45.71C138.663 45.8 138.713 45.915 138.713 46.055V52.625C138.713 52.755 138.668 52.865 138.578 52.955C138.498 53.035 138.393 53.075 138.263 53.075C138.133 53.075 138.023 53.035 137.933 52.955C137.853 52.865 137.813 52.755 137.813 52.625V46.94L133.523 52.85C133.423 53 133.278 53.075 133.088 53.075C132.938 53.075 132.813 53.03 132.713 52.94C132.623 52.84 132.578 52.72 132.578 52.58V46.025C132.578 45.895 132.618 45.79 132.698 45.71C132.788 45.62 132.898 45.575 133.028 45.575C133.158 45.575 133.268 45.62 133.358 45.71C133.448 45.79 133.493 45.895 133.493 46.025V51.635L137.768 45.8ZM135.668 44.255C135.158 44.255 134.708 44.13 134.318 43.88C133.928 43.63 133.628 43.265 133.418 42.785C133.388 42.705 133.373 42.63 133.373 42.56C133.373 42.45 133.408 42.36 133.478 42.29C133.558 42.22 133.653 42.185 133.763 42.185C133.843 42.185 133.918 42.21 133.988 42.26C134.068 42.31 134.128 42.38 134.168 42.47C134.498 43.17 134.998 43.52 135.668 43.52C136.348 43.52 136.853 43.17 137.183 42.47C137.283 42.28 137.423 42.185 137.603 42.185C137.703 42.185 137.788 42.22 137.858 42.29C137.938 42.36 137.978 42.455 137.978 42.575C137.978 42.635 137.963 42.705 137.933 42.785C137.743 43.265 137.448 43.63 137.048 43.88C136.648 44.13 136.188 44.255 135.668 44.255Z" fill="#010101"/>
<path d="M11.304 10.656C12.6 10.656 14.052 10.74 15.66 10.908C17.292 11.052 18.852 11.388 20.34 11.916L19.872 16.92C18.792 16.896 17.448 16.884 15.84 16.884C14.256 16.86 12.684 16.848 11.124 16.848C10.236 16.848 9.624 16.908 9.288 17.028C8.976 17.148 8.82 17.4 8.82 17.784C8.82 18.12 8.964 18.408 9.252 18.648C9.564 18.864 10.14 19.14 10.98 19.476L15.48 21.348C17.544 22.236 18.984 23.268 19.8 24.444C20.64 25.596 21.06 27.084 21.06 28.908C21.06 30.756 20.748 32.244 20.124 33.372C19.524 34.476 18.48 35.28 16.992 35.784C15.528 36.264 13.5 36.504 10.908 36.504C10.068 36.504 8.796 36.432 7.092 36.288C5.388 36.168 3.456 35.832 1.296 35.28L1.764 29.808C3.9 29.856 5.772 29.904 7.38 29.952C8.988 29.976 10.128 29.988 10.8 29.988C11.784 29.988 12.432 29.928 12.744 29.808C13.08 29.688 13.248 29.46 13.248 29.124C13.248 28.788 13.128 28.512 12.888 28.296C12.672 28.08 12.228 27.852 11.556 27.612L6.624 25.452C4.608 24.54 3.18 23.52 2.34 22.392C1.5 21.264 1.08 19.788 1.08 17.964C1.08 16.068 1.404 14.592 2.052 13.536C2.724 12.48 3.804 11.736 5.292 11.304C6.804 10.872 8.808 10.656 11.304 10.656ZM34.3927 10.728C35.6887 10.728 36.7927 10.764 37.7047 10.836C38.6167 10.908 39.4447 11.016 40.1887 11.16C40.9567 11.28 41.7487 11.46 42.5647 11.7L41.9887 17.388C41.1487 17.364 40.3687 17.352 39.6487 17.352C38.9287 17.352 38.1607 17.352 37.3447 17.352C36.5287 17.328 35.5447 17.316 34.3927 17.316C33.5767 17.316 32.9407 17.496 32.4847 17.856C32.0527 18.192 31.7527 18.816 31.5847 19.728C31.4167 20.616 31.3327 21.9 31.3327 23.58C31.3327 25.26 31.4167 26.556 31.5847 27.468C31.7527 28.356 32.0527 28.98 32.4847 29.34C32.9407 29.676 33.5767 29.844 34.3927 29.844C36.1927 29.844 37.6927 29.832 38.8927 29.808C40.1167 29.76 41.3287 29.676 42.5287 29.556L43.1047 35.244C41.8567 35.676 40.5727 35.976 39.2527 36.144C37.9567 36.336 36.3367 36.432 34.3927 36.432C31.6567 36.432 29.4607 36.024 27.8047 35.208C26.1487 34.368 24.9487 33.012 24.2047 31.14C23.4847 29.268 23.1247 26.748 23.1247 23.58C23.1247 20.412 23.4847 17.892 24.2047 16.02C24.9487 14.148 26.1487 12.804 27.8047 11.988C29.4607 11.148 31.6567 10.728 34.3927 10.728ZM53.4895 11.16V20.088H59.7535V11.16H67.5655V36H59.7535V25.56H53.4895V36H45.6775V11.16H53.4895ZM93.1568 11.16V25.74C93.1568 28.38 92.8088 30.492 92.1128 32.076C91.4408 33.636 90.3248 34.764 88.7648 35.46C87.2288 36.156 85.1648 36.504 82.5728 36.504C79.7648 36.504 77.5208 36.156 75.8408 35.46C74.1848 34.764 72.9848 33.636 72.2408 32.076C71.5208 30.492 71.1608 28.38 71.1608 25.74V11.16H78.9727V25.74C78.9727 27.06 79.0568 28.08 79.2248 28.8C79.4168 29.52 79.7408 30.024 80.1968 30.312C80.6768 30.576 81.3368 30.708 82.1768 30.708C83.0168 30.708 83.6648 30.576 84.1208 30.312C84.5768 30.024 84.8888 29.52 85.0568 28.8C85.2488 28.08 85.3448 27.06 85.3448 25.74V11.16H93.1568ZM116.92 11.16V16.992H109.972V36H102.16V16.992H95.2116V11.16H116.92ZM138.053 30.528V36H118.325V30.528L129.053 16.632H118.685V11.16H137.693V16.632L126.965 30.528H138.053Z" fill="black"/>
</svg>
