<svg width="138" height="27" viewBox="0 0 138 27" fill="none" xmlns="http://www.w3.org/2000/svg">
<path d="M10.304 0.655998C11.6 0.655998 13.052 0.739998 14.66 0.907999C16.292 1.052 17.852 1.388 19.34 1.916L18.872 6.92C17.792 6.896 16.448 6.884 14.84 6.884C13.256 6.86 11.684 6.848 10.124 6.848C9.236 6.848 8.624 6.908 8.288 7.028C7.976 7.148 7.82 7.4 7.82 7.784C7.82 8.12 7.964 8.408 8.252 8.648C8.564 8.864 9.14 9.14 9.98 9.476L14.48 11.348C16.544 12.236 17.984 13.268 18.8 14.444C19.64 15.596 20.06 17.084 20.06 18.908C20.06 20.756 19.748 22.244 19.124 23.372C18.524 24.476 17.48 25.28 15.992 25.784C14.528 26.264 12.5 26.504 9.908 26.504C9.068 26.504 7.796 26.432 6.092 26.288C4.388 26.168 2.456 25.832 0.296 25.28L0.764 19.808C2.9 19.856 4.772 19.904 6.38 19.952C7.988 19.976 9.128 19.988 9.8 19.988C10.784 19.988 11.432 19.928 11.744 19.808C12.08 19.688 12.248 19.46 12.248 19.124C12.248 18.788 12.128 18.512 11.888 18.296C11.672 18.08 11.228 17.852 10.556 17.612L5.624 15.452C3.608 14.54 2.18 13.52 1.34 12.392C0.5 11.264 0.08 9.788 0.08 7.964C0.08 6.068 0.404 4.592 1.052 3.536C1.724 2.48 2.804 1.736 4.292 1.304C5.804 0.871998 7.808 0.655998 10.304 0.655998ZM33.3927 0.727999C34.6887 0.727999 35.7927 0.763999 36.7047 0.835998C37.6167 0.907998 38.4447 1.016 39.1887 1.16C39.9567 1.28 40.7487 1.46 41.5647 1.7L40.9887 7.388C40.1487 7.364 39.3687 7.352 38.6487 7.352C37.9287 7.352 37.1607 7.352 36.3447 7.352C35.5287 7.328 34.5447 7.316 33.3927 7.316C32.5767 7.316 31.9407 7.496 31.4847 7.856C31.0527 8.192 30.7527 8.816 30.5847 9.728C30.4167 10.616 30.3327 11.9 30.3327 13.58C30.3327 15.26 30.4167 16.556 30.5847 17.468C30.7527 18.356 31.0527 18.98 31.4847 19.34C31.9407 19.676 32.5767 19.844 33.3927 19.844C35.1927 19.844 36.6927 19.832 37.8927 19.808C39.1167 19.76 40.3287 19.676 41.5287 19.556L42.1047 25.244C40.8567 25.676 39.5727 25.976 38.2527 26.144C36.9567 26.336 35.3367 26.432 33.3927 26.432C30.6567 26.432 28.4607 26.024 26.8047 25.208C25.1487 24.368 23.9487 23.012 23.2047 21.14C22.4847 19.268 22.1247 16.748 22.1247 13.58C22.1247 10.412 22.4847 7.892 23.2047 6.02C23.9487 4.148 25.1487 2.804 26.8047 1.988C28.4607 1.148 30.6567 0.727999 33.3927 0.727999ZM52.4895 1.16V10.088H58.7535V1.16H66.5655V26H58.7535V15.56H52.4895V26H44.6775V1.16H52.4895ZM92.1568 1.16V15.74C92.1568 18.38 91.8088 20.492 91.1128 22.076C90.4408 23.636 89.3248 24.764 87.7648 25.46C86.2288 26.156 84.1648 26.504 81.5728 26.504C78.7648 26.504 76.5208 26.156 74.8408 25.46C73.1848 24.764 71.9848 23.636 71.2408 22.076C70.5208 20.492 70.1608 18.38 70.1608 15.74V1.16H77.9727V15.74C77.9727 17.06 78.0568 18.08 78.2248 18.8C78.4168 19.52 78.7408 20.024 79.1968 20.312C79.6768 20.576 80.3368 20.708 81.1768 20.708C82.0168 20.708 82.6648 20.576 83.1208 20.312C83.5768 20.024 83.8888 19.52 84.0568 18.8C84.2488 18.08 84.3448 17.06 84.3448 15.74V1.16H92.1568ZM115.92 1.16V6.992H108.972V26H101.16V6.992H94.2116V1.16H115.92ZM137.053 20.528V26H117.325V20.528L128.053 6.632H117.685V1.16H136.693V6.632L125.965 20.528H137.053Z" fill="#FAD896"/>
</svg>
