<?xml version="1.0" encoding="UTF-8" standalone="no"?><!DOCTYPE svg PUBLIC "-//W3C//DTD SVG 1.1//EN" "http://www.w3.org/Graphics/SVG/1.1/DTD/svg11.dtd"><svg width="100%" height="100%" viewBox="0 0 871 884" version="1.1" xmlns="http://www.w3.org/2000/svg" xmlns:xlink="http://www.w3.org/1999/xlink" xml:space="preserve" xmlns:serif="http://www.serif.com/" style="fill-rule:evenodd;clip-rule:evenodd;stroke-linejoin:round;stroke-miterlimit:2;"><path d="M500.8,764.958l-500.8,0l0,-102.941c0,-21.329 9.275,-42.663 25.967,-56.571c73.266,-60.283 150.241,-103.871 191.046,-125.2c4.637,10.2 49.154,114.071 76.05,152.092c0,0 26.895,-95.521 71.408,-69.555c0,0 -89.959,-69.554 -118.708,-104.795l0,-67.7c-11.13,-19.48 -18.546,-38.955 -21.33,-57.5c-8.345,-0.93 -18.55,-12.059 -29.679,-51.938c-13.908,-51.008 -0.925,-61.208 12.059,-62.133c-0.93,-4.638 -1.855,-8.35 -2.784,-12.988c-4.637,-25.966 -6.491,-49.15 0,-72.337c7.421,-30.604 24.113,-54.717 41.734,-74.192c12.058,-12.054 25.041,-23.183 38.954,-32.458c11.125,-8.346 24.112,-14.838 38.021,-19.475c11.129,-3.713 22.258,-5.567 34.316,-6.492c38.021,-3.712 65.846,6.492 86.246,18.546c30.608,16.696 41.733,38.95 41.733,38.95c0,0 69.559,4.637 46.371,147.458c-0.925,4.638 -1.854,8.35 -2.779,12.988c12.983,0 26.892,10.2 12.054,62.133c-11.129,39.879 -22.258,51.008 -29.675,51.938c-2.783,18.545 -10.204,38.02 -21.333,57.5l0,67.7c-29.675,34.312 -118.708,103.866 -118.708,103.866c44.516,-25.037 71.412,69.559 71.412,69.559c26.896,-38.025 71.408,-141.896 76.046,-152.096c21.333,11.129 53.792,29.679 90.887,52.862c-67.7,34.313 -114.07,104.796 -114.07,185.484c0,16.691 1.854,32.458 5.562,47.295Zm367.254,-47.295c0,90.883 -73.262,165.079 -165.079,165.079c-90.883,0 -165.079,-73.267 -165.079,-165.079c0,-90.888 73.266,-165.08 165.079,-165.08c91.817,0.925 165.079,74.192 165.079,165.08Zm-83.467,-22.259l-58.425,0l0,-58.429l-44.516,0l0,58.429l-58.425,0l0,44.517l58.425,0l0,58.425l44.516,0l0,-58.425l58.425,0l0,-44.517Z" style="fill:#d2d2d2;fill-rule:nonzero;"/></svg>
