<svg width="185" height="224" viewBox="0 0 185 224" fill="none" xmlns="http://www.w3.org/2000/svg">
    <path d="M92.5034 183.854C92.6489 183.855 92.7941 183.911 92.9051 184.022C93.129 184.246 93.129 184.608 92.9051 184.832C92.7941 184.943 92.6489 184.999 92.5034 185H92.5C92.3532 185 92.2068 184.944 92.0948 184.832C91.871 184.608 91.871 184.246 92.0948 184.022C92.2068 183.91 92.3532 183.854 92.5 183.854H92.5034ZM97.9103 178.447C98.0559 178.448 98.2011 178.503 98.3121 178.615C98.5359 178.838 98.5359 179.199 98.3121 179.425C98.2011 179.536 98.0559 179.592 97.9103 179.593H97.9069C97.7605 179.593 97.6137 179.537 97.5018 179.425C97.2779 179.201 97.2779 178.838 97.5018 178.615C97.6137 178.503 97.7605 178.447 97.9069 178.447H97.9103ZM87.0965 178.447C87.242 178.448 87.3872 178.503 87.4982 178.615C87.7221 178.838 87.7221 179.199 87.4982 179.425C87.3872 179.536 87.242 179.592 87.0965 179.593H87.0931C86.9463 179.593 86.7995 179.537 86.6879 179.425C86.4641 179.201 86.4641 178.838 86.6879 178.615C86.7995 178.503 86.9463 178.447 87.0931 178.447H87.0965ZM103.319 173.038C103.465 173.039 103.61 173.095 103.721 173.206C103.945 173.43 103.945 173.793 103.721 174.016C103.61 174.127 103.465 174.183 103.319 174.184H103.316C103.169 174.184 103.023 174.128 102.911 174.016C102.687 173.793 102.687 173.43 102.911 173.206C103.023 173.094 103.169 173.038 103.316 173.038L103.319 173.038ZM81.6895 173.038C81.835 173.039 81.9803 173.095 82.0913 173.206C82.3151 173.43 82.3151 173.793 82.0913 174.016C81.9803 174.127 81.835 174.183 81.6895 174.184H81.6861C81.5394 174.184 81.3926 174.128 81.2807 174.016C81.0571 173.793 81.0571 173.43 81.2807 173.206C81.3926 173.094 81.5394 173.038 81.6861 173.038L81.6895 173.038ZM92.5034 173.038C92.6489 173.039 92.7941 173.095 92.9051 173.206C93.129 173.43 93.129 173.793 92.9051 174.016C92.7941 174.127 92.6489 174.183 92.5034 174.184H92.5C92.3532 174.184 92.2068 174.128 92.0948 174.016C91.871 173.793 91.871 173.43 92.0948 173.206C92.2068 173.094 92.3532 173.038 92.5 173.038L92.5034 173.038ZM108.726 167.631C108.872 167.632 109.017 167.688 109.128 167.799C109.352 168.022 109.352 168.385 109.128 168.609C109.017 168.72 108.872 168.776 108.726 168.777H108.723C108.576 168.777 108.43 168.721 108.318 168.609C108.094 168.385 108.094 168.022 108.318 167.799C108.43 167.687 108.576 167.631 108.723 167.631H108.726ZM87.0965 167.631C87.242 167.632 87.3872 167.688 87.4982 167.799C87.7221 168.022 87.7221 168.385 87.4982 168.609C87.3872 168.72 87.242 168.776 87.0965 168.777H87.0931C86.9463 168.777 86.7995 168.721 86.6879 168.609C86.4641 168.385 86.4641 168.022 86.6879 167.799C86.7995 167.687 86.9463 167.631 87.0931 167.631H87.0965ZM76.2804 167.631C76.4259 167.632 76.5712 167.688 76.6822 167.799C76.906 168.022 76.906 168.385 76.6822 168.609C76.5712 168.72 76.4259 168.776 76.2804 168.777H76.277C76.1303 168.777 75.9838 168.721 75.8719 168.609C75.648 168.385 75.648 168.022 75.8719 167.799C75.9838 167.687 76.1303 167.631 76.277 167.631H76.2804ZM97.9103 167.631C98.0559 167.632 98.2011 167.688 98.3121 167.799C98.5359 168.022 98.5359 168.385 98.3121 168.609C98.2011 168.72 98.0559 168.776 97.9103 168.777H97.9069C97.7605 168.777 97.6137 168.721 97.5018 168.609C97.2779 168.385 97.2779 168.022 97.5018 167.799C97.6137 167.687 97.7605 167.631 97.9069 167.631H97.9103ZM81.6895 162.224C81.835 162.225 81.9803 162.281 82.0913 162.392C82.3151 162.616 82.3151 162.978 82.0913 163.202C81.9803 163.313 81.835 163.369 81.6895 163.37H81.6861C81.5394 163.37 81.3926 163.314 81.2807 163.202C81.0571 162.978 81.0571 162.616 81.2807 162.392C81.3926 162.28 81.5394 162.224 81.6861 162.224H81.6895ZM114.133 162.224C114.279 162.225 114.424 162.281 114.535 162.392C114.759 162.616 114.759 162.978 114.535 163.202C114.424 163.313 114.279 163.369 114.133 163.37H114.13C113.983 163.37 113.837 163.314 113.725 163.202C113.501 162.978 113.501 162.616 113.725 162.392C113.837 162.28 113.983 162.224 114.13 162.224H114.133ZM103.319 162.224C103.465 162.225 103.61 162.281 103.721 162.392C103.945 162.616 103.945 162.978 103.721 163.202C103.61 163.313 103.465 163.369 103.319 163.37H103.316C103.169 163.37 103.023 163.314 102.911 163.202C102.687 162.978 102.687 162.616 102.911 162.392C103.023 162.28 103.169 162.224 103.316 162.224H103.319ZM92.5034 162.224C92.6489 162.225 92.7941 162.281 92.9051 162.392C93.129 162.616 93.129 162.978 92.9051 163.202C92.7941 163.313 92.6489 163.369 92.5034 163.37H92.5C92.3532 163.37 92.2068 163.314 92.0948 163.202C91.871 162.978 91.871 162.616 92.0948 162.392C92.2068 162.28 92.3532 162.224 92.5 162.224H92.5034ZM70.8738 162.225C71.188 162.226 71.4427 162.482 71.4427 162.797C71.4427 163.112 71.188 163.368 70.8738 163.37H70.8701C70.554 163.37 70.2975 163.113 70.2975 162.797C70.2975 162.481 70.554 162.225 70.8701 162.225H70.8738ZM97.9103 156.817C98.0559 156.818 98.2011 156.874 98.3121 156.985C98.5359 157.209 98.5359 157.569 98.3121 157.795C98.2011 157.906 98.0559 157.962 97.9103 157.963H97.9069C97.7605 157.963 97.6137 157.907 97.5018 157.795C97.2779 157.572 97.2779 157.209 97.5018 156.985C97.6137 156.873 97.7605 156.817 97.9069 156.817H97.9103ZM108.726 156.817C108.872 156.818 109.017 156.874 109.128 156.985C109.352 157.209 109.352 157.569 109.128 157.795C109.017 157.906 108.872 157.962 108.726 157.963H108.723C108.576 157.963 108.43 157.907 108.318 157.795C108.094 157.572 108.094 157.209 108.318 156.985C108.43 156.873 108.576 156.817 108.723 156.817H108.726ZM76.2804 156.817C76.4259 156.818 76.5712 156.874 76.6822 156.985C76.906 157.209 76.906 157.569 76.6822 157.795C76.5712 157.906 76.4259 157.962 76.2804 157.963H76.277C76.1303 157.963 75.9838 157.907 75.8719 157.795C75.648 157.572 75.648 157.209 75.8719 156.985C75.9838 156.873 76.1303 156.817 76.277 156.817H76.2804ZM87.0965 156.817C87.242 156.818 87.3872 156.874 87.4982 156.985C87.7221 157.209 87.7221 157.569 87.4982 157.795C87.3872 157.906 87.242 157.962 87.0965 157.963H87.0931C86.9463 157.963 86.7995 157.907 86.6879 157.795C86.4641 157.572 86.4641 157.209 86.6879 156.985C86.7995 156.873 86.9463 156.817 87.0931 156.817H87.0965ZM119.541 156.816C119.855 156.817 120.109 157.073 120.109 157.388C120.109 157.703 119.855 157.959 119.541 157.961H119.537C119.221 157.961 118.965 157.704 118.965 157.388C118.965 157.072 119.221 156.816 119.537 156.816H119.541ZM65.4665 156.816C65.781 156.817 66.0354 157.073 66.0354 157.388C66.0354 157.703 65.781 157.959 65.4665 157.961H65.4628C65.1471 157.961 64.8906 157.704 64.8906 157.388C64.8906 157.072 65.1471 156.816 65.4628 156.816H65.4665ZM114.133 151.408C114.279 151.409 114.424 151.465 114.535 151.576C114.759 151.8 114.759 152.163 114.535 152.386C114.424 152.497 114.279 152.553 114.133 152.554H114.13C113.983 152.554 113.837 152.498 113.725 152.386C113.501 152.163 113.501 151.8 113.725 151.576C113.837 151.464 113.983 151.408 114.13 151.408H114.133ZM92.5034 151.408C92.6489 151.409 92.7941 151.465 92.9051 151.576C93.129 151.8 93.129 152.163 92.9051 152.386C92.7941 152.497 92.6489 152.553 92.5034 152.554H92.5C92.3532 152.554 92.2068 152.498 92.0948 152.386C91.871 152.163 91.871 151.8 92.0948 151.576C92.2068 151.464 92.3532 151.408 92.5 151.408H92.5034ZM103.319 151.408C103.465 151.409 103.61 151.465 103.721 151.576C103.945 151.8 103.945 152.163 103.721 152.386C103.61 152.497 103.465 152.553 103.319 152.554H103.316C103.169 152.554 103.023 152.498 102.911 152.386C102.687 152.163 102.687 151.8 102.911 151.576C103.023 151.464 103.169 151.408 103.316 151.408H103.319ZM81.6895 151.408C81.835 151.409 81.9803 151.465 82.0913 151.576C82.3151 151.8 82.3151 152.163 82.0913 152.386C81.9803 152.497 81.835 152.553 81.6895 152.554H81.6861C81.5394 152.554 81.3926 152.498 81.2807 152.386C81.0571 152.163 81.0571 151.8 81.2807 151.576C81.3926 151.464 81.5394 151.408 81.6861 151.408H81.6895ZM124.948 151.409C125.262 151.411 125.517 151.666 125.517 151.981C125.517 152.296 125.262 152.552 124.948 152.554H124.944C124.628 152.554 124.372 152.297 124.372 151.981C124.372 151.665 124.628 151.409 124.944 151.409H124.948ZM70.8738 151.409C71.188 151.411 71.4427 151.666 71.4427 151.981C71.4427 152.296 71.188 152.552 70.8738 152.554H70.8701C70.554 152.554 70.2975 152.297 70.2975 151.981C70.2975 151.665 70.554 151.409 70.8701 151.409H70.8738ZM60.0578 151.409C60.3719 151.411 60.6266 151.666 60.6266 151.981C60.6266 152.296 60.3719 152.552 60.0578 152.554H60.0541C59.738 152.554 59.4815 152.297 59.4815 151.981C59.4815 151.665 59.738 151.409 60.0541 151.409H60.0578ZM97.9103 146.001C98.0559 146.002 98.2011 146.058 98.3121 146.169C98.5359 146.393 98.5359 146.756 98.3121 146.98C98.2011 147.091 98.0559 147.146 97.9103 147.147H97.9069C97.7605 147.147 97.6137 147.091 97.5018 146.98C97.2779 146.756 97.2779 146.393 97.5018 146.169C97.6137 146.057 97.7605 146.001 97.9069 146.001H97.9103ZM108.726 146.001C108.872 146.002 109.017 146.058 109.128 146.169C109.352 146.393 109.352 146.756 109.128 146.98C109.017 147.091 108.872 147.146 108.726 147.147H108.723C108.576 147.147 108.43 147.091 108.318 146.98C108.094 146.756 108.094 146.393 108.318 146.169C108.43 146.057 108.576 146.001 108.723 146.001H108.726ZM76.2804 146.001C76.4259 146.002 76.5712 146.058 76.6822 146.169C76.906 146.393 76.906 146.756 76.6822 146.98C76.5712 147.091 76.4259 147.146 76.2804 147.147H76.277C76.1303 147.147 75.9838 147.091 75.8719 146.98C75.648 146.756 75.648 146.393 75.8719 146.169C75.9838 146.057 76.1303 146.001 76.277 146.001H76.2804ZM87.0965 146.001C87.242 146.002 87.3872 146.058 87.4982 146.169C87.7221 146.393 87.7221 146.756 87.4982 146.98C87.3872 147.091 87.242 147.146 87.0965 147.147H87.0931C86.9463 147.147 86.7995 147.091 86.6879 146.98C86.4641 146.756 86.4641 146.393 86.6879 146.169C86.7995 146.057 86.9463 146.001 87.0931 146.001H87.0965ZM65.4665 146.002C65.781 146.004 66.0354 146.26 66.0354 146.574C66.0354 146.889 65.781 147.145 65.4665 147.147H65.4628C65.1471 147.147 64.8906 146.89 64.8906 146.574C64.8906 146.258 65.1471 146.002 65.4628 146.002H65.4665ZM119.541 146.002C119.855 146.004 120.109 146.26 120.109 146.574C120.109 146.889 119.855 147.145 119.541 147.147H119.537C119.221 147.147 118.965 146.89 118.965 146.574C118.965 146.258 119.221 146.002 119.537 146.002H119.541ZM130.357 146.002C130.671 146.004 130.925 146.26 130.925 146.574C130.925 146.889 130.671 147.145 130.357 147.147H130.353C130.037 147.147 129.781 146.89 129.781 146.574C129.781 146.258 130.037 146.002 130.353 146.002H130.357ZM54.6508 146.002C54.965 146.004 55.2194 146.26 55.2194 146.574C55.2194 146.889 54.965 147.145 54.6508 147.147H54.6471C54.3311 147.147 54.0745 146.89 54.0745 146.574C54.0745 146.258 54.3311 146.002 54.6471 146.002H54.6508ZM114.133 140.594C114.279 140.595 114.424 140.651 114.535 140.762C114.759 140.986 114.759 141.349 114.535 141.573C114.424 141.684 114.279 141.739 114.133 141.74H114.13C113.983 141.74 113.837 141.684 113.725 141.573C113.501 141.349 113.501 140.986 113.725 140.762C113.837 140.65 113.983 140.594 114.13 140.594H114.133ZM103.319 140.594C103.465 140.595 103.61 140.651 103.721 140.762C103.945 140.986 103.945 141.349 103.721 141.573C103.61 141.684 103.465 141.739 103.319 141.74H103.316C103.169 141.74 103.023 141.684 102.911 141.573C102.687 141.349 102.687 140.986 102.911 140.762C103.023 140.65 103.169 140.594 103.316 140.594H103.319ZM92.5034 140.594C92.6489 140.595 92.7941 140.651 92.9051 140.762C93.129 140.986 93.129 141.349 92.9051 141.573C92.7941 141.684 92.6489 141.739 92.5034 141.74H92.5C92.3532 141.74 92.2068 141.684 92.0948 141.573C91.871 141.349 91.871 140.986 92.0948 140.762C92.2068 140.65 92.3532 140.594 92.5 140.594H92.5034ZM81.6895 140.594C81.835 140.595 81.9803 140.651 82.0913 140.762C82.3151 140.986 82.3151 141.349 82.0913 141.573C81.9803 141.684 81.835 141.739 81.6895 141.74H81.6861C81.5394 141.74 81.3926 141.684 81.2807 141.573C81.0571 141.349 81.0571 140.986 81.2807 140.762C81.3926 140.65 81.5394 140.594 81.6861 140.594H81.6895ZM49.2436 140.595C49.5581 140.597 49.8124 140.852 49.8124 141.167C49.8124 141.482 49.5581 141.738 49.2436 141.74H49.2399C48.9241 141.74 48.6673 141.483 48.6673 141.167C48.6673 140.851 48.9241 140.595 49.2399 140.595H49.2436ZM124.948 140.595C125.262 140.597 125.517 140.852 125.517 141.167C125.517 141.482 125.262 141.738 124.948 141.74H124.944C124.628 141.74 124.372 141.483 124.372 141.167C124.372 140.851 124.628 140.595 124.944 140.595H124.948ZM60.0578 140.595C60.3719 140.597 60.6266 140.852 60.6266 141.167C60.6266 141.482 60.3719 141.738 60.0578 141.74H60.0541C59.738 141.74 59.4815 141.483 59.4815 141.167C59.4815 140.851 59.738 140.595 60.0541 140.595H60.0578ZM135.764 140.595C136.078 140.597 136.333 140.852 136.333 141.167C136.333 141.482 136.078 141.738 135.764 141.74H135.76C135.444 141.74 135.188 141.483 135.188 141.167C135.188 140.851 135.444 140.595 135.76 140.595H135.764ZM70.8738 140.595C71.188 140.597 71.4427 140.852 71.4427 141.167C71.4427 141.482 71.188 141.738 70.8738 141.74H70.8701C70.554 141.74 70.2975 141.483 70.2975 141.167C70.2975 140.851 70.554 140.595 70.8701 140.595H70.8738ZM76.2804 135.187C76.4259 135.188 76.5712 135.244 76.6822 135.355C76.906 135.577 76.906 135.94 76.6822 136.165C76.5712 136.276 76.4259 136.333 76.2804 136.334H76.277C76.1303 136.334 75.9838 136.277 75.8719 136.165C75.648 135.942 75.648 135.579 75.8719 135.355C75.9838 135.243 76.1303 135.187 76.277 135.187H76.2804ZM97.9103 135.187C98.0559 135.188 98.2011 135.244 98.3121 135.355C98.5359 135.577 98.5359 135.94 98.3121 136.165C98.2011 136.276 98.0559 136.333 97.9103 136.334H97.9069C97.7605 136.334 97.6137 136.277 97.5018 136.165C97.2779 135.942 97.2779 135.579 97.5018 135.355C97.6137 135.243 97.7605 135.187 97.9069 135.187H97.9103ZM87.0965 135.187C87.242 135.188 87.3872 135.244 87.4982 135.355C87.7221 135.577 87.7221 135.94 87.4982 136.165C87.3872 136.276 87.242 136.333 87.0965 136.334H87.0931C86.9463 136.334 86.7995 136.277 86.6879 136.165C86.4641 135.942 86.4641 135.579 86.6879 135.355C86.7995 135.243 86.9463 135.187 87.0931 135.187H87.0965ZM108.726 135.187C108.872 135.188 109.017 135.244 109.128 135.355C109.352 135.577 109.352 135.94 109.128 136.165C109.017 136.276 108.872 136.333 108.726 136.334H108.723C108.576 136.334 108.43 136.277 108.318 136.165C108.094 135.942 108.094 135.579 108.318 135.355C108.43 135.243 108.576 135.187 108.723 135.187H108.726ZM141.171 135.186C141.485 135.188 141.74 135.444 141.74 135.759C141.74 136.073 141.485 136.329 141.171 136.331H141.167C140.851 136.331 140.594 136.074 140.594 135.759C140.594 135.442 140.851 135.186 141.167 135.186H141.171ZM65.4665 135.186C65.781 135.188 66.0354 135.444 66.0354 135.759C66.0354 136.073 65.781 136.329 65.4665 136.331H65.4628C65.1471 136.331 64.8906 136.074 64.8906 135.759C64.8906 135.442 65.1471 135.186 65.4628 135.186H65.4665ZM119.541 135.186C119.855 135.188 120.109 135.444 120.109 135.759C120.109 136.073 119.855 136.329 119.541 136.331H119.537C119.221 136.331 118.965 136.074 118.965 135.759C118.965 135.442 119.221 135.186 119.537 135.186H119.541ZM43.8366 135.186C44.1511 135.188 44.4055 135.444 44.4055 135.759C44.4055 136.073 44.1511 136.329 43.8366 136.331H43.8329C43.5169 136.331 43.2604 136.074 43.2604 135.759C43.2604 135.442 43.5169 135.186 43.8329 135.186H43.8366ZM130.357 135.186C130.671 135.188 130.925 135.444 130.925 135.759C130.925 136.073 130.671 136.329 130.357 136.331H130.353C130.037 136.331 129.781 136.074 129.781 135.759C129.781 135.442 130.037 135.186 130.353 135.186H130.357ZM54.6508 135.186C54.965 135.188 55.2194 135.444 55.2194 135.759C55.2194 136.073 54.965 136.329 54.6508 136.331H54.6471C54.3311 136.331 54.0745 136.074 54.0745 135.759C54.0745 135.442 54.3311 135.186 54.6471 135.186H54.6508ZM92.5034 129.778C92.6489 129.779 92.7941 129.835 92.9051 129.946C93.129 130.17 93.129 130.533 92.9051 130.757C92.7941 130.868 92.6489 130.924 92.5034 130.925H92.5C92.3532 130.925 92.2068 130.869 92.0948 130.757C91.871 130.533 91.871 130.17 92.0948 129.946C92.2068 129.834 92.3532 129.778 92.5 129.778H92.5034ZM103.319 129.778C103.465 129.779 103.61 129.835 103.721 129.946C103.945 130.17 103.945 130.533 103.721 130.757C103.61 130.868 103.465 130.924 103.319 130.925H103.316C103.169 130.925 103.023 130.869 102.911 130.757C102.687 130.533 102.687 130.17 102.911 129.946C103.023 129.834 103.169 129.778 103.316 129.778H103.319ZM114.133 129.778C114.279 129.779 114.424 129.835 114.535 129.946C114.759 130.17 114.759 130.533 114.535 130.757C114.424 130.868 114.279 130.924 114.133 130.925H114.13C113.983 130.925 113.837 130.869 113.725 130.757C113.501 130.533 113.501 130.17 113.725 129.946C113.837 129.834 113.983 129.778 114.13 129.778H114.133ZM81.6895 129.778C81.835 129.779 81.9803 129.835 82.0913 129.946C82.3151 130.17 82.3151 130.533 82.0913 130.757C81.9803 130.868 81.835 130.924 81.6895 130.925H81.6861C81.5394 130.925 81.3926 130.869 81.2807 130.757C81.0571 130.533 81.0571 130.17 81.2807 129.946C81.3926 129.834 81.5394 129.778 81.6861 129.778H81.6895ZM38.4275 129.779C38.742 129.781 38.9964 130.037 38.9964 130.351C38.9964 130.666 38.742 130.922 38.4275 130.924H38.4238C38.1081 130.924 37.8516 130.667 37.8516 130.351C37.8516 130.036 38.1081 129.779 38.4238 129.779H38.4275ZM124.948 129.779C125.262 129.781 125.517 130.037 125.517 130.351C125.517 130.666 125.262 130.922 124.948 130.924H124.944C124.628 130.924 124.372 130.667 124.372 130.351C124.372 130.036 124.628 129.779 124.944 129.779H124.948ZM146.578 129.779C146.892 129.781 147.147 130.037 147.147 130.351C147.147 130.666 146.892 130.922 146.578 130.924H146.574C146.258 130.924 146.001 130.667 146.001 130.351C146.001 130.036 146.258 129.779 146.574 129.779H146.578ZM135.764 129.779C136.078 129.781 136.333 130.037 136.333 130.351C136.333 130.666 136.078 130.922 135.764 130.924H135.76C135.444 130.924 135.188 130.667 135.188 130.351C135.188 130.036 135.444 129.779 135.76 129.779H135.764ZM60.0578 129.779C60.3719 129.781 60.6266 130.037 60.6266 130.351C60.6266 130.666 60.3719 130.922 60.0578 130.924H60.0541C59.738 130.924 59.4815 130.667 59.4815 130.351C59.4815 130.036 59.738 129.779 60.0541 129.779H60.0578ZM49.2436 129.779C49.5581 129.781 49.8124 130.037 49.8124 130.351C49.8124 130.666 49.5581 130.922 49.2436 130.924H49.2399C48.9241 130.924 48.6673 130.667 48.6673 130.351C48.6673 130.036 48.9241 129.779 49.2399 129.779H49.2436ZM70.8738 129.779C71.188 129.781 71.4427 130.037 71.4427 130.351C71.4427 130.666 71.188 130.922 70.8738 130.924H70.8701C70.554 130.924 70.2975 130.667 70.2975 130.351C70.2975 130.036 70.554 129.779 70.8701 129.779H70.8738ZM108.726 124.372C108.872 124.373 109.017 124.428 109.128 124.539C109.352 124.763 109.352 125.126 109.128 125.35C109.017 125.461 108.872 125.517 108.726 125.518H108.723C108.576 125.518 108.43 125.462 108.318 125.35C108.094 125.126 108.094 124.763 108.318 124.539C108.43 124.427 108.576 124.372 108.723 124.372H108.726ZM97.9103 124.372C98.0559 124.373 98.2011 124.428 98.3121 124.539C98.5359 124.763 98.5359 125.126 98.3121 125.35C98.2011 125.461 98.0559 125.517 97.9103 125.518H97.9069C97.7605 125.518 97.6137 125.462 97.5018 125.35C97.2779 125.126 97.2779 124.763 97.5018 124.539C97.6137 124.427 97.7605 124.372 97.9069 124.372H97.9103ZM33.0203 124.372C33.1658 124.373 33.3111 124.428 33.4221 124.539C33.6459 124.763 33.6459 125.126 33.4221 125.35C33.3111 125.461 33.1658 125.517 33.0203 125.518H33.0169C32.8704 125.518 32.7237 125.462 32.6117 125.35C32.3879 125.126 32.3879 124.763 32.6117 124.539C32.7237 124.427 32.8704 124.372 33.0169 124.372H33.0203ZM76.2804 124.372C76.4259 124.373 76.5712 124.428 76.6822 124.539C76.906 124.763 76.906 125.126 76.6822 125.35C76.5712 125.461 76.4259 125.517 76.2804 125.518H76.277C76.1303 125.518 75.9838 125.462 75.8719 125.35C75.648 125.126 75.648 124.763 75.8719 124.539C75.9838 124.427 76.1303 124.372 76.277 124.372H76.2804ZM87.0965 124.372C87.242 124.373 87.3872 124.428 87.4982 124.539C87.7221 124.763 87.7221 125.126 87.4982 125.35C87.3872 125.461 87.242 125.517 87.0965 125.518H87.0931C86.9463 125.518 86.7995 125.462 86.6879 125.35C86.4641 125.126 86.4641 124.763 86.6879 124.539C86.7995 124.427 86.9463 124.372 87.0931 124.372H87.0965ZM65.4665 124.372C65.781 124.374 66.0354 124.63 66.0354 124.944C66.0354 125.259 65.781 125.515 65.4665 125.517H65.4628C65.1471 125.517 64.8906 125.26 64.8906 124.944C64.8906 124.628 65.1471 124.372 65.4628 124.372H65.4665ZM43.8366 124.372C44.1511 124.374 44.4055 124.63 44.4055 124.944C44.4055 125.259 44.1511 125.515 43.8366 125.517H43.8329C43.5169 125.517 43.2604 125.26 43.2604 124.944C43.2604 124.628 43.5169 124.372 43.8329 124.372H43.8366ZM119.541 124.372C119.855 124.374 120.109 124.63 120.109 124.944C120.109 125.259 119.855 125.515 119.541 125.517H119.537C119.221 125.517 118.965 125.26 118.965 124.944C118.965 124.628 119.221 124.372 119.537 124.372H119.541ZM151.987 124.372C152.301 124.374 152.556 124.63 152.556 124.944C152.556 125.259 152.301 125.515 151.987 125.517H151.983C151.667 125.517 151.411 125.26 151.411 124.944C151.411 124.628 151.667 124.372 151.983 124.372H151.987ZM130.357 124.372C130.671 124.374 130.925 124.63 130.925 124.944C130.925 125.259 130.671 125.515 130.357 125.517H130.353C130.037 125.517 129.781 125.26 129.781 124.944C129.781 124.628 130.037 124.372 130.353 124.372H130.357ZM141.171 124.372C141.485 124.374 141.74 124.63 141.74 124.944C141.74 125.259 141.485 125.515 141.171 125.517H141.167C140.851 125.517 140.594 125.26 140.594 124.944C140.594 124.628 140.851 124.372 141.167 124.372H141.171ZM54.6508 124.372C54.965 124.374 55.2194 124.63 55.2194 124.944C55.2194 125.259 54.965 125.515 54.6508 125.517H54.6471C54.3311 125.517 54.0745 125.26 54.0745 124.944C54.0745 124.628 54.3311 124.372 54.6471 124.372H54.6508ZM114.133 118.965C114.279 118.965 114.424 119.021 114.535 119.132C114.759 119.356 114.759 119.719 114.535 119.943C114.424 120.054 114.279 120.11 114.133 120.111H114.13C113.983 120.111 113.837 120.055 113.725 119.943C113.501 119.719 113.501 119.356 113.725 119.132C113.837 119.021 113.983 118.964 114.13 118.964L114.133 118.965ZM103.319 118.965C103.465 118.965 103.61 119.021 103.721 119.132C103.945 119.356 103.945 119.719 103.721 119.943C103.61 120.054 103.465 120.11 103.319 120.111H103.316C103.169 120.111 103.023 120.055 102.911 119.943C102.687 119.719 102.687 119.356 102.911 119.132C103.023 119.021 103.169 118.964 103.316 118.964L103.319 118.965ZM49.2436 118.965C49.3888 118.965 49.5343 119.021 49.6453 119.132C49.8689 119.356 49.8689 119.719 49.6453 119.943C49.5343 120.054 49.3888 120.11 49.2436 120.111H49.2399C49.0934 120.111 48.9466 120.055 48.8347 119.943C48.6109 119.719 48.6109 119.356 48.8347 119.132C48.9466 119.021 49.0934 118.964 49.2399 118.964L49.2436 118.965ZM92.5034 118.965C92.6489 118.965 92.7941 119.021 92.9051 119.132C93.129 119.356 93.129 119.719 92.9051 119.943C92.7941 120.054 92.6489 120.11 92.5034 120.111H92.5C92.3532 120.111 92.2068 120.055 92.0948 119.943C91.871 119.719 91.871 119.356 92.0948 119.132C92.2068 119.021 92.3532 118.964 92.5 118.964L92.5034 118.965ZM135.764 118.965C135.909 118.965 136.054 119.021 136.165 119.132C136.389 119.356 136.389 119.719 136.165 119.943C136.054 120.054 135.909 120.11 135.764 120.111H135.76C135.613 120.111 135.467 120.055 135.355 119.943C135.131 119.719 135.131 119.356 135.355 119.132C135.467 119.021 135.613 118.964 135.76 118.964L135.764 118.965ZM70.8735 118.965C71.019 118.965 71.1642 119.021 71.2752 119.132C71.4991 119.356 71.4991 119.719 71.2752 119.943C71.1642 120.054 71.019 120.11 70.8735 120.111H70.8701C70.7233 120.111 70.5766 120.055 70.4646 119.943C70.2411 119.719 70.2411 119.356 70.4646 119.132C70.5766 119.021 70.7233 118.964 70.8701 118.964L70.8735 118.965ZM38.4294 118.965C38.5749 118.965 38.7201 119.021 38.8311 119.132C39.055 119.356 39.055 119.719 38.8311 119.943C38.7201 120.054 38.5749 120.11 38.4294 120.111H38.426C38.2792 120.111 38.1328 120.055 38.0208 119.943C37.797 119.719 37.797 119.356 38.0208 119.132C38.1328 119.021 38.2792 118.964 38.426 118.964L38.4294 118.965ZM157.393 118.965C157.539 118.965 157.684 119.021 157.795 119.132C158.019 119.356 158.019 119.719 157.795 119.943C157.684 120.054 157.539 120.11 157.393 120.111H157.39C157.243 120.111 157.097 120.055 156.985 119.943C156.761 119.719 156.761 119.356 156.985 119.132C157.097 119.021 157.243 118.964 157.39 118.964L157.393 118.965ZM27.6134 118.965C27.7589 118.965 27.9041 119.021 28.0151 119.132C28.239 119.356 28.239 119.719 28.0151 119.943C27.9041 120.054 27.7589 120.11 27.6134 120.111H27.61C27.4632 120.111 27.3167 120.055 27.2048 119.943C26.981 119.719 26.981 119.356 27.2048 119.132C27.3167 119.021 27.4632 118.964 27.61 118.964L27.6134 118.965ZM124.949 118.965C125.095 118.965 125.24 119.021 125.351 119.132C125.575 119.356 125.575 119.719 125.351 119.943C125.24 120.054 125.095 120.11 124.949 120.111H124.946C124.799 120.111 124.653 120.055 124.541 119.943C124.317 119.719 124.317 119.356 124.541 119.132C124.653 119.021 124.799 118.964 124.946 118.964L124.949 118.965ZM146.58 118.965C146.725 118.965 146.87 119.021 146.981 119.132C147.205 119.356 147.205 119.719 146.981 119.943C146.87 120.054 146.725 120.11 146.58 120.111H146.576C146.429 120.111 146.283 120.055 146.171 119.943C145.947 119.719 145.947 119.356 146.171 119.132C146.283 119.021 146.429 118.964 146.576 118.964L146.58 118.965ZM60.0593 118.965C60.2048 118.965 60.3501 119.021 60.4614 119.132C60.6849 119.356 60.6849 119.719 60.4614 119.943C60.3501 120.054 60.2048 120.11 60.0593 120.111H60.0559C59.9094 120.111 59.7627 120.055 59.6508 119.943C59.4269 119.719 59.4269 119.356 59.6508 119.132C59.7627 119.021 59.9094 118.964 60.0559 118.964L60.0593 118.965ZM81.6895 118.965C81.835 118.965 81.9803 119.021 82.0913 119.132C82.3151 119.356 82.3151 119.719 82.0913 119.943C81.9803 120.054 81.835 120.11 81.6895 120.111H81.6861C81.5394 120.111 81.3926 120.055 81.2807 119.943C81.0571 119.719 81.0571 119.356 81.2807 119.132C81.3926 119.021 81.5394 118.964 81.6861 118.964L81.6895 118.965ZM87.0965 113.558C87.242 113.558 87.3872 113.615 87.4982 113.726C87.7221 113.949 87.7221 114.31 87.4982 114.536C87.3872 114.647 87.242 114.703 87.0965 114.704H87.0931C86.9463 114.704 86.7995 114.648 86.6879 114.536C86.4641 114.312 86.4641 113.949 86.6879 113.726C86.7995 113.614 86.9463 113.558 87.0931 113.558H87.0965ZM97.9103 113.558C98.0559 113.558 98.2011 113.615 98.3121 113.726C98.5359 113.949 98.5359 114.31 98.3121 114.536C98.2011 114.647 98.0559 114.703 97.9103 114.704H97.9069C97.7605 114.704 97.6137 114.648 97.5018 114.536C97.2779 114.312 97.2779 113.949 97.5018 113.726C97.6137 113.614 97.7605 113.558 97.9069 113.558H97.9103ZM54.6505 113.558C54.796 113.558 54.9413 113.615 55.0523 113.726C55.2761 113.947 55.2761 114.31 55.0523 114.536C54.9413 114.647 54.796 114.703 54.6505 114.704H54.6471C54.5003 114.704 54.3536 114.648 54.2417 114.536C54.0181 114.312 54.0181 113.949 54.2417 113.726C54.3536 113.614 54.5003 113.558 54.6471 113.558H54.6505ZM119.541 113.558C119.686 113.558 119.831 113.615 119.942 113.726C120.166 113.947 120.166 114.31 119.942 114.536C119.831 114.647 119.686 114.703 119.541 114.704H119.537C119.39 114.704 119.244 114.648 119.132 114.536C118.908 114.312 118.908 113.949 119.132 113.726C119.244 113.614 119.39 113.558 119.537 113.558H119.541ZM65.4665 113.558C65.6121 113.558 65.7573 113.615 65.8683 113.726C66.0921 113.947 66.0921 114.31 65.8683 114.536C65.7573 114.647 65.6121 114.703 65.4665 114.704H65.4628C65.3164 114.704 65.1696 114.648 65.0577 114.536C64.8338 114.312 64.8338 113.949 65.0577 113.726C65.1696 113.614 65.3164 113.558 65.4628 113.558H65.4665ZM33.0203 113.558C33.1658 113.558 33.3111 113.615 33.4221 113.726C33.6459 113.947 33.6459 114.31 33.4221 114.536C33.3111 114.647 33.1658 114.703 33.0203 114.704H33.0169C32.8704 114.704 32.7237 114.648 32.6117 114.536C32.3879 114.312 32.3879 113.949 32.6117 113.726C32.7237 113.614 32.8704 113.558 33.0169 113.558H33.0203ZM151.986 113.558C152.132 113.558 152.277 113.615 152.388 113.726C152.612 113.947 152.612 114.31 152.388 114.536C152.277 114.647 152.132 114.703 151.986 114.704H151.983C151.836 114.704 151.69 114.648 151.578 114.536C151.354 114.312 151.354 113.949 151.578 113.726C151.69 113.614 151.836 113.558 151.983 113.558H151.986ZM130.357 113.558C130.502 113.558 130.647 113.615 130.758 113.726C130.982 113.947 130.982 114.31 130.758 114.536C130.647 114.647 130.502 114.703 130.357 114.704H130.353C130.206 114.704 130.06 114.648 129.948 114.536C129.724 114.312 129.724 113.949 129.948 113.726C130.06 113.614 130.206 113.558 130.353 113.558H130.357ZM108.726 113.558C108.872 113.558 109.017 113.615 109.128 113.726C109.352 113.949 109.352 114.31 109.128 114.536C109.017 114.647 108.872 114.703 108.726 114.704H108.723C108.576 114.704 108.43 114.648 108.318 114.536C108.094 114.312 108.094 113.949 108.318 113.726C108.43 113.614 108.576 113.558 108.723 113.558H108.726ZM162.8 113.558C162.946 113.558 163.091 113.615 163.202 113.726C163.426 113.947 163.426 114.31 163.202 114.536C163.091 114.647 162.946 114.703 162.8 114.704H162.797C162.65 114.704 162.504 114.648 162.392 114.536C162.168 114.312 162.168 113.949 162.392 113.726C162.504 113.614 162.65 113.558 162.797 113.558H162.8ZM22.2064 113.558C22.3519 113.558 22.4972 113.615 22.6082 113.726C22.832 113.947 22.832 114.31 22.6082 114.536C22.4972 114.647 22.3519 114.703 22.2064 114.704H22.203C22.0563 114.704 21.9098 114.648 21.7979 114.536C21.574 114.312 21.574 113.949 21.7979 113.726C21.9098 113.614 22.0563 113.558 22.203 113.558H22.2064ZM43.8363 113.558C43.9819 113.558 44.1271 113.615 44.2381 113.726C44.4619 113.947 44.4619 114.31 44.2381 114.536C44.1271 114.647 43.9819 114.703 43.8363 114.704H43.8329C43.6865 114.704 43.5397 114.648 43.4278 114.536C43.2039 114.312 43.2039 113.949 43.4278 113.726C43.5397 113.614 43.6865 113.558 43.8329 113.558H43.8363ZM76.2804 113.558C76.4259 113.558 76.5712 113.615 76.6822 113.726C76.906 113.949 76.906 114.31 76.6822 114.536C76.5712 114.647 76.4259 114.703 76.2804 114.704H76.277C76.1303 114.704 75.9838 114.648 75.8719 114.536C75.648 114.312 75.648 113.949 75.8719 113.726C75.9838 113.614 76.1303 113.558 76.277 113.558H76.2804ZM141.17 113.558C141.316 113.558 141.461 113.615 141.572 113.726C141.796 113.947 141.796 114.31 141.572 114.536C141.461 114.647 141.316 114.703 141.17 114.704H141.167C141.02 114.704 140.874 114.648 140.762 114.536C140.538 114.312 140.538 113.949 140.762 113.726C140.874 113.614 141.02 113.558 141.167 113.558H141.17ZM146.58 108.149C146.725 108.149 146.87 108.206 146.981 108.317C147.205 108.54 147.205 108.903 146.981 109.127C146.87 109.238 146.725 109.294 146.58 109.295H146.576C146.429 109.295 146.283 109.239 146.171 109.127C145.947 108.903 145.947 108.54 146.171 108.317C146.283 108.205 146.429 108.149 146.576 108.149H146.58ZM16.7995 108.149C16.945 108.149 17.0902 108.206 17.2012 108.317C17.4251 108.54 17.4251 108.903 17.2012 109.127C17.0902 109.238 16.945 109.294 16.7995 109.295H16.7961C16.6493 109.295 16.5026 109.239 16.3906 109.127C16.1671 108.903 16.1671 108.54 16.3906 108.317C16.5026 108.205 16.6493 108.149 16.7961 108.149H16.7995ZM70.8735 108.149C71.019 108.149 71.1642 108.206 71.2752 108.317C71.4991 108.54 71.4991 108.903 71.2752 109.127C71.1642 109.238 71.019 109.294 70.8735 109.295H70.8701C70.7233 109.295 70.5766 109.239 70.4646 109.127C70.2411 108.903 70.2411 108.54 70.4646 108.317C70.5766 108.205 70.7233 108.149 70.8701 108.149H70.8735ZM114.133 108.149C114.279 108.149 114.424 108.206 114.535 108.317C114.759 108.54 114.759 108.903 114.535 109.127C114.424 109.238 114.279 109.294 114.133 109.295H114.13C113.983 109.295 113.837 109.239 113.725 109.127C113.501 108.903 113.501 108.54 113.725 108.317C113.837 108.205 113.983 108.149 114.13 108.149H114.133ZM38.4294 108.149C38.5749 108.149 38.7201 108.206 38.8311 108.317C39.055 108.54 39.055 108.903 38.8311 109.127C38.7201 109.238 38.5749 109.294 38.4294 109.295H38.426C38.2792 109.295 38.1328 109.239 38.0208 109.127C37.797 108.903 37.797 108.54 38.0208 108.317C38.1328 108.205 38.2792 108.149 38.426 108.149H38.4294ZM168.209 108.149C168.355 108.149 168.5 108.206 168.611 108.317C168.835 108.54 168.835 108.903 168.611 109.127C168.5 109.238 168.355 109.294 168.209 109.295H168.206C168.059 109.295 167.913 109.239 167.801 109.127C167.577 108.903 167.577 108.54 167.801 108.317C167.913 108.205 168.059 108.149 168.206 108.149H168.209ZM92.5034 108.149C92.6489 108.149 92.7941 108.206 92.9051 108.317C93.129 108.54 93.129 108.903 92.9051 109.127C92.7941 109.238 92.6489 109.294 92.5034 109.295H92.5C92.3532 109.295 92.2068 109.239 92.0948 109.127C91.871 108.903 91.871 108.54 92.0948 108.317C92.2068 108.205 92.3532 108.149 92.5 108.149H92.5034ZM135.764 108.149C135.909 108.149 136.054 108.206 136.165 108.317C136.389 108.54 136.389 108.903 136.165 109.127C136.054 109.238 135.909 109.294 135.764 109.295H135.76C135.613 109.295 135.467 109.239 135.355 109.127C135.131 108.903 135.131 108.54 135.355 108.317C135.467 108.205 135.613 108.149 135.76 108.149H135.764ZM49.2436 108.149C49.3888 108.149 49.5343 108.206 49.6453 108.317C49.8689 108.54 49.8689 108.903 49.6453 109.127C49.5343 109.238 49.3888 109.294 49.2436 109.295H49.2399C49.0934 109.295 48.9466 109.239 48.8347 109.127C48.6109 108.903 48.6109 108.54 48.8347 108.317C48.9466 108.205 49.0934 108.149 49.2399 108.149H49.2436ZM60.0593 108.149C60.2048 108.149 60.3501 108.206 60.4614 108.317C60.6849 108.54 60.6849 108.903 60.4614 109.127C60.3501 109.238 60.2048 109.294 60.0593 109.295H60.0559C59.9094 109.295 59.7627 109.239 59.6508 109.127C59.4269 108.903 59.4269 108.54 59.6508 108.317C59.7627 108.205 59.9094 108.149 60.0559 108.149H60.0593ZM81.6895 108.149C81.835 108.149 81.9803 108.206 82.0913 108.317C82.3151 108.54 82.3151 108.903 82.0913 109.127C81.9803 109.238 81.835 109.294 81.6895 109.295H81.6861C81.5394 109.295 81.3926 109.239 81.2807 109.127C81.0571 108.903 81.0571 108.54 81.2807 108.317C81.3926 108.205 81.5394 108.149 81.6861 108.149H81.6895ZM103.319 108.149C103.465 108.149 103.61 108.206 103.721 108.317C103.945 108.54 103.945 108.903 103.721 109.127C103.61 109.238 103.465 109.294 103.319 109.295H103.316C103.169 109.295 103.023 109.239 102.911 109.127C102.687 108.903 102.687 108.54 102.911 108.317C103.023 108.205 103.169 108.149 103.316 108.149H103.319ZM27.6134 108.149C27.7589 108.149 27.9041 108.206 28.0151 108.317C28.239 108.54 28.239 108.903 28.0151 109.127C27.9041 109.238 27.7589 109.294 27.6134 109.295H27.61C27.4632 109.295 27.3167 109.239 27.2048 109.127C26.981 108.903 26.981 108.54 27.2048 108.317C27.3167 108.205 27.4632 108.149 27.61 108.149H27.6134ZM157.393 108.149C157.539 108.149 157.684 108.206 157.795 108.317C158.019 108.54 158.019 108.903 157.795 109.127C157.684 109.238 157.539 109.294 157.393 109.295H157.39C157.243 109.295 157.097 109.239 156.985 109.127C156.761 108.903 156.761 108.54 156.985 108.317C157.097 108.205 157.243 108.149 157.39 108.149H157.393ZM124.949 108.149C125.095 108.149 125.24 108.206 125.351 108.317C125.575 108.54 125.575 108.903 125.351 109.127C125.24 109.238 125.095 109.294 124.949 109.295H124.946C124.799 109.295 124.653 109.239 124.541 109.127C124.317 108.903 124.317 108.54 124.541 108.317C124.653 108.205 124.799 108.149 124.946 108.149H124.949ZM108.726 102.742C108.872 102.743 109.017 102.799 109.128 102.91C109.352 103.133 109.352 103.496 109.128 103.72C109.017 103.831 108.872 103.887 108.726 103.888H108.723C108.576 103.888 108.43 103.832 108.318 103.72C108.094 103.496 108.094 103.133 108.318 102.91C108.43 102.798 108.576 102.742 108.723 102.742H108.726ZM33.0203 102.742C33.1658 102.743 33.3111 102.799 33.4221 102.91C33.6459 103.133 33.6459 103.496 33.4221 103.72C33.3111 103.831 33.1658 103.887 33.0203 103.888H33.0169C32.8704 103.888 32.7237 103.832 32.6117 103.72C32.3879 103.496 32.3879 103.133 32.6117 102.91C32.7237 102.798 32.8704 102.742 33.0169 102.742H33.0203ZM76.2804 102.742C76.4259 102.743 76.5712 102.799 76.6822 102.91C76.906 103.133 76.906 103.496 76.6822 103.72C76.5712 103.831 76.4259 103.887 76.2804 103.888H76.277C76.1303 103.888 75.9838 103.832 75.8719 103.72C75.648 103.496 75.648 103.133 75.8719 102.91C75.9838 102.798 76.1303 102.742 76.277 102.742H76.2804ZM43.8363 102.742C43.9819 102.743 44.1271 102.799 44.2381 102.91C44.4619 103.133 44.4619 103.496 44.2381 103.72C44.1271 103.831 43.9819 103.887 43.8363 103.888H43.8329C43.6865 103.888 43.5397 103.832 43.4278 103.72C43.2039 103.496 43.2039 103.133 43.4278 102.91C43.5397 102.798 43.6865 102.742 43.8329 102.742H43.8363ZM119.541 102.742C119.686 102.743 119.831 102.799 119.942 102.91C120.166 103.133 120.166 103.496 119.942 103.72C119.831 103.831 119.686 103.887 119.541 103.888H119.537C119.39 103.888 119.244 103.832 119.132 103.72C118.908 103.496 118.908 103.133 119.132 102.91C119.244 102.798 119.39 102.742 119.537 102.742H119.541ZM22.2064 102.742C22.3519 102.743 22.4972 102.799 22.6082 102.91C22.832 103.133 22.832 103.496 22.6082 103.72C22.4972 103.831 22.3519 103.887 22.2064 103.888H22.203C22.0563 103.888 21.9098 103.832 21.7979 103.72C21.574 103.496 21.574 103.133 21.7979 102.91C21.9098 102.798 22.0563 102.742 22.203 102.742H22.2064ZM162.8 102.742C162.946 102.743 163.091 102.799 163.202 102.91C163.426 103.133 163.426 103.496 163.202 103.72C163.091 103.831 162.946 103.887 162.8 103.888H162.797C162.65 103.888 162.504 103.832 162.392 103.72C162.168 103.496 162.168 103.133 162.392 102.91C162.504 102.798 162.65 102.742 162.797 102.742H162.8ZM11.3904 102.742C11.5359 102.743 11.6811 102.799 11.7921 102.91C12.016 103.133 12.016 103.496 11.7921 103.72C11.6811 103.831 11.5359 103.887 11.3904 103.888H11.387C11.2402 103.888 11.0938 103.832 10.9818 103.72C10.758 103.496 10.758 103.133 10.9818 102.91C11.0938 102.798 11.2402 102.742 11.387 102.742H11.3904ZM130.357 102.742C130.502 102.743 130.647 102.799 130.758 102.91C130.982 103.133 130.982 103.496 130.758 103.72C130.647 103.831 130.502 103.887 130.357 103.888H130.353C130.206 103.888 130.06 103.832 129.948 103.72C129.724 103.496 129.724 103.133 129.948 102.91C130.06 102.798 130.206 102.742 130.353 102.742H130.357ZM87.0965 102.742C87.242 102.743 87.3872 102.799 87.4982 102.91C87.7221 103.133 87.7221 103.496 87.4982 103.72C87.3872 103.831 87.242 103.887 87.0965 103.888H87.0931C86.9463 103.888 86.7995 103.832 86.6879 103.72C86.4641 103.496 86.4641 103.133 86.6879 102.91C86.7995 102.798 86.9463 102.742 87.0931 102.742H87.0965ZM54.6505 102.742C54.796 102.743 54.9413 102.799 55.0523 102.91C55.2761 103.133 55.2761 103.496 55.0523 103.72C54.9413 103.831 54.796 103.887 54.6505 103.888H54.6471C54.5003 103.888 54.3536 103.832 54.2417 103.72C54.0181 103.496 54.0181 103.133 54.2417 102.91C54.3536 102.798 54.5003 102.742 54.6471 102.742H54.6505ZM141.17 102.742C141.316 102.743 141.461 102.799 141.572 102.91C141.796 103.133 141.796 103.496 141.572 103.72C141.461 103.831 141.316 103.887 141.17 103.888H141.167C141.02 103.888 140.874 103.832 140.762 103.72C140.538 103.496 140.538 103.133 140.762 102.91C140.874 102.798 141.02 102.742 141.167 102.742H141.17ZM151.986 102.742C152.132 102.743 152.277 102.799 152.388 102.91C152.612 103.133 152.612 103.496 152.388 103.72C152.277 103.831 152.132 103.887 151.986 103.888H151.983C151.836 103.888 151.69 103.832 151.578 103.72C151.354 103.496 151.354 103.133 151.578 102.91C151.69 102.798 151.836 102.742 151.983 102.742H151.986ZM97.9103 102.742C98.0559 102.743 98.2011 102.799 98.3121 102.91C98.5359 103.133 98.5359 103.496 98.3121 103.72C98.2011 103.831 98.0559 103.887 97.9103 103.888H97.9069C97.7605 103.888 97.6137 103.832 97.5018 103.72C97.2779 103.496 97.2779 103.133 97.5018 102.91C97.6137 102.798 97.7605 102.742 97.9069 102.742H97.9103ZM173.616 102.742C173.762 102.743 173.907 102.799 174.018 102.91C174.242 103.133 174.242 103.496 174.018 103.72C173.907 103.831 173.762 103.887 173.616 103.888H173.613C173.466 103.888 173.32 103.832 173.208 103.72C172.984 103.496 172.984 103.133 173.208 102.91C173.32 102.798 173.466 102.742 173.613 102.742H173.616ZM65.4665 102.742C65.6121 102.743 65.7573 102.799 65.8683 102.91C66.0921 103.133 66.0921 103.496 65.8683 103.72C65.7573 103.831 65.6121 103.887 65.4665 103.888H65.4628C65.3164 103.888 65.1696 103.832 65.0577 103.72C64.8338 103.496 64.8338 103.133 65.0577 102.91C65.1696 102.798 65.3164 102.742 65.4628 102.742H65.4665ZM179.023 97.3348C179.169 97.3357 179.314 97.3915 179.425 97.5025C179.649 97.7263 179.649 98.0892 179.425 98.3131C179.314 98.4241 179.169 98.4799 179.023 98.4808H179.02C178.873 98.4808 178.727 98.425 178.615 98.3131C178.391 98.0892 178.391 97.7263 178.615 97.5025C178.727 97.3909 178.873 97.3348 179.02 97.3348H179.023ZM5.98344 97.3348C6.12898 97.3357 6.2742 97.3915 6.3852 97.5025C6.60905 97.7263 6.60905 98.0892 6.3852 98.3131C6.2742 98.4241 6.12898 98.4799 5.98344 98.4808H5.98005C5.83329 98.4808 5.68652 98.425 5.5749 98.3131C5.35105 98.0892 5.35105 97.7263 5.5749 97.5025C5.68652 97.3909 5.83329 97.3348 5.98005 97.3348H5.98344ZM168.209 97.3348C168.355 97.3357 168.5 97.3915 168.611 97.5025C168.835 97.7263 168.835 98.0892 168.611 98.3131C168.5 98.4241 168.355 98.4799 168.209 98.4808H168.206C168.059 98.4808 167.913 98.425 167.801 98.3131C167.577 98.0892 167.577 97.7263 167.801 97.5025C167.913 97.3909 168.059 97.3348 168.206 97.3348H168.209ZM27.6134 97.3348C27.7589 97.3357 27.9041 97.3915 28.0151 97.5025C28.239 97.7263 28.239 98.0892 28.0151 98.3131C27.9041 98.4241 27.7589 98.4799 27.6134 98.4808H27.61C27.4632 98.4808 27.3167 98.425 27.2048 98.3131C26.981 98.0892 26.981 97.7263 27.2048 97.5025C27.3167 97.3909 27.4632 97.3348 27.61 97.3348H27.6134ZM16.7995 97.3348C16.945 97.3357 17.0902 97.3915 17.2012 97.5025C17.4251 97.7263 17.4251 98.0892 17.2012 98.3131C17.0902 98.4241 16.945 98.4799 16.7995 98.4808H16.7961C16.6493 98.4808 16.5026 98.425 16.3906 98.3131C16.1671 98.0892 16.1671 97.7263 16.3906 97.5025C16.5026 97.3909 16.6493 97.3348 16.7961 97.3348H16.7995ZM114.133 97.3348C114.279 97.3357 114.424 97.3915 114.535 97.5025C114.759 97.7263 114.759 98.0892 114.535 98.3131C114.424 98.4241 114.279 98.4799 114.133 98.4808H114.13C113.983 98.4808 113.837 98.425 113.725 98.3131C113.501 98.0892 113.501 97.7263 113.725 97.5025C113.837 97.3909 113.983 97.3348 114.13 97.3348H114.133ZM124.949 97.3348C125.095 97.3357 125.24 97.3915 125.351 97.5025C125.575 97.7263 125.575 98.0892 125.351 98.3131C125.24 98.4241 125.095 98.4799 124.949 98.4808H124.946C124.799 98.4808 124.653 98.425 124.541 98.3131C124.317 98.0892 124.317 97.7263 124.541 97.5025C124.653 97.3909 124.799 97.3348 124.946 97.3348H124.949ZM70.8735 97.3348C71.019 97.3357 71.1642 97.3915 71.2752 97.5025C71.4991 97.7263 71.4991 98.0892 71.2752 98.3131C71.1642 98.4241 71.019 98.4799 70.8735 98.4808H70.8701C70.7233 98.4808 70.5766 98.425 70.4646 98.3131C70.2411 98.0892 70.2411 97.7263 70.4646 97.5025C70.5766 97.3909 70.7233 97.3348 70.8701 97.3348H70.8735ZM38.4294 97.3348C38.5749 97.3357 38.7201 97.3915 38.8311 97.5025C39.055 97.7263 39.055 98.0892 38.8311 98.3131C38.7201 98.4241 38.5749 98.4799 38.4294 98.4808H38.426C38.2792 98.4808 38.1328 98.425 38.0208 98.3131C37.797 98.0892 37.797 97.7263 38.0208 97.5025C38.1328 97.3909 38.2792 97.3348 38.426 97.3348H38.4294ZM92.5034 97.3348C92.6489 97.3357 92.7941 97.3915 92.9051 97.5025C93.129 97.7263 93.129 98.0892 92.9051 98.3131C92.7941 98.4241 92.6489 98.4799 92.5034 98.4808H92.5C92.3532 98.4808 92.2068 98.425 92.0948 98.3131C91.871 98.0892 91.871 97.7263 92.0948 97.5025C92.2068 97.3909 92.3532 97.3348 92.5 97.3348H92.5034ZM135.764 97.3348C135.909 97.3357 136.054 97.3915 136.165 97.5025C136.389 97.7263 136.389 98.0892 136.165 98.3131C136.054 98.4241 135.909 98.4799 135.764 98.4808H135.76C135.613 98.4808 135.467 98.425 135.355 98.3131C135.131 98.0892 135.131 97.7263 135.355 97.5025C135.467 97.3909 135.613 97.3348 135.76 97.3348H135.764ZM49.2436 97.3348C49.3888 97.3357 49.5343 97.3915 49.6453 97.5025C49.8689 97.7263 49.8689 98.0892 49.6453 98.3131C49.5343 98.4241 49.3888 98.4799 49.2436 98.4808H49.2399C49.0934 98.4808 48.9466 98.425 48.8347 98.3131C48.6109 98.0892 48.6109 97.7263 48.8347 97.5025C48.9466 97.3909 49.0934 97.3348 49.2399 97.3348H49.2436ZM60.0593 97.3348C60.2048 97.3357 60.3501 97.3915 60.4614 97.5025C60.6849 97.7263 60.6849 98.0892 60.4614 98.3131C60.3501 98.4241 60.2048 98.4799 60.0593 98.4808H60.0559C59.9094 98.4808 59.7627 98.425 59.6508 98.3131C59.4269 98.0892 59.4269 97.7263 59.6508 97.5025C59.7627 97.3909 59.9094 97.3348 60.0559 97.3348H60.0593ZM146.58 97.3348C146.725 97.3357 146.87 97.3915 146.981 97.5025C147.205 97.7263 147.205 98.0892 146.981 98.3131C146.87 98.4241 146.725 98.4799 146.58 98.4808H146.576C146.429 98.4808 146.283 98.425 146.171 98.3131C145.947 98.0892 145.947 97.7263 146.171 97.5025C146.283 97.3909 146.429 97.3348 146.576 97.3348H146.58ZM81.6895 97.3348C81.835 97.3357 81.9803 97.3915 82.0913 97.5025C82.3151 97.7263 82.3151 98.0892 82.0913 98.3131C81.9803 98.4241 81.835 98.4799 81.6895 98.4808H81.6861C81.5394 98.4808 81.3926 98.425 81.2807 98.3131C81.0571 98.0892 81.0571 97.7263 81.2807 97.5025C81.3926 97.3909 81.5394 97.3348 81.6861 97.3348H81.6895ZM157.393 97.3348C157.539 97.3357 157.684 97.3915 157.795 97.5025C158.019 97.7263 158.019 98.0892 157.795 98.3131C157.684 98.4241 157.539 98.4799 157.393 98.4808H157.39C157.243 98.4808 157.097 98.425 156.985 98.3131C156.761 98.0892 156.761 97.7263 156.985 97.5025C157.097 97.3909 157.243 97.3348 157.39 97.3348H157.393ZM103.319 97.3348C103.465 97.3357 103.61 97.3915 103.721 97.5025C103.945 97.7263 103.945 98.0892 103.721 98.3131C103.61 98.4241 103.465 98.4799 103.319 98.4808H103.316C103.169 98.4808 103.023 98.425 102.911 98.3131C102.687 98.0892 102.687 97.7263 102.911 97.5025C103.023 97.3909 103.169 97.3348 103.316 97.3348H103.319ZM184.431 91.9279C184.576 91.9288 184.721 91.9846 184.832 92.0956C185.056 92.3176 185.056 92.6802 184.832 92.9062C184.721 93.0172 184.576 93.073 184.431 93.074H184.427C184.28 93.074 184.134 93.0182 184.022 92.9062C183.798 92.6824 183.798 92.3195 184.022 92.0956C184.134 91.9837 184.28 91.9279 184.427 91.9279H184.431ZM151.986 91.9279C152.132 91.9288 152.277 91.9846 152.388 92.0956C152.612 92.3176 152.612 92.6802 152.388 92.9062C152.277 93.0172 152.132 93.073 151.986 93.074H151.983C151.836 93.074 151.69 93.0182 151.578 92.9062C151.354 92.6824 151.354 92.3195 151.578 92.0956C151.69 91.9837 151.836 91.9279 151.983 91.9279H151.986ZM11.3904 91.9279C11.5359 91.9288 11.6811 91.9846 11.7921 92.0956C12.016 92.3176 12.016 92.6802 11.7921 92.9062C11.6811 93.0172 11.5359 93.073 11.3904 93.074H11.387C11.2402 93.074 11.0938 93.0182 10.9818 92.9062C10.758 92.6824 10.758 92.3195 10.9818 92.0956C11.0938 91.9837 11.2402 91.9279 11.387 91.9279H11.3904ZM43.8363 91.9279C43.9819 91.9288 44.1271 91.9846 44.2381 92.0956C44.4619 92.3176 44.4619 92.6802 44.2381 92.9062C44.1271 93.0172 43.9819 93.073 43.8363 93.074H43.8329C43.6865 93.074 43.5397 93.0182 43.4278 92.9062C43.2039 92.6824 43.2039 92.3195 43.4278 92.0956C43.5397 91.9837 43.6865 91.9279 43.8329 91.9279H43.8363ZM0.576507 91.9279C0.72204 91.9288 0.867265 91.9846 0.978265 92.0956C1.20212 92.3176 1.20212 92.6802 0.978265 92.9062C0.867265 93.0172 0.72204 93.073 0.576507 93.074H0.573115C0.426348 93.074 0.279581 93.0182 0.167656 92.9062C-0.0558855 92.6824 -0.0558855 92.3195 0.167656 92.0956C0.279581 91.9837 0.426348 91.9279 0.573115 91.9279H0.576507ZM130.357 91.9279C130.502 91.9288 130.647 91.9846 130.758 92.0956C130.982 92.3176 130.982 92.6802 130.758 92.9062C130.647 93.0172 130.502 93.073 130.357 93.074H130.353C130.206 93.074 130.06 93.0182 129.948 92.9062C129.724 92.6824 129.724 92.3195 129.948 92.0956C130.06 91.9837 130.206 91.9279 130.353 91.9279H130.357ZM76.2804 91.9279C76.4259 91.9288 76.5712 91.9846 76.6822 92.0956C76.906 92.3176 76.906 92.6802 76.6822 92.9062C76.5712 93.0172 76.4259 93.073 76.2804 93.074H76.277C76.1303 93.074 75.9838 93.0182 75.8719 92.9062C75.648 92.6824 75.648 92.3195 75.8719 92.0956C75.9838 91.9837 76.1303 91.9279 76.277 91.9279H76.2804ZM33.0203 91.9279C33.1658 91.9288 33.3111 91.9846 33.4221 92.0956C33.6459 92.3176 33.6459 92.6802 33.4221 92.9062C33.3111 93.0172 33.1658 93.073 33.0203 93.074H33.0169C32.8704 93.074 32.7237 93.0182 32.6117 92.9062C32.3879 92.6824 32.3879 92.3195 32.6117 92.0956C32.7237 91.9837 32.8704 91.9279 33.0169 91.9279H33.0203ZM119.541 91.9279C119.686 91.9288 119.831 91.9846 119.942 92.0956C120.166 92.3176 120.166 92.6802 119.942 92.9062C119.831 93.0172 119.686 93.073 119.541 93.074H119.537C119.39 93.074 119.244 93.0182 119.132 92.9062C118.908 92.6824 118.908 92.3195 119.132 92.0956C119.244 91.9837 119.39 91.9279 119.537 91.9279H119.541ZM162.8 91.9279C162.946 91.9288 163.091 91.9846 163.202 92.0956C163.426 92.3176 163.426 92.6802 163.202 92.9062C163.091 93.0172 162.946 93.073 162.8 93.074H162.797C162.65 93.074 162.504 93.0182 162.392 92.9062C162.168 92.6824 162.168 92.3195 162.392 92.0956C162.504 91.9837 162.65 91.9279 162.797 91.9279H162.8ZM54.6505 91.9279C54.796 91.9288 54.9413 91.9846 55.0523 92.0956C55.2761 92.3176 55.2761 92.6802 55.0523 92.9062C54.9413 93.0172 54.796 93.073 54.6505 93.074H54.6471C54.5003 93.074 54.3536 93.0182 54.2417 92.9062C54.0181 92.6824 54.0181 92.3195 54.2417 92.0956C54.3536 91.9837 54.5003 91.9279 54.6471 91.9279H54.6505ZM22.2064 91.9279C22.3519 91.9288 22.4972 91.9846 22.6082 92.0956C22.832 92.3176 22.832 92.6802 22.6082 92.9062C22.4972 93.0172 22.3519 93.073 22.2064 93.074H22.203C22.0563 93.074 21.9098 93.0182 21.7979 92.9062C21.574 92.6824 21.574 92.3195 21.7979 92.0956C21.9098 91.9837 22.0563 91.9279 22.203 91.9279H22.2064ZM97.9103 91.9279C98.0559 91.9288 98.2011 91.9846 98.3121 92.0956C98.5359 92.3176 98.5359 92.6802 98.3121 92.9062C98.2011 93.0172 98.0559 93.073 97.9103 93.074H97.9069C97.7605 93.074 97.6137 93.0182 97.5018 92.9062C97.2779 92.6824 97.2779 92.3195 97.5018 92.0956C97.6137 91.9837 97.7605 91.9279 97.9069 91.9279H97.9103ZM173.616 91.9279C173.762 91.9288 173.907 91.9846 174.018 92.0956C174.242 92.3176 174.242 92.6802 174.018 92.9062C173.907 93.0172 173.762 93.073 173.616 93.074H173.613C173.466 93.074 173.32 93.0182 173.208 92.9062C172.984 92.6824 172.984 92.3195 173.208 92.0956C173.32 91.9837 173.466 91.9279 173.613 91.9279H173.616ZM87.0965 91.9279C87.242 91.9288 87.3872 91.9846 87.4982 92.0956C87.7221 92.3176 87.7221 92.6802 87.4982 92.9062C87.3872 93.0172 87.242 93.073 87.0965 93.074H87.0931C86.9463 93.074 86.7995 93.0182 86.6879 92.9062C86.4641 92.6824 86.4641 92.3195 86.6879 92.0956C86.7995 91.9837 86.9463 91.9279 87.0931 91.9279H87.0965ZM65.4665 91.9279C65.6121 91.9288 65.7573 91.9846 65.8683 92.0956C66.0921 92.3176 66.0921 92.6802 65.8683 92.9062C65.7573 93.0172 65.6121 93.073 65.4665 93.074H65.4628C65.3164 93.074 65.1696 93.0182 65.0577 92.9062C64.8338 92.6824 64.8338 92.3195 65.0577 92.0956C65.1696 91.9837 65.3164 91.9279 65.4628 91.9279H65.4665ZM108.726 91.9279C108.872 91.9288 109.017 91.9846 109.128 92.0956C109.352 92.3176 109.352 92.6802 109.128 92.9062C109.017 93.0172 108.872 93.073 108.726 93.074H108.723C108.576 93.074 108.43 93.0182 108.318 92.9062C108.094 92.6824 108.094 92.3195 108.318 92.0956C108.43 91.9837 108.576 91.9279 108.723 91.9279H108.726ZM141.17 91.9279C141.316 91.9288 141.461 91.9846 141.572 92.0956C141.796 92.3176 141.796 92.6802 141.572 92.9062C141.461 93.0172 141.316 93.073 141.17 93.074H141.167C141.02 93.074 140.874 93.0182 140.762 92.9062C140.538 92.6824 140.538 92.3195 140.762 92.0956C140.874 91.9837 141.02 91.9279 141.167 91.9279H141.17ZM157.393 86.5189C157.539 86.5198 157.684 86.5759 157.795 86.6869C158.019 86.9104 158.019 87.2734 157.795 87.4972C157.684 87.6082 157.539 87.6643 157.393 87.6649H157.39C157.243 87.6649 157.097 87.6091 156.985 87.4972C156.761 87.2734 156.761 86.9104 156.985 86.6869C157.097 86.575 157.243 86.5189 157.39 86.5189H157.393ZM81.6895 86.5189C81.835 86.5198 81.9803 86.5759 82.0913 86.6869C82.3151 86.9104 82.3151 87.2734 82.0913 87.4972C81.9803 87.6082 81.835 87.6643 81.6895 87.6649H81.6861C81.5394 87.6649 81.3926 87.6091 81.2807 87.4972C81.0571 87.2734 81.0571 86.9104 81.2807 86.6869C81.3926 86.575 81.5394 86.5189 81.6861 86.5189H81.6895ZM92.5034 86.5189C92.6489 86.5198 92.7941 86.5759 92.9051 86.6869C93.129 86.9104 93.129 87.2734 92.9051 87.4972C92.7941 87.6082 92.6489 87.6643 92.5034 87.6649H92.5C92.3532 87.6649 92.2068 87.6091 92.0948 87.4972C91.871 87.2734 91.871 86.9104 92.0948 86.6869C92.2068 86.575 92.3532 86.5189 92.5 86.5189H92.5034ZM27.6134 86.5189C27.7589 86.5198 27.9041 86.5759 28.0151 86.6869C28.239 86.9104 28.239 87.2734 28.0151 87.4972C27.9041 87.6082 27.7589 87.6643 27.6134 87.6649H27.61C27.4632 87.6649 27.3167 87.6091 27.2048 87.4972C26.981 87.2734 26.981 86.9104 27.2048 86.6869C27.3167 86.575 27.4632 86.5189 27.61 86.5189H27.6134ZM103.319 86.5189C103.465 86.5198 103.61 86.5759 103.721 86.6869C103.945 86.9104 103.945 87.2734 103.721 87.4972C103.61 87.6082 103.465 87.6643 103.319 87.6649H103.316C103.169 87.6649 103.023 87.6091 102.911 87.4972C102.687 87.2734 102.687 86.9104 102.911 86.6869C103.023 86.575 103.169 86.5189 103.316 86.5189H103.319ZM70.8735 86.5189C71.019 86.5198 71.1642 86.5759 71.2752 86.6869C71.4991 86.9104 71.4991 87.2734 71.2752 87.4972C71.1642 87.6082 71.019 87.6643 70.8735 87.6649H70.8701C70.7233 87.6649 70.5766 87.6091 70.4646 87.4972C70.2411 87.2734 70.2411 86.9104 70.4646 86.6869C70.5766 86.575 70.7233 86.5189 70.8701 86.5189H70.8735ZM135.764 86.5189C135.909 86.5198 136.054 86.5759 136.165 86.6869C136.389 86.9104 136.389 87.2734 136.165 87.4972C136.054 87.6082 135.909 87.6643 135.764 87.6649H135.76C135.613 87.6649 135.467 87.6091 135.355 87.4972C135.131 87.2734 135.131 86.9104 135.355 86.6869C135.467 86.575 135.613 86.5189 135.76 86.5189H135.764ZM124.949 86.5189C125.095 86.5198 125.24 86.5759 125.351 86.6869C125.575 86.9104 125.575 87.2734 125.351 87.4972C125.24 87.6082 125.095 87.6643 124.949 87.6649H124.946C124.799 87.6649 124.653 87.6091 124.541 87.4972C124.317 87.2734 124.317 86.9104 124.541 86.6869C124.653 86.575 124.799 86.5189 124.946 86.5189H124.949ZM168.209 86.5189C168.355 86.5198 168.5 86.5759 168.611 86.6869C168.835 86.9104 168.835 87.2734 168.611 87.4972C168.5 87.6082 168.355 87.6643 168.209 87.6649H168.206C168.059 87.6649 167.913 87.6091 167.801 87.4972C167.577 87.2734 167.577 86.9104 167.801 86.6869C167.913 86.575 168.059 86.5189 168.206 86.5189H168.209ZM60.0593 86.5189C60.2048 86.5198 60.3501 86.5759 60.4614 86.6869C60.6849 86.9104 60.6849 87.2734 60.4614 87.4972C60.3501 87.6082 60.2048 87.6643 60.0593 87.6649H60.0559C59.9094 87.6649 59.7627 87.6091 59.6508 87.4972C59.4269 87.2734 59.4269 86.9104 59.6508 86.6869C59.7627 86.575 59.9094 86.5189 60.0559 86.5189H60.0593ZM5.98344 86.5189C6.12898 86.5198 6.2742 86.5759 6.3852 86.6869C6.60905 86.9104 6.60905 87.2734 6.3852 87.4972C6.2742 87.6082 6.12898 87.6643 5.98344 87.6649H5.98005C5.83329 87.6649 5.68652 87.6091 5.5749 87.4972C5.35105 87.2734 5.35105 86.9104 5.5749 86.6869C5.68652 86.575 5.83329 86.5189 5.98005 86.5189H5.98344ZM179.023 86.5189C179.169 86.5198 179.314 86.5759 179.425 86.6869C179.649 86.9104 179.649 87.2734 179.425 87.4972C179.314 87.6082 179.169 87.6643 179.023 87.6649H179.02C178.873 87.6649 178.727 87.6091 178.615 87.4972C178.391 87.2734 178.391 86.9104 178.615 86.6869C178.727 86.575 178.873 86.5189 179.02 86.5189H179.023ZM146.58 86.5189C146.725 86.5198 146.87 86.5759 146.981 86.6869C147.205 86.9104 147.205 87.2734 146.981 87.4972C146.87 87.6082 146.725 87.6643 146.58 87.6649H146.576C146.429 87.6649 146.283 87.6091 146.171 87.4972C145.947 87.2734 145.947 86.9104 146.171 86.6869C146.283 86.575 146.429 86.5189 146.576 86.5189H146.58ZM16.7995 86.5189C16.945 86.5198 17.0902 86.5759 17.2012 86.6869C17.4251 86.9104 17.4251 87.2734 17.2012 87.4972C17.0902 87.6082 16.945 87.6643 16.7995 87.6649H16.7961C16.6493 87.6649 16.5026 87.6091 16.3906 87.4972C16.1671 87.2734 16.1671 86.9104 16.3906 86.6869C16.5026 86.575 16.6493 86.5189 16.7961 86.5189H16.7995ZM114.133 86.5189C114.279 86.5198 114.424 86.5759 114.535 86.6869C114.759 86.9104 114.759 87.2734 114.535 87.4972C114.424 87.6082 114.279 87.6643 114.133 87.6649H114.13C113.983 87.6649 113.837 87.6091 113.725 87.4972C113.501 87.2734 113.501 86.9104 113.725 86.6869C113.837 86.575 113.983 86.5189 114.13 86.5189H114.133ZM49.2436 86.5189C49.3888 86.5198 49.5343 86.5759 49.6453 86.6869C49.8689 86.9104 49.8689 87.2734 49.6453 87.4972C49.5343 87.6082 49.3888 87.6643 49.2436 87.6649H49.2399C49.0934 87.6649 48.9466 87.6091 48.8347 87.4972C48.6109 87.2734 48.6109 86.9104 48.8347 86.6869C48.9466 86.575 49.0934 86.5189 49.2399 86.5189H49.2436ZM38.4294 86.5189C38.5749 86.5198 38.7201 86.5759 38.8311 86.6869C39.055 86.9104 39.055 87.2734 38.8311 87.4972C38.7201 87.6082 38.5749 87.6643 38.4294 87.6649H38.426C38.2792 87.6649 38.1328 87.6091 38.0208 87.4972C37.797 87.2734 37.797 86.9104 38.0208 86.6869C38.1328 86.575 38.2792 86.5189 38.426 86.5189H38.4294ZM119.541 81.112C119.686 81.1129 119.831 81.1687 119.942 81.2797C120.166 81.5036 120.166 81.8665 119.942 82.0903C119.831 82.2013 119.686 82.2571 119.541 82.2581H119.537C119.39 82.2581 119.244 82.2022 119.132 82.0903C118.908 81.8665 118.908 81.5036 119.132 81.2797C119.244 81.1678 119.39 81.112 119.537 81.112H119.541ZM22.2064 81.112C22.3519 81.1129 22.4972 81.1687 22.6082 81.2797C22.832 81.5036 22.832 81.8665 22.6082 82.0903C22.4972 82.2013 22.3519 82.2571 22.2064 82.2581H22.203C22.0563 82.2581 21.9098 82.2022 21.7979 82.0903C21.574 81.8665 21.574 81.5036 21.7979 81.2797C21.9098 81.1678 22.0563 81.112 22.203 81.112H22.2064ZM141.17 81.112C141.316 81.1129 141.461 81.1687 141.572 81.2797C141.796 81.5036 141.796 81.8665 141.572 82.0903C141.461 82.2013 141.316 82.2571 141.17 82.2581H141.167C141.02 82.2581 140.874 82.2022 140.762 82.0903C140.538 81.8665 140.538 81.5036 140.762 81.2797C140.874 81.1678 141.02 81.112 141.167 81.112H141.17ZM97.9103 81.112C98.0559 81.1129 98.2011 81.1687 98.3121 81.2797C98.5359 81.5036 98.5359 81.8665 98.3121 82.0903C98.2011 82.2013 98.0559 82.2571 97.9103 82.2581H97.9069C97.7605 82.2581 97.6137 82.2022 97.5018 82.0903C97.2779 81.8665 97.2779 81.5036 97.5018 81.2797C97.6137 81.1678 97.7605 81.112 97.9069 81.112H97.9103ZM108.726 81.112C108.872 81.1129 109.017 81.1687 109.128 81.2797C109.352 81.5036 109.352 81.8665 109.128 82.0903C109.017 82.2013 108.872 82.2571 108.726 82.2581H108.723C108.576 82.2581 108.43 82.2022 108.318 82.0903C108.094 81.8665 108.094 81.5036 108.318 81.2797C108.43 81.1678 108.576 81.112 108.723 81.112H108.726ZM65.4665 81.112C65.6121 81.1129 65.7573 81.1687 65.8683 81.2797C66.0921 81.5036 66.0921 81.8665 65.8683 82.0903C65.7573 82.2013 65.6121 82.2571 65.4665 82.2581H65.4628C65.3164 82.2581 65.1696 82.2022 65.0577 82.0903C64.8338 81.8665 64.8338 81.5036 65.0577 81.2797C65.1696 81.1678 65.3164 81.112 65.4628 81.112H65.4665ZM54.6505 81.112C54.796 81.1129 54.9413 81.1687 55.0523 81.2797C55.2761 81.5036 55.2761 81.8665 55.0523 82.0903C54.9413 82.2013 54.796 82.2571 54.6505 82.2581H54.6471C54.5003 82.2581 54.3536 82.2022 54.2417 82.0903C54.0181 81.8665 54.0181 81.5036 54.2417 81.2797C54.3536 81.1678 54.5003 81.112 54.6471 81.112H54.6505ZM76.2804 81.112C76.4259 81.1129 76.5712 81.1687 76.6822 81.2797C76.906 81.5036 76.906 81.8665 76.6822 82.0903C76.5712 82.2013 76.4259 82.2571 76.2804 82.2581H76.277C76.1303 82.2581 75.9838 82.2022 75.8719 82.0903C75.648 81.8665 75.648 81.5036 75.8719 81.2797C75.9838 81.1678 76.1303 81.112 76.277 81.112H76.2804ZM43.8363 81.112C43.9819 81.1129 44.1271 81.1687 44.2381 81.2797C44.4619 81.5036 44.4619 81.8665 44.2381 82.0903C44.1271 82.2013 43.9819 82.2571 43.8363 82.2581H43.8329C43.6865 82.2581 43.5397 82.2022 43.4278 82.0903C43.2039 81.8665 43.2039 81.5036 43.4278 81.2797C43.5397 81.1678 43.6865 81.112 43.8329 81.112H43.8363ZM33.0203 81.112C33.1658 81.1129 33.3111 81.1687 33.4221 81.2797C33.6459 81.5036 33.6459 81.8665 33.4221 82.0903C33.3111 82.2013 33.1658 82.2571 33.0203 82.2581H33.0169C32.8704 82.2581 32.7237 82.2022 32.6117 82.0903C32.3879 81.8665 32.3879 81.5036 32.6117 81.2797C32.7237 81.1678 32.8704 81.112 33.0169 81.112H33.0203ZM87.0965 81.112C87.242 81.1129 87.3872 81.1687 87.4982 81.2797C87.7221 81.5036 87.7221 81.8665 87.4982 82.0903C87.3872 82.2013 87.242 82.2571 87.0965 82.2581H87.0931C86.9463 82.2581 86.7995 82.2022 86.6879 82.0903C86.4641 81.8665 86.4641 81.5036 86.6879 81.2797C86.7995 81.1678 86.9463 81.112 87.0931 81.112H87.0965ZM11.3904 81.112C11.5359 81.1129 11.6811 81.1687 11.7921 81.2797C12.016 81.5036 12.016 81.8665 11.7921 82.0903C11.6811 82.2013 11.5359 82.2571 11.3904 82.2581H11.387C11.2402 82.2581 11.0938 82.2022 10.9818 82.0903C10.758 81.8665 10.758 81.5036 10.9818 81.2797C11.0938 81.1678 11.2402 81.112 11.387 81.112H11.3904ZM151.986 81.112C152.132 81.1129 152.277 81.1687 152.388 81.2797C152.612 81.5036 152.612 81.8665 152.388 82.0903C152.277 82.2013 152.132 82.2571 151.986 82.2581H151.983C151.836 82.2581 151.69 82.2022 151.578 82.0903C151.354 81.8665 151.354 81.5036 151.578 81.2797C151.69 81.1678 151.836 81.112 151.983 81.112H151.986ZM162.8 81.112C162.946 81.1129 163.091 81.1687 163.202 81.2797C163.426 81.5036 163.426 81.8665 163.202 82.0903C163.091 82.2013 162.946 82.2571 162.8 82.2581H162.797C162.65 82.2581 162.504 82.2022 162.392 82.0903C162.168 81.8665 162.168 81.5036 162.392 81.2797C162.504 81.1678 162.65 81.112 162.797 81.112H162.8ZM173.616 81.112C173.762 81.1129 173.907 81.1687 174.018 81.2797C174.242 81.5036 174.242 81.8665 174.018 82.0903C173.907 82.2013 173.762 82.2571 173.616 82.2581H173.613C173.466 82.2581 173.32 82.2022 173.208 82.0903C172.984 81.8665 172.984 81.5036 173.208 81.2797C173.32 81.1678 173.466 81.112 173.613 81.112H173.616ZM130.357 81.112C130.502 81.1129 130.647 81.1687 130.758 81.2797C130.982 81.5036 130.982 81.8665 130.758 82.0903C130.647 82.2013 130.502 82.2571 130.357 82.2581H130.353C130.206 82.2581 130.06 82.2022 129.948 82.0903C129.724 81.8665 129.724 81.5036 129.948 81.2797C130.06 81.1678 130.206 81.112 130.353 81.112H130.357ZM16.7995 75.7051C16.945 75.706 17.0902 75.7619 17.2012 75.8729C17.4251 76.0967 17.4251 76.4596 17.2012 76.6834C17.0902 76.7944 16.945 76.8503 16.7995 76.8512H16.7961C16.6493 76.8512 16.5026 76.7954 16.3906 76.6834C16.1671 76.4596 16.1671 76.0967 16.3906 75.8729C16.5026 75.7609 16.6493 75.7051 16.7961 75.7051H16.7995ZM81.6895 75.7051C81.835 75.706 81.9803 75.7619 82.0913 75.8729C82.3151 76.0967 82.3151 76.4596 82.0913 76.6834C81.9803 76.7944 81.835 76.8503 81.6895 76.8512H81.6861C81.5394 76.8512 81.3926 76.7954 81.2807 76.6834C81.0571 76.4596 81.0571 76.0967 81.2807 75.8729C81.3926 75.7609 81.5394 75.7051 81.6861 75.7051H81.6895ZM103.319 75.7051C103.465 75.706 103.61 75.7619 103.721 75.8729C103.945 76.0967 103.945 76.4596 103.721 76.6834C103.61 76.7944 103.465 76.8503 103.319 76.8512H103.316C103.169 76.8512 103.023 76.7954 102.911 76.6834C102.687 76.4596 102.687 76.0967 102.911 75.8729C103.023 75.7609 103.169 75.7051 103.316 75.7051H103.319ZM114.133 75.7051C114.279 75.706 114.424 75.7619 114.535 75.8729C114.759 76.0967 114.759 76.4596 114.535 76.6834C114.424 76.7944 114.279 76.8503 114.133 76.8512H114.13C113.983 76.8512 113.837 76.7954 113.725 76.6834C113.501 76.4596 113.501 76.0967 113.725 75.8729C113.837 75.7609 113.983 75.7051 114.13 75.7051H114.133ZM168.209 75.7051C168.355 75.706 168.5 75.7619 168.611 75.8729C168.835 76.0967 168.835 76.4596 168.611 76.6834C168.5 76.7944 168.355 76.8503 168.209 76.8512H168.206C168.059 76.8512 167.913 76.7954 167.801 76.6834C167.577 76.4596 167.577 76.0967 167.801 75.8729C167.913 75.7609 168.059 75.7051 168.206 75.7051H168.209ZM27.6134 75.7051C27.7589 75.706 27.9041 75.7619 28.0151 75.8729C28.239 76.0967 28.239 76.4596 28.0151 76.6834C27.9041 76.7944 27.7589 76.8503 27.6134 76.8512H27.61C27.4632 76.8512 27.3167 76.7954 27.2048 76.6834C26.981 76.4596 26.981 76.0967 27.2048 75.8729C27.3167 75.7609 27.4632 75.7051 27.61 75.7051H27.6134ZM92.5034 75.7051C92.6489 75.706 92.7941 75.7619 92.9051 75.8729C93.129 76.0967 93.129 76.4596 92.9051 76.6834C92.7941 76.7944 92.6489 76.8503 92.5034 76.8512H92.5C92.3532 76.8512 92.2068 76.7954 92.0948 76.6834C91.871 76.4596 91.871 76.0967 92.0948 75.8729C92.2068 75.7609 92.3532 75.7051 92.5 75.7051H92.5034ZM70.8738 75.7057C71.188 75.7076 71.4427 75.9635 71.4427 76.278C71.4427 76.5928 71.188 76.8487 70.8738 76.8506H70.8701C70.554 76.8506 70.2975 76.594 70.2975 76.278C70.2975 75.9623 70.554 75.7054 70.8701 75.7054L70.8738 75.7057ZM124.948 75.7057C125.262 75.7076 125.517 75.9635 125.517 76.278C125.517 76.5928 125.262 76.8487 124.948 76.8506H124.944C124.628 76.8506 124.372 76.594 124.372 76.278C124.372 75.9623 124.628 75.7054 124.944 75.7054L124.948 75.7057ZM60.0578 75.7057C60.3719 75.7076 60.6266 75.9635 60.6266 76.278C60.6266 76.5928 60.3719 76.8487 60.0578 76.8506H60.0541C59.738 76.8506 59.4815 76.594 59.4815 76.278C59.4815 75.9623 59.738 75.7054 60.0541 75.7054L60.0578 75.7057ZM146.578 75.7057C146.892 75.7076 147.147 75.9635 147.147 76.278C147.147 76.5928 146.892 76.8487 146.578 76.8506H146.574C146.258 76.8506 146.001 76.594 146.001 76.278C146.001 75.9623 146.258 75.7054 146.574 75.7054L146.578 75.7057ZM135.764 75.7057C136.078 75.7076 136.333 75.9635 136.333 76.278C136.333 76.5928 136.078 76.8487 135.764 76.8506H135.76C135.444 76.8506 135.188 76.594 135.188 76.278C135.188 75.9623 135.444 75.7054 135.76 75.7054L135.764 75.7057ZM38.4275 75.7057C38.742 75.7076 38.9964 75.9635 38.9964 76.278C38.9964 76.5928 38.742 76.8487 38.4275 76.8506H38.4238C38.1081 76.8506 37.8516 76.594 37.8516 76.278C37.8516 75.9623 38.1081 75.7054 38.4238 75.7054L38.4275 75.7057ZM157.394 75.7057C157.708 75.7076 157.963 75.9635 157.963 76.278C157.963 76.5928 157.708 76.8487 157.394 76.8506H157.39C157.074 76.8506 156.817 76.594 156.817 76.278C156.817 75.9623 157.074 75.7054 157.39 75.7054L157.394 75.7057ZM49.2436 75.7057C49.5581 75.7076 49.8124 75.9635 49.8124 76.278C49.8124 76.5928 49.5581 76.8487 49.2436 76.8506H49.2399C48.9241 76.8506 48.6673 76.594 48.6673 76.278C48.6673 75.9623 48.9241 75.7054 49.2399 75.7054L49.2436 75.7057ZM22.2064 70.2982C22.3519 70.2992 22.4972 70.355 22.6082 70.466C22.832 70.6877 22.832 71.0506 22.6082 71.2763C22.4972 71.3876 22.3519 71.4434 22.2064 71.4443H22.203C22.0563 71.4443 21.9098 71.3882 21.7979 71.2763C21.574 71.0527 21.574 70.6898 21.7979 70.466C21.9098 70.3541 22.0563 70.2982 22.203 70.2982H22.2064ZM87.0965 70.2982C87.242 70.2992 87.3872 70.355 87.4982 70.466C87.7221 70.6877 87.7221 71.0506 87.4982 71.2763C87.3872 71.3876 87.242 71.4434 87.0965 71.4443H87.0931C86.9463 71.4443 86.7995 71.3882 86.6879 71.2763C86.4641 71.0527 86.4641 70.6898 86.6879 70.466C86.7995 70.3541 86.9463 70.2982 87.0931 70.2982H87.0965ZM76.2804 70.2982C76.4259 70.2992 76.5712 70.355 76.6822 70.466C76.906 70.6877 76.906 71.0506 76.6822 71.2763C76.5712 71.3876 76.4259 71.4434 76.2804 71.4443H76.277C76.1303 71.4443 75.9838 71.3882 75.8719 71.2763C75.648 71.0527 75.648 70.6898 75.8719 70.466C75.9838 70.3541 76.1303 70.2982 76.277 70.2982H76.2804ZM97.9103 70.2982C98.0559 70.2992 98.2011 70.355 98.3121 70.466C98.5359 70.6877 98.5359 71.0506 98.3121 71.2763C98.2011 71.3876 98.0559 71.4434 97.9103 71.4443H97.9069C97.7605 71.4443 97.6137 71.3882 97.5018 71.2763C97.2779 71.0527 97.2779 70.6898 97.5018 70.466C97.6137 70.3541 97.7605 70.2982 97.9069 70.2982H97.9103ZM33.0203 70.2982C33.1658 70.2992 33.3111 70.355 33.4221 70.466C33.6459 70.6877 33.6459 71.0506 33.4221 71.2763C33.3111 71.3876 33.1658 71.4434 33.0203 71.4443H33.0169C32.8704 71.4443 32.7237 71.3882 32.6117 71.2763C32.3879 71.0527 32.3879 70.6898 32.6117 70.466C32.7237 70.3541 32.8704 70.2982 33.0169 70.2982H33.0203ZM108.726 70.2982C108.872 70.2992 109.017 70.355 109.128 70.466C109.352 70.6877 109.352 71.0506 109.128 71.2763C109.017 71.3876 108.872 71.4434 108.726 71.4443H108.723C108.576 71.4443 108.43 71.3882 108.318 71.2763C108.094 71.0527 108.094 70.6898 108.318 70.466C108.43 70.3541 108.576 70.2982 108.723 70.2982H108.726ZM54.6508 70.2967C54.965 70.2986 55.2194 70.5545 55.2194 70.8693C55.2194 71.1841 54.965 71.4397 54.6508 71.4418H54.6471C54.3311 71.4418 54.0745 71.1853 54.0745 70.8693C54.0745 70.5532 54.3311 70.2967 54.6471 70.2967H54.6508ZM130.357 70.2967C130.671 70.2986 130.925 70.5545 130.925 70.8693C130.925 71.1841 130.671 71.4397 130.357 71.4418H130.353C130.037 71.4418 129.781 71.1853 129.781 70.8693C129.781 70.5532 130.037 70.2967 130.353 70.2967H130.357ZM65.4665 70.2967C65.781 70.2986 66.0354 70.5545 66.0354 70.8693C66.0354 71.1841 65.781 71.4397 65.4665 71.4418H65.4628C65.1471 71.4418 64.8906 71.1853 64.8906 70.8693C64.8906 70.5532 65.1471 70.2967 65.4628 70.2967H65.4665ZM119.541 70.2967C119.855 70.2986 120.109 70.5545 120.109 70.8693C120.109 71.1841 119.855 71.4397 119.541 71.4418H119.537C119.221 71.4418 118.965 71.1853 118.965 70.8693C118.965 70.5532 119.221 70.2967 119.537 70.2967H119.541ZM43.8366 70.2967C44.1511 70.2986 44.4055 70.5545 44.4055 70.8693C44.4055 71.1841 44.1511 71.4397 43.8366 71.4418H43.8329C43.5169 71.4418 43.2604 71.1853 43.2604 70.8693C43.2604 70.5532 43.5169 70.2967 43.8329 70.2967H43.8366ZM151.987 70.2967C152.301 70.2986 152.556 70.5545 152.556 70.8693C152.556 71.1841 152.301 71.4397 151.987 71.4418H151.983C151.667 71.4418 151.411 71.1853 151.411 70.8693C151.411 70.5532 151.667 70.2967 151.983 70.2967H151.987ZM162.801 70.2967C163.115 70.2986 163.37 70.5545 163.37 70.8693C163.37 71.1841 163.115 71.4397 162.801 71.4418H162.797C162.481 71.4418 162.224 71.1853 162.224 70.8693C162.224 70.5532 162.481 70.2967 162.797 70.2967H162.801ZM141.171 70.2967C141.485 70.2986 141.74 70.5545 141.74 70.8693C141.74 71.1841 141.485 71.4397 141.171 71.4418H141.167C140.851 71.4418 140.594 71.1853 140.594 70.8693C140.594 70.5532 140.851 70.2967 141.167 70.2967H141.171ZM103.319 64.8892C103.465 64.8902 103.61 64.946 103.721 65.057C103.945 65.2808 103.945 65.6437 103.721 65.8676C103.61 65.9786 103.465 66.0344 103.319 66.0353H103.316C103.169 66.0353 103.023 65.9795 102.911 65.8676C102.687 65.6437 102.687 65.2808 102.911 65.057C103.023 64.945 103.169 64.8892 103.316 64.8892H103.319ZM81.6895 64.8892C81.835 64.8902 81.9803 64.946 82.0913 65.057C82.3151 65.2808 82.3151 65.6437 82.0913 65.8676C81.9803 65.9786 81.835 66.0344 81.6895 66.0353H81.6861C81.5394 66.0353 81.3926 65.9795 81.2807 65.8676C81.0571 65.6437 81.0571 65.2808 81.2807 65.057C81.3926 64.945 81.5394 64.8892 81.6861 64.8892H81.6895ZM92.5034 64.8892C92.6489 64.8902 92.7941 64.946 92.9051 65.057C93.129 65.2808 93.129 65.6437 92.9051 65.8676C92.7941 65.9786 92.6489 66.0344 92.5034 66.0353H92.5C92.3532 66.0353 92.2068 65.9795 92.0948 65.8676C91.871 65.6437 91.871 65.2808 92.0948 65.057C92.2068 64.945 92.3532 64.8892 92.5 64.8892H92.5034ZM114.133 64.8892C114.279 64.8902 114.424 64.946 114.535 65.057C114.759 65.2808 114.759 65.6437 114.535 65.8676C114.424 65.9786 114.279 66.0344 114.133 66.0353H114.13C113.983 66.0353 113.837 65.9795 113.725 65.8676C113.501 65.6437 113.501 65.2808 113.725 65.057C113.837 64.945 113.983 64.8892 114.13 64.8892H114.133ZM27.6134 64.8892C27.7589 64.8902 27.9041 64.946 28.0151 65.057C28.239 65.2808 28.239 65.6437 28.0151 65.8676C27.9041 65.9786 27.7589 66.0344 27.6134 66.0353H27.61C27.4632 66.0353 27.3167 65.9795 27.2048 65.8676C26.981 65.6437 26.981 65.2808 27.2048 65.057C27.3167 64.945 27.4632 64.8892 27.61 64.8892H27.6134ZM70.8738 64.8898C71.188 64.8917 71.4427 65.1476 71.4427 65.4621C71.4427 65.7769 71.188 66.0328 70.8738 66.0347H70.8701C70.554 66.0347 70.2975 65.7781 70.2975 65.4621C70.2975 65.1464 70.554 64.8898 70.8701 64.8898H70.8738ZM157.394 64.8898C157.708 64.8917 157.963 65.1476 157.963 65.4621C157.963 65.7769 157.708 66.0328 157.394 66.0347H157.39C157.074 66.0347 156.817 65.7781 156.817 65.4621C156.817 65.1464 157.074 64.8898 157.39 64.8898H157.394ZM38.4275 64.8898C38.742 64.8917 38.9964 65.1476 38.9964 65.4621C38.9964 65.7769 38.742 66.0328 38.4275 66.0347H38.4238C38.1081 66.0347 37.8516 65.7781 37.8516 65.4621C37.8516 65.1464 38.1081 64.8898 38.4238 64.8898H38.4275ZM124.948 64.8898C125.262 64.8917 125.517 65.1476 125.517 65.4621C125.517 65.7769 125.262 66.0328 124.948 66.0347H124.944C124.628 66.0347 124.372 65.7781 124.372 65.4621C124.372 65.1464 124.628 64.8898 124.944 64.8898H124.948ZM146.578 64.8898C146.892 64.8917 147.147 65.1476 147.147 65.4621C147.147 65.7769 146.892 66.0328 146.578 66.0347H146.574C146.258 66.0347 146.001 65.7781 146.001 65.4621C146.001 65.1464 146.258 64.8898 146.574 64.8898H146.578ZM60.0578 64.8898C60.3719 64.8917 60.6266 65.1476 60.6266 65.4621C60.6266 65.7769 60.3719 66.0328 60.0578 66.0347H60.0541C59.738 66.0347 59.4815 65.7781 59.4815 65.4621C59.4815 65.1464 59.738 64.8898 60.0541 64.8898H60.0578ZM135.764 64.8898C136.078 64.8917 136.333 65.1476 136.333 65.4621C136.333 65.7769 136.078 66.0328 135.764 66.0347H135.76C135.444 66.0347 135.188 65.7781 135.188 65.4621C135.188 65.1464 135.444 64.8898 135.76 64.8898H135.764ZM49.2436 64.8898C49.5581 64.8917 49.8124 65.1476 49.8124 65.4621C49.8124 65.7769 49.5581 66.0328 49.2436 66.0347H49.2399C48.9241 66.0347 48.6673 65.7781 48.6673 65.4621C48.6673 65.1464 48.9241 64.8898 49.2399 64.8898H49.2436ZM97.9103 59.4824C98.0559 59.4833 98.2011 59.5391 98.3121 59.6501C98.5359 59.8739 98.5359 60.2368 98.3121 60.4607C98.2011 60.5717 98.0559 60.6275 97.9103 60.6284H97.9069C97.7605 60.6284 97.6137 60.5723 97.5018 60.4607C97.2779 60.2368 97.2779 59.8739 97.5018 59.6501C97.6137 59.5382 97.7605 59.4824 97.9069 59.4824H97.9103ZM33.0203 59.4824C33.1658 59.4833 33.3111 59.5391 33.4221 59.6501C33.6459 59.8739 33.6459 60.2368 33.4221 60.4607C33.3111 60.5717 33.1658 60.6275 33.0203 60.6284H33.0169C32.8704 60.6284 32.7237 60.5723 32.6117 60.4607C32.3879 60.2368 32.3879 59.8739 32.6117 59.6501C32.7237 59.5382 32.8704 59.4824 33.0169 59.4824H33.0203ZM76.2804 59.4824C76.4259 59.4833 76.5712 59.5391 76.6822 59.6501C76.906 59.8739 76.906 60.2368 76.6822 60.4607C76.5712 60.5717 76.4259 60.6275 76.2804 60.6284H76.277C76.1303 60.6284 75.9838 60.5723 75.8719 60.4607C75.648 60.2368 75.648 59.8739 75.8719 59.6501C75.9838 59.5382 76.1303 59.4824 76.277 59.4824H76.2804ZM108.726 59.4824C108.872 59.4833 109.017 59.5391 109.128 59.6501C109.352 59.8739 109.352 60.2368 109.128 60.4607C109.017 60.5717 108.872 60.6275 108.726 60.6284H108.723C108.576 60.6284 108.43 60.5723 108.318 60.4607C108.094 60.2368 108.094 59.8739 108.318 59.6501C108.43 59.5382 108.576 59.4824 108.723 59.4824H108.726ZM87.0965 59.4824C87.242 59.4833 87.3872 59.5391 87.4982 59.6501C87.7221 59.8739 87.7221 60.2368 87.4982 60.4607C87.3872 60.5717 87.242 60.6275 87.0965 60.6284H87.0931C86.9463 60.6284 86.7995 60.5723 86.6879 60.4607C86.4641 60.2368 86.4641 59.8739 86.6879 59.6501C86.7995 59.5382 86.9463 59.4824 87.0931 59.4824H87.0965ZM151.987 59.4827C152.301 59.4848 152.556 59.7404 152.556 60.0552C152.556 60.37 152.301 60.6259 151.987 60.6278H151.983C151.667 60.6278 151.411 60.3713 151.411 60.0552C151.411 59.7392 151.667 59.4827 151.983 59.4827H151.987ZM119.541 59.4827C119.855 59.4848 120.109 59.7404 120.109 60.0552C120.109 60.37 119.855 60.6259 119.541 60.6278H119.537C119.221 60.6278 118.965 60.3713 118.965 60.0552C118.965 59.7392 119.221 59.4827 119.537 59.4827H119.541ZM54.6508 59.4827C54.965 59.4848 55.2194 59.7404 55.2194 60.0552C55.2194 60.37 54.965 60.6259 54.6508 60.6278H54.6471C54.3311 60.6278 54.0745 60.3713 54.0745 60.0552C54.0745 59.7392 54.3311 59.4827 54.6471 59.4827H54.6508ZM141.171 59.4827C141.485 59.4848 141.74 59.7404 141.74 60.0552C141.74 60.37 141.485 60.6259 141.171 60.6278H141.167C140.851 60.6278 140.594 60.3713 140.594 60.0552C140.594 59.7392 140.851 59.4827 141.167 59.4827H141.171ZM130.357 59.4827C130.671 59.4848 130.925 59.7404 130.925 60.0552C130.925 60.37 130.671 60.6259 130.357 60.6278H130.353C130.037 60.6278 129.781 60.3713 129.781 60.0552C129.781 59.7392 130.037 59.4827 130.353 59.4827H130.357ZM65.4665 59.4827C65.781 59.4848 66.0354 59.7404 66.0354 60.0552C66.0354 60.37 65.781 60.6259 65.4665 60.6278H65.4628C65.1471 60.6278 64.8906 60.3713 64.8906 60.0552C64.8906 59.7392 65.1471 59.4827 65.4628 59.4827H65.4665ZM43.8366 59.4827C44.1511 59.4848 44.4055 59.7404 44.4055 60.0552C44.4055 60.37 44.1511 60.6259 43.8366 60.6278H43.8329C43.5169 60.6278 43.2604 60.3713 43.2604 60.0552C43.2604 59.7392 43.5169 59.4827 43.8329 59.4827H43.8366ZM114.133 54.0755C114.279 54.0761 114.424 54.1322 114.535 54.2432C114.759 54.4671 114.759 54.83 114.535 55.0535C114.424 55.1645 114.279 55.2206 114.133 55.2215H114.13C113.983 55.2215 113.837 55.1654 113.725 55.0535C113.501 54.83 113.501 54.4671 113.725 54.2432C113.837 54.1313 113.983 54.0755 114.13 54.0755H114.133ZM81.6895 54.0755C81.835 54.0761 81.9803 54.1322 82.0913 54.2432C82.3151 54.4671 82.3151 54.83 82.0913 55.0535C81.9803 55.1645 81.835 55.2206 81.6895 55.2215H81.6861C81.5394 55.2215 81.3926 55.1654 81.2807 55.0535C81.0571 54.83 81.0571 54.4671 81.2807 54.2432C81.3926 54.1313 81.5394 54.0755 81.6861 54.0755H81.6895ZM103.319 54.0755C103.465 54.0761 103.61 54.1322 103.721 54.2432C103.945 54.4671 103.945 54.83 103.721 55.0535C103.61 55.1645 103.465 55.2206 103.319 55.2215H103.316C103.169 55.2215 103.023 55.1654 102.911 55.0535C102.687 54.83 102.687 54.4671 102.911 54.2432C103.023 54.1313 103.169 54.0755 103.316 54.0755H103.319ZM92.5034 54.0755C92.6489 54.0761 92.7941 54.1322 92.9051 54.2432C93.129 54.4671 93.129 54.83 92.9051 55.0535C92.7941 55.1645 92.6489 55.2206 92.5034 55.2215H92.5C92.3532 55.2215 92.2068 55.1654 92.0948 55.0535C91.871 54.83 91.871 54.4671 92.0948 54.2432C92.2068 54.1313 92.3532 54.0755 92.5 54.0755H92.5034ZM135.764 54.0758C136.078 54.0779 136.333 54.3336 136.333 54.6484C136.333 54.9632 136.078 55.2191 135.764 55.2209H135.76C135.444 55.2209 135.188 54.9644 135.188 54.6484C135.188 54.3323 135.444 54.0758 135.76 54.0758H135.764ZM49.2436 54.0758C49.5581 54.0779 49.8124 54.3336 49.8124 54.6484C49.8124 54.9632 49.5581 55.2191 49.2436 55.2209H49.2399C48.9241 55.2209 48.6673 54.9644 48.6673 54.6484C48.6673 54.3323 48.9241 54.0758 49.2399 54.0758H49.2436ZM124.948 54.0758C125.262 54.0779 125.517 54.3336 125.517 54.6484C125.517 54.9632 125.262 55.2191 124.948 55.2209H124.944C124.628 55.2209 124.372 54.9644 124.372 54.6484C124.372 54.3323 124.628 54.0758 124.944 54.0758H124.948ZM70.8738 54.0758C71.188 54.0779 71.4427 54.3336 71.4427 54.6484C71.4427 54.9632 71.188 55.2191 70.8738 55.2209H70.8701C70.554 55.2209 70.2975 54.9644 70.2975 54.6484C70.2975 54.3323 70.554 54.0758 70.8701 54.0758H70.8738ZM38.4275 54.0758C38.742 54.0779 38.9964 54.3336 38.9964 54.6484C38.9964 54.9632 38.742 55.2191 38.4275 55.2209H38.4238C38.1081 55.2209 37.8516 54.9644 37.8516 54.6484C37.8516 54.3323 38.1081 54.0758 38.4238 54.0758H38.4275ZM60.0578 54.0758C60.3719 54.0779 60.6266 54.3336 60.6266 54.6484C60.6266 54.9632 60.3719 55.2191 60.0578 55.2209H60.0541C59.738 55.2209 59.4815 54.9644 59.4815 54.6484C59.4815 54.3323 59.738 54.0758 60.0541 54.0758H60.0578ZM146.578 54.0758C146.892 54.0779 147.147 54.3336 147.147 54.6484C147.147 54.9632 146.892 55.2191 146.578 55.2209H146.574C146.258 55.2209 146.001 54.9644 146.001 54.6484C146.001 54.3323 146.258 54.0758 146.574 54.0758H146.578ZM97.9103 48.6683C98.0559 48.6692 98.2011 48.7253 98.3121 48.8363C98.5359 49.0599 98.5359 49.4209 98.3121 49.6466C98.2011 49.7576 98.0559 49.8138 97.9103 49.8144H97.9069C97.7605 49.8144 97.6137 49.7586 97.5018 49.6466C97.2779 49.4228 97.2779 49.0599 97.5018 48.8363C97.6137 48.7244 97.7605 48.6683 97.9069 48.6683H97.9103ZM87.0965 48.6683C87.242 48.6692 87.3872 48.7253 87.4982 48.8363C87.7221 49.0599 87.7221 49.4209 87.4982 49.6466C87.3872 49.7576 87.242 49.8138 87.0965 49.8144H87.0931C86.9463 49.8144 86.7995 49.7586 86.6879 49.6466C86.4641 49.4228 86.4641 49.0599 86.6879 48.8363C86.7995 48.7244 86.9463 48.6683 87.0931 48.6683H87.0965ZM76.2804 48.6683C76.4259 48.6692 76.5712 48.7253 76.6822 48.8363C76.906 49.0599 76.906 49.4209 76.6822 49.6466C76.5712 49.7576 76.4259 49.8138 76.2804 49.8144H76.277C76.1303 49.8144 75.9838 49.7586 75.8719 49.6466C75.648 49.4228 75.648 49.0599 75.8719 48.8363C75.9838 48.7244 76.1303 48.6683 76.277 48.6683H76.2804ZM108.726 48.6683C108.872 48.6692 109.017 48.7253 109.128 48.8363C109.352 49.0599 109.352 49.4209 109.128 49.6466C109.017 49.7576 108.872 49.8138 108.726 49.8144H108.723C108.576 49.8144 108.43 49.7586 108.318 49.6466C108.094 49.4228 108.094 49.0599 108.318 48.8363C108.43 48.7244 108.576 48.6683 108.723 48.6683H108.726ZM141.171 48.6668C141.485 48.6689 141.74 48.9248 141.74 49.2393C141.74 49.5541 141.485 49.8101 141.171 49.8119H141.167C140.851 49.8119 140.594 49.5554 140.594 49.2393C140.594 48.9236 140.851 48.6668 141.167 48.6668H141.171ZM54.6508 48.6668C54.965 48.6689 55.2194 48.9248 55.2194 49.2393C55.2194 49.5541 54.965 49.8101 54.6508 49.8119H54.6471C54.3311 49.8119 54.0745 49.5554 54.0745 49.2393C54.0745 48.9236 54.3311 48.6668 54.6471 48.6668H54.6508ZM130.357 48.6668C130.671 48.6689 130.925 48.9248 130.925 49.2393C130.925 49.5541 130.671 49.8101 130.357 49.8119H130.353C130.037 49.8119 129.781 49.5554 129.781 49.2393C129.781 48.9236 130.037 48.6668 130.353 48.6668H130.357ZM43.8366 48.6668C44.1511 48.6689 44.4055 48.9248 44.4055 49.2393C44.4055 49.5541 44.1511 49.8101 43.8366 49.8119H43.8329C43.5169 49.8119 43.2604 49.5554 43.2604 49.2393C43.2604 48.9236 43.5169 48.6668 43.8329 48.6668H43.8366ZM119.541 48.6668C119.855 48.6689 120.109 48.9248 120.109 49.2393C120.109 49.5541 119.855 49.8101 119.541 49.8119H119.537C119.221 49.8119 118.965 49.5554 118.965 49.2393C118.965 48.9236 119.221 48.6668 119.537 48.6668H119.541ZM65.4665 48.6668C65.781 48.6689 66.0354 48.9248 66.0354 49.2393C66.0354 49.5541 65.781 49.8101 65.4665 49.8119H65.4628C65.1471 49.8119 64.8906 49.5554 64.8906 49.2393C64.8906 48.9236 65.1471 48.6668 65.4628 48.6668H65.4665ZM103.319 43.2596C103.465 43.2602 103.61 43.3163 103.721 43.4273C103.945 43.6512 103.945 44.0141 103.721 44.2376C103.61 44.3486 103.465 44.4047 103.319 44.4057H103.316C103.169 44.4057 103.023 44.3495 102.911 44.2376C102.687 44.0141 102.687 43.6512 102.911 43.4273C103.023 43.3154 103.169 43.2596 103.316 43.2596H103.319ZM92.5034 43.2596C92.6489 43.2602 92.7941 43.3163 92.9051 43.4273C93.129 43.6512 93.129 44.0141 92.9051 44.2376C92.7941 44.3486 92.6489 44.4047 92.5034 44.4057H92.5C92.3532 44.4057 92.2068 44.3495 92.0948 44.2376C91.871 44.0141 91.871 43.6512 92.0948 43.4273C92.2068 43.3154 92.3532 43.2596 92.5 43.2596H92.5034ZM81.6895 43.2596C81.835 43.2602 81.9803 43.3163 82.0913 43.4273C82.3151 43.6512 82.3151 44.0141 82.0913 44.2376C81.9803 44.3486 81.835 44.4047 81.6895 44.4057H81.6861C81.5394 44.4057 81.3926 44.3495 81.2807 44.2376C81.0571 44.0141 81.0571 43.6512 81.2807 43.4273C81.3926 43.3154 81.5394 43.2596 81.6861 43.2596H81.6895ZM114.133 43.2596C114.279 43.2602 114.424 43.3163 114.535 43.4273C114.759 43.6512 114.759 44.0141 114.535 44.2376C114.424 44.3486 114.279 44.4047 114.133 44.4057H114.13C113.983 44.4057 113.837 44.3495 113.725 44.2376C113.501 44.0141 113.501 43.6512 113.725 43.4273C113.837 43.3154 113.983 43.2596 114.13 43.2596H114.133ZM124.948 43.2599C125.262 43.2621 125.517 43.5177 125.517 43.8325C125.517 44.1473 125.262 44.4032 124.948 44.405H124.944C124.628 44.405 124.372 44.1485 124.372 43.8325C124.372 43.5164 124.628 43.2599 124.944 43.2599H124.948ZM60.0578 43.2599C60.3719 43.2621 60.6266 43.5177 60.6266 43.8325C60.6266 44.1473 60.3719 44.4032 60.0578 44.405H60.0541C59.738 44.405 59.4815 44.1485 59.4815 43.8325C59.4815 43.5164 59.738 43.2599 60.0541 43.2599H60.0578ZM135.764 43.2599C136.078 43.2621 136.333 43.5177 136.333 43.8325C136.333 44.1473 136.078 44.4032 135.764 44.405H135.76C135.444 44.405 135.188 44.1485 135.188 43.8325C135.188 43.5164 135.444 43.2599 135.76 43.2599H135.764ZM70.8738 43.2599C71.188 43.2621 71.4427 43.5177 71.4427 43.8325C71.4427 44.1473 71.188 44.4032 70.8738 44.405H70.8701C70.554 44.405 70.2975 44.1485 70.2975 43.8325C70.2975 43.5164 70.554 43.2599 70.8701 43.2599H70.8738ZM49.2436 43.2599C49.5581 43.2621 49.8124 43.5177 49.8124 43.8325C49.8124 44.1473 49.5581 44.4032 49.2436 44.405H49.2399C48.9241 44.405 48.6673 44.1485 48.6673 43.8325C48.6673 43.5164 48.9241 43.2599 49.2399 43.2599H49.2436ZM108.726 37.8524C108.872 37.8533 109.017 37.9094 109.128 38.0204C109.352 38.2443 109.352 38.6069 109.128 38.8307C109.017 38.9417 108.872 38.9979 108.726 38.9988H108.723C108.576 38.9988 108.43 38.9427 108.318 38.8307C108.094 38.6069 108.094 38.2443 108.318 38.0204C108.43 37.9085 108.576 37.8524 108.723 37.8524H108.726ZM97.9103 37.8524C98.0559 37.8533 98.2011 37.9094 98.3121 38.0204C98.5359 38.2443 98.5359 38.6069 98.3121 38.8307C98.2011 38.9417 98.0559 38.9979 97.9103 38.9988H97.9069C97.7605 38.9988 97.6137 38.9427 97.5018 38.8307C97.2779 38.6069 97.2779 38.2443 97.5018 38.0204C97.6137 37.9085 97.7605 37.8524 97.9069 37.8524H97.9103ZM76.2804 37.8524C76.4259 37.8533 76.5712 37.9094 76.6822 38.0204C76.906 38.2443 76.906 38.6069 76.6822 38.8307C76.5712 38.9417 76.4259 38.9979 76.2804 38.9988H76.277C76.1303 38.9988 75.9838 38.9427 75.8719 38.8307C75.648 38.6069 75.648 38.2443 75.8719 38.0204C75.9838 37.9085 76.1303 37.8524 76.277 37.8524H76.2804ZM87.0965 37.8524C87.242 37.8533 87.3872 37.9094 87.4982 38.0204C87.7221 38.2443 87.7221 38.6069 87.4982 38.8307C87.3872 38.9417 87.242 38.9979 87.0965 38.9988H87.0931C86.9463 38.9988 86.7995 38.9427 86.6879 38.8307C86.4641 38.6069 86.4641 38.2443 86.6879 38.0204C86.7995 37.9085 86.9463 37.8524 87.0931 37.8524H87.0965ZM130.357 37.853C130.671 37.8552 130.925 38.1108 130.925 38.4256C130.925 38.7404 130.671 38.996 130.357 38.9982H130.353C130.037 38.9982 129.781 38.7416 129.781 38.4256C129.781 38.1096 130.037 37.853 130.353 37.853H130.357ZM119.541 37.853C119.855 37.8552 120.109 38.1108 120.109 38.4256C120.109 38.7404 119.855 38.996 119.541 38.9982H119.537C119.221 38.9982 118.965 38.7416 118.965 38.4256C118.965 38.1096 119.221 37.853 119.537 37.853H119.541ZM65.4665 37.853C65.781 37.8552 66.0354 38.1108 66.0354 38.4256C66.0354 38.7404 65.781 38.996 65.4665 38.9982H65.4628C65.1471 38.9982 64.8906 38.7416 64.8906 38.4256C64.8906 38.1096 65.1471 37.853 65.4628 37.853H65.4665ZM54.6508 37.853C54.965 37.8552 55.2194 38.1108 55.2194 38.4256C55.2194 38.7404 54.965 38.996 54.6508 38.9982H54.6471C54.3311 38.9982 54.0745 38.7416 54.0745 38.4256C54.0745 38.1096 54.3311 37.853 54.6471 37.853H54.6508ZM114.133 32.4455C114.279 32.4465 114.424 32.5026 114.535 32.6136C114.759 32.8371 114.759 33.2 114.535 33.4239C114.424 33.5349 114.279 33.591 114.133 33.5916H114.13C113.983 33.5916 113.837 33.5358 113.725 33.4239C113.501 33.2 113.501 32.8371 113.725 32.6136C113.837 32.5017 113.983 32.4455 114.13 32.4455H114.133ZM124.949 32.4455C125.095 32.4465 125.24 32.5026 125.351 32.6136C125.575 32.8371 125.575 33.2 125.351 33.4239C125.24 33.5349 125.095 33.591 124.949 33.5916H124.946C124.799 33.5916 124.653 33.5358 124.541 33.4239C124.317 33.2 124.317 32.8371 124.541 32.6136C124.653 32.5017 124.799 32.4455 124.946 32.4455H124.949ZM81.6895 32.4455C81.835 32.4465 81.9803 32.5026 82.0913 32.6136C82.3151 32.8371 82.3151 33.2 82.0913 33.4239C81.9803 33.5349 81.835 33.591 81.6895 33.5916H81.6861C81.5394 33.5916 81.3926 33.5358 81.2807 33.4239C81.0571 33.2 81.0571 32.8371 81.2807 32.6136C81.3926 32.5017 81.5394 32.4455 81.6861 32.4455H81.6895ZM103.319 32.4455C103.465 32.4465 103.61 32.5026 103.721 32.6136C103.945 32.8371 103.945 33.2 103.721 33.4239C103.61 33.5349 103.465 33.591 103.319 33.5916H103.316C103.169 33.5916 103.023 33.5358 102.911 33.4239C102.687 33.2 102.687 32.8371 102.911 32.6136C103.023 32.5017 103.169 32.4455 103.316 32.4455H103.319ZM70.8735 32.4455C71.019 32.4465 71.1642 32.5026 71.2752 32.6136C71.4991 32.8371 71.4991 33.2 71.2752 33.4239C71.1642 33.5349 71.019 33.591 70.8735 33.5916H70.8701C70.7233 33.5916 70.5766 33.5358 70.4646 33.4239C70.2411 33.2 70.2411 32.8371 70.4646 32.6136C70.5766 32.5017 70.7233 32.4455 70.8701 32.4455H70.8735ZM92.5034 32.4455C92.6489 32.4465 92.7941 32.5026 92.9051 32.6136C93.129 32.8371 93.129 33.2 92.9051 33.4239C92.7941 33.5349 92.6489 33.591 92.5034 33.5916H92.5C92.3532 33.5916 92.2068 33.5358 92.0948 33.4239C91.871 33.2 91.871 32.8371 92.0948 32.6136C92.2068 32.5017 92.3532 32.4455 92.5 32.4455H92.5034ZM60.0593 32.4455C60.2048 32.4465 60.3501 32.5026 60.4614 32.6136C60.6849 32.8371 60.6849 33.2 60.4614 33.4239C60.3501 33.5349 60.2048 33.591 60.0593 33.5916H60.0559C59.9094 33.5916 59.7627 33.5358 59.6508 33.4239C59.4269 33.2 59.4269 32.8371 59.6508 32.6136C59.7627 32.5017 59.9094 32.4455 60.0559 32.4455H60.0593ZM76.2804 27.0387C76.4259 27.0396 76.5712 27.0954 76.6822 27.2064C76.906 27.4284 76.906 27.7931 76.6822 28.017C76.5712 28.128 76.4259 28.1838 76.2804 28.1847H76.277C76.1303 28.1847 75.9838 28.1289 75.8719 28.017C75.648 27.7931 75.648 27.4302 75.8719 27.2064C75.9838 27.0945 76.1303 27.0387 76.277 27.0387H76.2804ZM87.0965 27.0387C87.242 27.0396 87.3872 27.0954 87.4982 27.2064C87.7221 27.4284 87.7221 27.7931 87.4982 28.017C87.3872 28.128 87.242 28.1838 87.0965 28.1847H87.0931C86.9463 28.1847 86.7995 28.1289 86.6879 28.017C86.4641 27.7931 86.4641 27.4302 86.6879 27.2064C86.7995 27.0945 86.9463 27.0387 87.0931 27.0387H87.0965ZM65.4665 27.0387C65.6121 27.0396 65.7573 27.0954 65.8683 27.2064C66.0921 27.4284 66.0921 27.7931 65.8683 28.017C65.7573 28.128 65.6121 28.1838 65.4665 28.1847H65.4628C65.3164 28.1847 65.1696 28.1289 65.0577 28.017C64.8338 27.7931 64.8338 27.4302 65.0577 27.2064C65.1696 27.0945 65.3164 27.0387 65.4628 27.0387H65.4665ZM108.726 27.0387C108.872 27.0396 109.017 27.0954 109.128 27.2064C109.352 27.4284 109.352 27.7931 109.128 28.017C109.017 28.128 108.872 28.1838 108.726 28.1847H108.723C108.576 28.1847 108.43 28.1289 108.318 28.017C108.094 27.7931 108.094 27.4302 108.318 27.2064C108.43 27.0945 108.576 27.0387 108.723 27.0387H108.726ZM97.9103 27.0387C98.0559 27.0396 98.2011 27.0954 98.3121 27.2064C98.5359 27.4284 98.5359 27.7931 98.3121 28.017C98.2011 28.128 98.0559 28.1838 97.9103 28.1847H97.9069C97.7605 28.1847 97.6137 28.1289 97.5018 28.017C97.2779 27.7931 97.2779 27.4302 97.5018 27.2064C97.6137 27.0945 97.7605 27.0387 97.9069 27.0387H97.9103ZM119.541 27.0387C119.686 27.0396 119.831 27.0954 119.942 27.2064C120.166 27.4284 120.166 27.7931 119.942 28.017C119.831 28.128 119.686 28.1838 119.541 28.1847H119.537C119.39 28.1847 119.244 28.1289 119.132 28.017C118.908 27.7931 118.908 27.4302 119.132 27.2064C119.244 27.0945 119.39 27.0387 119.537 27.0387H119.541ZM114.133 21.6296C114.279 21.6306 114.424 21.6867 114.535 21.7977C114.759 22.0212 114.759 22.3841 114.535 22.608C114.424 22.719 114.279 22.7751 114.133 22.7757H114.13C113.983 22.7757 113.837 22.7199 113.725 22.608C113.501 22.3841 113.501 22.0212 113.725 21.7977C113.837 21.6858 113.983 21.6296 114.13 21.6296H114.133ZM81.6895 21.6296C81.835 21.6306 81.9803 21.6867 82.0913 21.7977C82.3151 22.0212 82.3151 22.3841 82.0913 22.608C81.9803 22.719 81.835 22.7751 81.6895 22.7757H81.6861C81.5394 22.7757 81.3926 22.7199 81.2807 22.608C81.0571 22.3841 81.0571 22.0212 81.2807 21.7977C81.3926 21.6858 81.5394 21.6296 81.6861 21.6296H81.6895ZM92.5034 21.6296C92.6489 21.6306 92.7941 21.6867 92.9051 21.7977C93.129 22.0212 93.129 22.3841 92.9051 22.608C92.7941 22.719 92.6489 22.7751 92.5034 22.7757H92.5C92.3532 22.7757 92.2068 22.7199 92.0948 22.608C91.871 22.3841 91.871 22.0212 92.0948 21.7977C92.2068 21.6858 92.3532 21.6296 92.5 21.6296H92.5034ZM70.8735 21.6296C71.019 21.6306 71.1642 21.6867 71.2752 21.7977C71.4991 22.0212 71.4991 22.3841 71.2752 22.608C71.1642 22.719 71.019 22.7751 70.8735 22.7757H70.8701C70.7233 22.7757 70.5766 22.7199 70.4646 22.608C70.2411 22.3841 70.2411 22.0212 70.4646 21.7977C70.5766 21.6858 70.7233 21.6296 70.8701 21.6296H70.8735ZM103.319 21.6296C103.465 21.6306 103.61 21.6867 103.721 21.7977C103.945 22.0212 103.945 22.3841 103.721 22.608C103.61 22.719 103.465 22.7751 103.319 22.7757H103.316C103.169 22.7757 103.023 22.7199 102.911 22.608C102.687 22.3841 102.687 22.0212 102.911 21.7977C103.023 21.6858 103.169 21.6296 103.316 21.6296H103.319ZM108.726 16.2228C108.872 16.2237 109.017 16.2795 109.128 16.3905C109.352 16.6143 109.352 16.9773 109.128 17.2011C109.017 17.3121 108.872 17.3679 108.726 17.3688H108.723C108.576 17.3688 108.43 17.313 108.318 17.2011C108.094 16.9773 108.094 16.6143 108.318 16.3905C108.43 16.2789 108.576 16.2228 108.723 16.2228H108.726ZM76.2804 16.2228C76.4259 16.2237 76.5712 16.2795 76.6822 16.3905C76.906 16.6143 76.906 16.9773 76.6822 17.2011C76.5712 17.3121 76.4259 17.3679 76.2804 17.3688H76.277C76.1303 17.3688 75.9838 17.313 75.8719 17.2011C75.648 16.9773 75.648 16.6143 75.8719 16.3905C75.9838 16.2789 76.1303 16.2228 76.277 16.2228H76.2804ZM97.9103 16.2228C98.0559 16.2237 98.2011 16.2795 98.3121 16.3905C98.5359 16.6143 98.5359 16.9773 98.3121 17.2011C98.2011 17.3121 98.0559 17.3679 97.9103 17.3688H97.9069C97.7605 17.3688 97.6137 17.313 97.5018 17.2011C97.2779 16.9773 97.2779 16.6143 97.5018 16.3905C97.6137 16.2789 97.7605 16.2228 97.9069 16.2228H97.9103ZM87.0965 16.2228C87.242 16.2237 87.3872 16.2795 87.4982 16.3905C87.7221 16.6143 87.7221 16.9773 87.4982 17.2011C87.3872 17.3121 87.242 17.3679 87.0965 17.3688H87.0931C86.9463 17.3688 86.7995 17.313 86.6879 17.2011C86.4641 16.9773 86.4641 16.6143 86.6879 16.3905C86.7995 16.2789 86.9463 16.2228 87.0931 16.2228H87.0965ZM81.6895 10.8159C81.835 10.8168 81.9803 10.8726 82.0913 10.9836C82.3151 11.2075 82.3151 11.5704 82.0913 11.7942C81.9803 11.9052 81.835 11.961 81.6895 11.962H81.6861C81.5394 11.962 81.3926 11.9062 81.2807 11.7942C81.0571 11.5704 81.0571 11.2075 81.2807 10.9836C81.3926 10.8717 81.5394 10.8159 81.6861 10.8159H81.6895ZM103.319 10.8159C103.465 10.8168 103.61 10.8726 103.721 10.9836C103.945 11.2075 103.945 11.5704 103.721 11.7942C103.61 11.9052 103.465 11.961 103.319 11.962H103.316C103.169 11.962 103.023 11.9062 102.911 11.7942C102.687 11.5704 102.687 11.2075 102.911 10.9836C103.023 10.8717 103.169 10.8159 103.316 10.8159H103.319ZM92.5034 10.8159C92.6489 10.8168 92.7941 10.8726 92.9051 10.9836C93.129 11.2075 93.129 11.5704 92.9051 11.7942C92.7941 11.9052 92.6489 11.961 92.5034 11.962H92.5C92.3532 11.962 92.2068 11.9062 92.0948 11.7942C91.871 11.5704 91.871 11.2075 92.0948 10.9836C92.2068 10.8717 92.3532 10.8159 92.5 10.8159H92.5034ZM87.0965 5.40903C87.242 5.40995 87.3872 5.46576 87.4982 5.57676C87.7221 5.80061 87.7221 6.16351 87.4982 6.38736C87.3872 6.49836 87.242 6.55417 87.0965 6.55509H87.0931C86.9463 6.55509 86.7995 6.49897 86.6879 6.38736C86.4641 6.16351 86.4641 5.80061 86.6879 5.57676C86.7995 5.46484 86.9463 5.40903 87.0931 5.40903H87.0965ZM97.9103 5.40903C98.0559 5.40995 98.2011 5.46576 98.3121 5.57676C98.5359 5.80061 98.5359 6.16351 98.3121 6.38736C98.2011 6.49836 98.0559 6.55417 97.9103 6.55509H97.9069C97.7605 6.55509 97.6137 6.49897 97.5018 6.38736C97.2779 6.16351 97.2779 5.80061 97.5018 5.57676C97.6137 5.46484 97.7605 5.40903 97.9069 5.40903H97.9103ZM92.5034 0C92.6489 0.000924989 92.7941 0.0567327 92.9051 0.167731C93.129 0.391579 93.129 0.754483 92.9051 0.97833C92.7941 1.08933 92.6489 1.14514 92.5034 1.14606H92.5C92.3532 1.14606 92.2068 1.09025 92.0948 0.97833C91.871 0.754483 91.871 0.391579 92.0948 0.167731C92.2068 0.0558077 92.3532 0 92.5 0H92.5034Z" fill="#76CEFF"/>
    <rect x="92.7107" y="28.7071" width="99" height="99" rx="9.5" transform="rotate(45 92.7107 28.7071)" stroke="#B1ECFF"/>
    <line x1="131.414" y1="140.414" x2="49.4142" y2="222.414" stroke="url(#paint0_linear)" stroke-width="4"/>
    <defs>
        <linearGradient id="paint0_linear" x1="130" y1="139" x2="50.5" y2="218.5" gradientUnits="userSpaceOnUse">
            <stop stop-color="#4FAAFF"/>
            <stop offset="1" stop-color="#2365A3" stop-opacity="0"/>
        </linearGradient>
    </defs>
</svg>
