<svg width="33" height="32" viewBox="0 0 33 32" fill="none" xmlns="http://www.w3.org/2000/svg">
    <g clip-path="url(#clip0)">
        <path d="M16.6666 32C25.5032 32 32.6666 24.8366 32.6666 16C32.6666 7.16344 25.5032 0 16.6666 0C7.83007 0 0.666626 7.16344 0.666626 16C0.666626 24.8366 7.83007 32 16.6666 32Z" fill="#179CDE"/>
        <path d="M11.4949 17.1646L13.3932 22.4189C13.3932 22.4189 13.6305 22.9097 13.884 22.9097C14.1376 22.9097 17.9179 18.9775 17.9179 18.9775L22.1213 10.8596L11.5627 15.8087L11.4949 17.1646Z" fill="#30A1FF"/>
        <path d="M14.0142 18.5157L13.6495 22.3842C13.6495 22.3842 13.4976 23.5706 14.6841 22.3842C15.8705 21.1977 17.0054 20.2825 17.0054 20.2825" fill="#30A1FF"/>
        <path d="M11.5265 17.3606L7.62277 16.0888C7.62277 16.0888 7.15633 15.8989 7.30548 15.4705C7.33667 15.381 7.39904 15.3064 7.58616 15.1762C8.45125 14.5728 23.5997 9.12741 23.5997 9.12741C23.5997 9.12741 24.0268 8.98368 24.2777 9.07995C24.4037 9.11887 24.4995 9.22246 24.5285 9.35114C24.5558 9.46382 24.5672 9.57975 24.5624 9.69555C24.5624 9.79588 24.5489 9.88944 24.5407 10.0345C24.4472 11.5261 21.6933 22.6339 21.6933 22.6339C21.6933 22.6339 21.5279 23.2833 20.9353 23.3118C20.6415 23.3214 20.3559 23.2113 20.1448 23.0067C18.9828 22.0074 14.9692 19.3091 14.0824 18.7166C14.042 18.6892 14.0153 18.6456 14.0092 18.5972C13.997 18.5349 14.0648 18.4616 14.0648 18.4616C14.0648 18.4616 21.0546 12.2488 21.2404 11.5966C21.2553 11.5464 21.2011 11.5206 21.1279 11.5423C20.6628 11.7132 12.6153 16.7966 11.7272 17.3566C11.6617 17.3743 11.5927 17.3757 11.5265 17.3606Z" fill="white"/>
    </g>
    <defs>
        <clipPath id="clip0">
            <rect width="32" height="32" fill="white" transform="translate(0.666626)"/>
        </clipPath>
    </defs>
</svg>
