<svg width="32" height="26" viewBox="0 0 32 26" fill="none" xmlns="http://www.w3.org/2000/svg">
<path d="M9.86919 25.6986C21.6617 25.6986 28.1117 15.9286 28.1117 7.45615C28.1117 7.17865 28.1117 6.9024 28.0929 6.6274C29.3477 5.71979 30.4309 4.596 31.2917 3.30865C30.1215 3.82715 28.8802 4.16718 27.6092 4.3174C28.9476 3.51612 29.9493 2.25586 30.4279 0.771147C29.1694 1.51797 27.7925 2.04429 26.3567 2.3274C25.39 1.2995 24.1115 0.618857 22.719 0.390788C21.3265 0.162719 19.8977 0.399942 18.6536 1.06575C17.4095 1.73155 16.4196 2.78882 15.8369 4.07394C15.2543 5.35907 15.1114 6.8004 15.4304 8.1749C12.8814 8.04711 10.3877 7.38469 8.11124 6.23063C5.83479 5.07658 3.82648 3.4567 2.21669 1.47615C1.3968 2.8876 1.14569 4.55847 1.51447 6.14857C1.88326 7.73867 2.84422 9.12843 4.20169 10.0349C3.18136 10.0047 2.18329 9.72941 1.29169 9.2324C1.29169 9.25865 1.29169 9.28615 1.29169 9.31365C1.29209 10.7939 1.80451 12.2285 2.74204 13.374C3.67957 14.5196 4.98447 15.3055 6.43544 15.5986C5.49152 15.8561 4.50116 15.8937 3.54044 15.7086C3.95014 16.9826 4.74777 18.0967 5.82178 18.895C6.89578 19.6933 8.19246 20.136 9.53044 20.1611C7.26011 21.9454 4.45551 22.9141 1.56794 22.9111C1.05782 22.9102 0.548192 22.8793 0.041687 22.8186C2.97373 24.7002 6.38533 25.6983 9.86919 25.6936" fill="#1DA1F2"/>
</svg>
