<svg width="50" height="50" viewBox="0 0 50 50" fill="none" xmlns="http://www.w3.org/2000/svg">
<path fill-rule="evenodd" clip-rule="evenodd" d="M32.6746 0H17.3254C3.31667 0 0 3.31667 0 17.3254V32.6746C0 46.6833 3.31667 50 17.3254 50H32.6746C46.6833 50 50 46.6833 50 32.6746V17.3254C50 3.31667 46.6479 0 32.6746 0V0ZM40.3671 35.6742H36.7325C35.3562 35.6742 34.9329 34.58 32.4629 32.075C30.3104 29.9929 29.3579 29.7108 28.8283 29.7108C28.0875 29.7108 27.8758 29.9225 27.8758 30.9458V34.2271C27.8758 35.1096 27.5933 35.6387 25.2646 35.6387C21.4183 35.6387 17.1488 33.31 14.1496 28.9696C9.63292 22.6183 8.39792 17.8546 8.39792 16.8667C8.39792 16.3375 8.60958 15.8433 9.63292 15.8433H13.2675C14.185 15.8433 14.5379 16.2667 14.8904 17.2546C16.69 22.4417 19.6896 26.9938 20.9246 26.9938C21.3833 26.9938 21.595 26.7821 21.595 25.6175V20.2542C21.4537 17.7842 20.1483 17.5725 20.1483 16.69C20.1483 16.2667 20.5012 15.8433 21.0658 15.8433H26.7821C27.5583 15.8433 27.8404 16.2667 27.8404 17.1842V24.4179C27.8404 25.1942 28.1933 25.4762 28.405 25.4762C28.8637 25.4762 29.2521 25.1942 30.0987 24.3471C32.71 21.4183 34.58 16.9021 34.58 16.9021C34.8271 16.3725 35.2504 15.8787 36.1679 15.8787H39.8025C40.8962 15.8787 41.1433 16.4433 40.8962 17.2196C40.4375 19.3367 35.9917 25.6175 35.9917 25.6175C35.6033 26.2525 35.4621 26.535 35.9917 27.2408C36.3796 27.77 37.65 28.8637 38.4967 29.8517C40.0496 31.6162 41.2492 33.0979 41.5667 34.1213C41.9196 35.1446 41.3904 35.6742 40.3671 35.6742Z" fill="#4A76A8"/>
</svg>
