<svg width="26" height="30" viewBox="0 0 26 30" fill="none" xmlns="http://www.w3.org/2000/svg">
<path d="M15.2158 12.2284C15.6118 12.8164 14.7158 13.4124 14.3237 12.8244C11.8395 9.1122 9.37129 5.39197 6.84707 1.70375C6.37503 1.01171 5.58296 0.891706 4.9109 1.34373C4.24685 1.79176 4.06283 2.56781 4.52287 3.25585L11.9795 14.3965C12.3716 14.9805 11.4795 15.5806 11.0874 14.9925L5.10692 6.05601C4.62688 5.36397 3.82681 5.19996 3.13875 5.65999C2.47069 6.10402 2.29868 6.87206 2.75872 7.5561L8.77124 16.5406C9.16327 17.1287 8.27119 17.7247 7.87916 17.1367L3.50678 10.6043C3.04674 9.94424 2.27468 9.90824 1.66662 10.3283C1.07457 10.7403 0.874555 11.4243 1.33059 12.0404C3.91882 15.9086 7.41912 22.001 10.1914 25.3852C11.4795 27.3173 16.0919 29.9694 18.2481 28.5413L21.9604 26.0532C24.4566 24.3811 24.6086 20.9129 24.3646 18.2087L22.9405 5.69199C22.8525 4.92395 22.3964 4.2199 21.5763 4.26791C20.9443 4.30391 20.5003 4.77994 20.5163 5.42397L20.6643 13.6125C20.6723 14.1405 19.9802 14.3645 19.6842 13.9205L11.6635 1.89177C11.1954 1.19572 10.4114 1.08372 9.73932 1.53174C9.06726 1.97577 8.87925 2.75582 9.33929 3.44786L15.2158 12.2284ZM8.19119 1.77176C8.3912 1.30773 8.72323 0.923708 9.14327 0.639691C10.3034 -0.144356 11.7515 0.099659 12.5516 1.29573L19.5602 11.8044L19.4442 5.44798C19.4202 4.2159 20.3082 3.26385 21.5163 3.19584C22.9045 3.11584 23.8525 4.2159 24.0046 5.57198L25.4327 18.1127C25.7127 21.2489 25.4287 25.0251 22.5604 26.9453L18.8441 29.4294C16.1239 31.2295 10.9234 28.4093 9.29928 25.9812L0.462519 12.6724C-0.361552 11.5483 -0.037524 10.2043 1.06257 9.44421C1.45861 9.1722 1.93465 9.00019 2.41869 8.98019L1.86664 8.15214C1.06657 6.95607 1.3746 5.54398 2.5467 4.76794C2.95874 4.49192 3.45478 4.33191 3.95082 4.32791L3.63079 3.85188C2.83072 2.65581 3.15475 1.23573 4.31485 0.45568C5.48295 -0.328366 6.91508 -0.0923524 7.73115 1.09972L8.19119 1.77176Z"/>
</svg>
