<svg width="128" height="128" viewBox="0 0 128 128" fill="none" xmlns="http://www.w3.org/2000/svg">
<circle cx="64" cy="64" r="64" fill="#E5E5E5"/>
<path transform="translate(22,24)"  d="M70.6033 59.7779L55.7154 55.355L55.5019 54.5125C55.2203 53.7433 54.6975 53.0809 54.0137 52.62L52.5255 51.567L53.8002 50.3033C54.8707 49.2319 55.802 48.0293 56.5662 46.7259C58.24 44.3847 59.5982 41.836 60.6069 39.1468C61.0307 38.0968 61.4577 37.0437 61.8815 35.9907L62.095 35.5664L62.5189 35.3588C63.5646 34.5469 64.1896 33.3137 64.2206 32.0012V27.5813C64.267 26.6626 63.9638 25.7621 63.3697 25.054L62.7231 24.6297V17.8931C62.7231 17.8778 62.7231 17.8656 62.7231 17.8503C62.7231 8.06439 54.5644 0.00915715 44.6453 0H38.2811C28.362 0.00915715 20.2033 8.06439 20.2033 17.8503C20.2033 17.8656 20.2033 17.8778 20.2033 17.8931V24.6297L19.9929 25.0509C19.4298 25.7743 19.1297 26.6656 19.1421 27.5783V31.9981C19.173 33.3107 19.798 34.5438 20.8438 35.3558L21.2676 35.5633L21.4811 35.9876C21.8122 37.0742 22.2391 38.1304 22.7558 39.1438C23.8046 41.8146 25.1598 44.3572 26.7965 46.7228C27.6473 47.9865 28.7116 49.2502 29.5624 50.3002L30.8371 51.5639L29.349 52.617C28.6652 53.0779 28.1423 53.7403 27.8608 54.5095L27.6473 55.3519L12.7593 59.7748C8.50828 61.0355 3.6168 69.6326 0 89C12.6913 96.3929 21 103.992 41.8917 103.992C43.7357 104.025 45.5828 103.958 47.4206 103.784C65.5 102.072 72.8773 95.526 84 89C79.9593 70.0416 75.0678 61.0385 70.6033 59.7779Z" fill="#B0B0B0"/>
</svg>
