<svg width="35" height="30" viewBox="0 0 35 30" fill="none" xmlns="http://www.w3.org/2000/svg">
<path d="M30.4785 6.86127H15.4559C15.0226 2.99729 11.7364 0 7.76407 0C3.50286 0 0 3.46675 0 7.76407C0 11.7364 2.99729 15.0226 6.86127 15.4559V29.1062C6.86127 29.4312 7.04183 29.7201 7.29461 29.8646C7.58351 30.009 7.90852 30.009 8.19741 29.8646L11.0503 28.2034L13.9031 29.8646C14.192 30.0451 14.517 30.0451 14.8059 29.8646L17.6587 28.2034L20.5116 29.8646C20.656 29.9368 20.8005 29.9729 20.9449 29.9729C21.0894 29.9729 21.2699 29.9368 21.3783 29.8646L24.2311 28.2034L27.084 29.8646C27.3729 30.009 27.6979 30.0451 27.9868 29.8646C28.2757 29.7201 28.4201 29.4312 28.4201 29.1062V18.4532H33.4035C33.873 18.4532 34.2702 18.056 34.2702 17.5865V10.6891C34.3063 8.55853 32.6091 6.86127 30.4785 6.86127ZM1.76949 7.72796C1.76949 4.44177 4.44177 1.73337 7.76407 1.73337C11.0503 1.73337 13.7587 4.40566 13.7587 7.72796C13.7587 11.0141 11.0864 13.7225 7.76407 13.7225C4.44177 13.7225 1.76949 11.0503 1.76949 7.72796ZM26.6506 10.6891V27.5534L24.6645 26.3978C24.3756 26.2173 24.0506 26.2173 23.7617 26.3978L20.9088 28.059L18.056 26.3978C17.7671 26.2173 17.4421 26.2173 17.1532 26.3978L14.3003 28.059L11.4475 26.3978C11.303 26.3256 11.1586 26.2895 11.0141 26.2895C10.8697 26.2895 10.6891 26.3256 10.5808 26.3978L8.59464 27.5534V15.4559C12.1697 15.0587 15.0226 12.2058 15.4198 8.63076H27.2645C26.9034 9.20855 26.6506 9.93079 26.6506 10.6891ZM32.5369 16.6837H28.4201V10.6891C28.4201 9.56967 29.359 8.63076 30.4785 8.63076C31.598 8.63076 32.5369 9.56967 32.5369 10.6891V16.6837Z"/>
<path d="M8.41093 12.0253V11.2309C9.34984 11.0503 10.0721 10.292 10.1443 9.38915C10.2165 8.81136 9.99985 8.23357 9.60262 7.80023C9.20539 7.36688 8.66371 7.1141 8.04981 7.1141H7.39979C7.18312 7.1141 6.96645 7.00576 6.822 6.86132C6.67755 6.68076 6.60533 6.5002 6.64144 6.24741C6.67755 5.85018 7.03867 5.56129 7.47202 5.56129H8.23037C8.48315 5.56129 8.69982 5.74185 8.73593 5.95852C8.77205 6.06685 8.84427 6.13908 8.9526 6.13908H9.81929C9.89152 6.13908 9.96374 6.10297 9.99985 6.06685C10.036 6.03074 10.0721 5.95852 10.0721 5.88629C9.99985 5.01961 9.31372 4.33348 8.44704 4.26126V3.46679C8.44704 3.32235 8.3387 3.25012 8.23037 3.25012H7.39979C7.25534 3.25012 7.18312 3.35846 7.18312 3.46679V4.26126C6.09976 4.44182 5.34141 5.41684 5.44975 6.53631C5.55808 7.58356 6.49699 8.41413 7.61646 8.41413H8.15814C8.37481 8.41413 8.59149 8.52247 8.73593 8.66691C8.88038 8.84747 8.95261 9.02803 8.91649 9.28082C8.88038 9.67805 8.51926 9.96694 8.08592 9.96694H7.32757C7.07478 9.96694 6.85811 9.78638 6.822 9.56971C6.78589 9.46138 6.71366 9.38915 6.60533 9.38915H5.73864C5.66642 9.38915 5.59419 9.42526 5.55808 9.46138C5.52197 9.49749 5.48586 9.56971 5.48586 9.64194C5.55808 10.5086 6.24421 11.1948 7.1109 11.267V12.0614C7.1109 12.2059 7.21923 12.2781 7.32757 12.2781H8.15814C8.30259 12.242 8.41093 12.1337 8.41093 12.0253Z"/>
<path d="M22.7495 21.3782H12.5659C12.0964 21.3782 11.6992 21.7754 11.6992 22.2449C11.6992 22.7143 12.0964 23.1115 12.5659 23.1115H22.7495C23.2189 23.1115 23.6162 22.7143 23.6162 22.2449C23.6162 21.7754 23.2189 21.3782 22.7495 21.3782Z"/>
<path d="M22.7495 16.6837H12.5659C12.0964 16.6837 11.6992 17.0809 11.6992 17.5503C11.6992 18.0198 12.0964 18.417 12.5659 18.417H22.7495C23.2189 18.417 23.6162 18.0198 23.6162 17.5503C23.6162 17.0809 23.2189 16.6837 22.7495 16.6837Z"/>
<path d="M17.9077 13.7586H22.7467C23.2162 13.7586 23.6134 13.3613 23.6134 12.8919C23.6134 12.4224 23.2162 12.0252 22.7467 12.0252H17.9077C17.4382 12.0252 17.041 12.4224 17.041 12.8919C17.041 13.3613 17.4021 13.7586 17.9077 13.7586Z"/>
</svg>
