<svg width="30" height="20" viewBox="0 0 30 20" fill="none" xmlns="http://www.w3.org/2000/svg">
<path d="M2.30751 0C2.00121 0 1.70909 0.0608464 1.44212 0.16827L14.3148 11.6347C14.7635 12.0348 15.2614 12.0344 15.7091 11.6347L28.5577 0.16827C28.2907 0.0608464 27.9986 0 27.6923 0H2.30751ZM0.0238464 1.98316C0.00923094 2.08831 0 2.19843 0 2.3077V17.6924C0 18.008 0.0665776 18.3083 0.180309 18.5818L9.06256 10.0481L0.0240386 1.98316H0.0238464ZM29.976 1.98316L20.9615 10.0361L29.8317 18.5698C29.9418 18.3 30 18.0027 30 17.6924V2.3077C30 2.19843 29.9904 2.08831 29.9762 1.98316H29.976ZM19.2307 11.5866L17.2475 13.3655C15.9868 14.4913 14.037 14.4894 12.7764 13.3655L10.7931 11.5986L2.04309 19.9881C2.12859 19.9977 2.2194 20 2.30751 20H27.6923C27.7763 20 27.8631 19.9962 27.9447 19.9881L19.2307 11.5866Z"/>
</svg>
