<svg width="30" height="26" viewBox="0 0 30 26" fill="none" xmlns="http://www.w3.org/2000/svg">
<path d="M4.18544 25.0206C4.31736 25.0206 4.44998 24.9856 4.57035 24.9146C7.25147 23.3249 11.0534 22.4133 15.0005 22.4133C18.9466 22.4133 22.7489 23.3249 25.4314 24.9146C25.7477 25.1011 26.1519 25.0342 26.3909 24.756C28.7179 22.0399 30 18.575 30 15.0005C30 6.72938 23.2713 0 15.0005 0C6.72973 0 0 6.72938 0 15.0005C0 18.5764 1.28212 22.0413 3.61121 24.7567C3.75888 24.9296 3.97058 25.0206 4.18544 25.0206ZM13.1323 13.443C14.0015 12.6672 21.4061 8.61065 21.678 8.48083C21.7886 8.42764 21.9233 8.45354 22.0073 8.54696C22.0892 8.64004 22.1018 8.77582 22.036 8.88114C21.8761 9.13729 17.1193 16.1574 16.2505 16.9332C15.8211 17.3167 15.2682 17.5277 14.6922 17.5277C14.0267 17.5277 13.3902 17.2432 12.9468 16.7459C12.0874 15.7844 12.1707 14.3021 13.1323 13.443Z"/>
<rect x="1" y="15" width="4" height="1" rx="0.5" fill="white"/>
<rect x="25" y="15" width="4" height="1" rx="0.5" fill="white"/>
<rect x="22" y="7.82837" width="4" height="1" rx="0.5" transform="rotate(-45 22 7.82837)" fill="white"/>
<rect width="4" height="1" rx="0.5" transform="matrix(-0.707107 -0.707107 -0.707107 0.707107 8.53516 7.82837)" fill="white"/>
<rect x="14" y="5" width="4" height="1" rx="0.5" transform="rotate(-90 14 5)" fill="white"/>
</svg>
