<svg width="30" height="14" viewBox="0 0 30 14" fill="none" xmlns="http://www.w3.org/2000/svg">
<path d="M0.697282 12.0179C0.328132 12.0179 0 12.346 0 12.7152C0 13.0843 0.328132 13.4125 0.697282 13.4125H7.67012H16.5707H22.6002C22.7643 13.4125 22.9283 13.3304 23.0924 13.2484L29.6961 7.21894C29.9832 6.97284 30.0242 6.52165 29.7371 6.23453C29.491 5.94741 29.0398 5.90641 28.7527 6.19352L22.3541 12.0179H17.309V10.4182H22.6412C22.8053 10.4182 22.9693 10.3362 23.1334 10.2542L29.7371 4.22471C30.0242 3.97861 30.0652 3.52743 29.7781 3.24032C29.532 2.9532 29.0808 2.91218 28.7937 3.1993L22.3951 9.02367H17.3501V7.42402H22.6822C22.8463 7.42402 23.0104 7.34198 23.1744 7.25995L29.7781 1.2305C29.9832 1.02542 30.0652 0.738303 29.9422 0.451186C29.8191 0.164069 29.573 0 29.2859 0H7.383C7.21894 0 7.05487 0.0820309 6.8908 0.164064L0.287116 6.19352C0.0820321 6.39861 -5.01181e-06 6.68572 0.123045 6.97284C0.246095 7.25995 0.492198 7.42402 0.779315 7.42402H7.05487V9.02367H0.779315C0.410164 9.02367 0.0820321 9.3518 0.0820321 9.72095C0.0820321 10.0901 0.410164 10.4182 0.779315 10.4182H7.05487V12.0179H0.697282ZM15.8324 12.0179H8.3674V7.42402H15.8324V12.0179ZM27.3581 1.39456L22.3131 5.98844H17.6782L22.7232 1.39456H27.3581ZM20.6314 1.39456L15.5863 5.98844H9.31079L14.3558 1.39456H20.6314ZM2.50201 5.98844L7.54707 1.39456H12.264L7.21893 5.98844H2.50201Z"/>
</svg>
