<svg width="24" height="30" viewBox="0 0 24 30" fill="#0495FB" xmlns="http://www.w3.org/2000/svg">
<path d="M14.9011 6.21568L18.8319 1.12137C18.2463 1.04211 17.7024 0.865895 17.3281 0.538737C16.9363 0.196105 16.3293 0 15.6627 0C14.9972 0 14.3899 0.196105 13.9987 0.538737C13.5204 0.956526 12.7969 1.19589 12.0145 1.19589C11.2311 1.19589 10.5073 0.956526 10.0307 0.538737C9.63777 0.196105 9.03083 0 8.36495 0C7.69941 0 7.09212 0.196421 6.6999 0.538737C6.32078 0.870632 5.7676 1.04905 5.17168 1.12516L9.09045 6.20463C9.99897 5.94411 10.9799 5.79379 12.0538 5.79379C13.0499 5.79411 13.9905 5.96463 14.9011 6.21568ZM10.5777 15.1598V15.3167C10.5777 15.9445 10.9389 16.164 11.7946 16.6664L14.0208 17.9845C15.3208 18.7535 15.5435 19.4122 15.5435 20.8718C15.5435 22.5351 14.5171 23.5538 12.9579 23.8364V24.8081C12.9579 25.0592 12.7524 25.2474 12.496 25.2474H11.521C11.2646 25.2474 11.0591 25.0592 11.0591 24.8081V23.8522C9.51714 23.5696 8.45662 22.5666 8.45662 20.8718V20.1812C8.45662 19.9459 8.67893 19.7416 8.95259 19.7416H10.0476C10.3212 19.7416 10.5435 19.9456 10.5435 20.1812V20.8718C10.5435 21.672 11.1277 22.2682 11.9828 22.2682C12.9234 22.2682 13.4221 21.7352 13.4221 20.8718V20.5892C13.4221 19.8676 12.9065 19.6478 12.1882 19.2085L9.73944 17.7489C8.69616 17.1215 8.45662 16.1485 8.45662 15.2539C8.45662 13.5909 9.4489 12.4933 11.0591 12.1955V11.2547C11.0591 11.004 11.2646 10.8158 11.521 10.8158H12.496C12.7524 10.8158 12.9579 11.004 12.9579 11.2547V12.1955C14.4826 12.4778 15.5435 13.4653 15.5435 15.1598V15.5049C15.5435 15.7405 15.3208 15.9448 15.0475 15.9448H13.9529C13.6789 15.9448 13.4569 15.7408 13.4569 15.5049V15.1598C13.4569 14.3596 12.9582 13.7634 12.0173 13.7634C11.0764 13.7634 10.5777 14.2967 10.5777 15.1598ZM23.7216 20.8933C22.2733 13.4665 18.4969 7.19147 12.0542 7.19147C5.60871 7.19147 2.4737 13.2215 0.385065 20.8933C-1.24931 26.8974 2.25932 30 12.0545 30C22.528 30 24.9096 26.9924 23.7216 20.8933Z"/>
</svg>
