<svg width="18" height="22" viewBox="0 0 18 22" fill="none" xmlns="http://www.w3.org/2000/svg">
<path d="M5.4236 22C5.27948 22 5.13536 21.9415 5.02916 21.8288C4.58704 21.3596 4.06581 20.9944 3.51423 20.6097C1.86602 19.4578 0 18.1487 0 13.7232V10.4723C0 6.9732 1.59945 6.67953 3.23574 6.67953C3.53482 6.67953 3.77756 6.92335 3.77756 7.22135C3.77756 7.51935 3.53482 7.76317 3.23574 7.76317C1.98631 7.76317 1.08364 7.76317 1.08364 10.4723V13.7232C1.08364 17.5853 2.56605 18.6223 4.13516 19.7233C4.70732 20.1242 5.30007 20.5382 5.81913 21.0887C6.02285 21.3065 6.01418 21.6521 5.79637 21.8548C5.69018 21.9512 5.55689 22 5.4236 22Z"/>
<path d="M3.79182 11.0119C3.49273 11.0119 3.25 10.7681 3.25 10.4701V2.83481C3.25 1.45642 4.16134 0.455139 5.41727 0.455139C6.11297 0.455139 6.70355 0.758557 7.09149 1.26137C7.36782 1.28412 7.58455 1.5171 7.58455 1.80102V2.80663H6.50091C6.50091 2.22255 6.21591 1.53878 5.41727 1.53878C4.66848 1.53878 4.33364 2.19221 4.33364 2.83481V10.4701C4.33364 10.7681 4.08982 11.0119 3.79182 11.0119Z"/>
<path d="M13.5447 4.51011C13.2456 4.51011 13.0029 4.26629 13.0029 3.96829V2.3515C13.0029 1.78259 12.7179 1.11507 11.9192 1.11507C11.1737 1.11507 10.8356 1.80643 10.8356 2.44686V2.88465C10.8356 3.18265 10.5918 3.42647 10.2938 3.42647C9.99469 3.42647 9.75195 3.18265 9.75195 2.88465V2.44578C9.75195 1.06956 10.6817 0.0314331 11.9192 0.0314331C13.1752 0.0314331 14.0865 1.00562 14.0865 2.35042V3.9672C14.0865 4.26629 13.8427 4.51011 13.5447 4.51011Z"/>
<path d="M7.0428 4.5101C6.74371 4.5101 6.50098 4.26628 6.50098 3.96828V2.38075C6.50098 1.00128 7.41232 0 8.66825 0C9.61318 0 10.362 0.562408 10.6773 1.42065C10.7748 1.51818 10.8355 1.65471 10.8355 1.80426V2.35474H9.75189C9.75189 1.7685 9.46689 1.08689 8.66825 1.08689C7.91946 1.08689 7.58461 1.74032 7.58461 2.38292V3.96936C7.58461 4.26628 7.3408 4.5101 7.0428 4.5101Z"/>
<path d="M16.7957 5.59372C16.4966 5.59372 16.2538 5.3499 16.2538 5.0519V3.94659C16.2538 3.26932 15.8822 2.58338 15.1702 2.58338C14.3716 2.58338 14.0866 3.20213 14.0866 3.78296V3.96718C14.0866 4.26518 13.8427 4.509 13.5447 4.509C13.2457 4.509 13.0029 4.26518 13.0029 3.96718V3.78621C13.0029 2.44034 13.8926 1.50082 15.1702 1.50082C16.4055 1.50082 17.3375 2.5552 17.3375 3.94768V5.05407C17.3375 5.3499 17.0937 5.59372 16.7957 5.59372Z"/>
<path d="M13.9815 21.2111C13.8449 21.2111 13.7084 21.1602 13.6033 21.0561C13.3887 20.8481 13.3844 20.5035 13.5935 20.29C16.4229 17.3902 16.2549 13.4663 16.2528 13.4284V3.96827C16.2528 3.67027 16.4955 3.42645 16.7946 3.42645C17.0926 3.42645 17.3364 3.67027 17.3364 3.96827V13.4002C17.3451 13.5498 17.5401 17.7998 14.3694 21.0486C14.2643 21.1558 14.1234 21.2111 13.9815 21.2111Z"/>
<path d="M7.0428 5.59373C6.74371 5.59373 6.50098 5.34992 6.50098 5.05192V1.801C6.50098 1.503 6.74371 1.25919 7.0428 1.25919C7.3408 1.25919 7.58461 1.503 7.58461 1.801V5.05192C7.58461 5.34992 7.3408 5.59373 7.0428 5.59373Z"/>
<path d="M10.2938 5.59373C9.99469 5.59373 9.75195 5.34992 9.75195 5.05192V1.801C9.75195 1.503 9.99469 1.25919 10.2938 1.25919C10.5918 1.25919 10.8356 1.503 10.8356 1.801V5.05192C10.8356 5.34992 10.5918 5.59373 10.2938 5.59373Z"/>
<path d="M13.5447 5.59373C13.2457 5.59373 13.0029 5.34991 13.0029 5.05191V3.96827C13.0029 3.67027 13.2457 3.42645 13.5447 3.42645C13.8427 3.42645 14.0866 3.67027 14.0866 3.96827V5.05191C14.0866 5.34991 13.8427 5.59373 13.5447 5.59373Z"/>
</svg>
