<svg width="30" height="30" viewBox="0 0 30 30" fill="none" xmlns="http://www.w3.org/2000/svg">
<path fill-rule="evenodd" clip-rule="evenodd" d="M16.5 16.2435V18H13.5V16.023C13.5 14.823 14.277 13.7835 15.4305 13.4385C16.0605 13.248 16.5 12.657 16.5 12C16.5 11.2005 15.798 10.5 15 10.5C14.172 10.5 13.5 11.1735 13.5 12H10.5C10.5 9.519 12.519 7.5 15 7.5C17.439 7.5 19.5 9.561 19.5 12C19.5 13.899 18.2775 15.6135 16.5 16.2435ZM15 22.5C14.172 22.5 13.5 21.828 13.5 21C13.5 20.172 14.172 19.5 15 19.5C15.828 19.5 16.5 20.172 16.5 21C16.5 21.828 15.828 22.5 15 22.5ZM15 0C6.7155 0 0 6.714 0 15C0 23.2845 6.7155 30 15 30C23.2845 30 30 23.2845 30 15C30 6.714 23.2845 0 15 0Z"/>
</svg>
