<svg width="30" height="31" viewBox="0 0 30 31" fill="none" xmlns="http://www.w3.org/2000/svg">
<path d="M7.6235 0.412869C5.31729 1.79275 3.35416 3.84911 2.02317 6.27905C0.660416 8.76621 -0.05114 11.6673 0.00286199 14.5415C0.0536874 17.2171 0.73983 19.8692 2.00094 22.1915C3.21757 24.4296 4.96469 26.3277 7.01677 27.7143C9.1419 29.1481 11.6038 29.9424 14.1133 30.1207C15.3998 30.2116 16.6927 30.0904 17.9569 29.838C19.1831 29.5923 20.3553 29.1447 21.4861 28.586C22.6138 28.0307 23.6303 27.297 24.5928 26.4691C25.5458 25.6513 26.3431 24.6954 27.0833 23.6622C27.7345 22.7569 28.2745 21.764 28.7002 20.7173C29.1989 19.4855 29.5928 18.2403 29.7865 16.9109C29.9898 15.4973 30.0756 14.0838 29.92 12.6602C29.7643 11.213 29.4848 9.80617 28.9638 8.45657C28.4556 7.14064 27.8488 5.90547 27.0293 4.77464C26.5782 4.14865 26.1112 3.54285 25.5839 2.98753C25.0598 2.43894 24.4912 1.95093 23.9067 1.47975C23.4493 1.10954 22.9728 0.77635 22.474 0.470083C22.0452 0.207569 21.4861 0.126795 21.0065 0.268149C20.5649 0.396041 20.0852 0.759522 19.8661 1.19705C19.631 1.66486 19.5166 2.23364 19.6755 2.75194C19.8279 3.25004 20.1138 3.69093 20.5522 3.96018C21.07 4.27654 21.5655 4.62656 22.0388 5.0136C21.9118 4.90927 21.7815 4.80157 21.6545 4.69724C22.5471 5.43093 23.3476 6.27905 24.0401 7.22478C23.9416 7.09015 23.84 6.95217 23.7415 6.81754C24.4245 7.7599 24.9931 8.78977 25.4314 9.88358C25.3679 9.72203 25.3044 9.56048 25.2408 9.4023C25.6919 10.5365 25.9969 11.7313 26.1525 12.953C26.1303 12.7746 26.1081 12.5962 26.0858 12.4145C26.2383 13.6463 26.2383 14.8983 26.0826 16.1301C26.1049 15.9517 26.1271 15.7733 26.1494 15.5916C25.9937 16.8065 25.6856 17.9946 25.2377 19.1254C25.3012 18.9639 25.3647 18.8023 25.4283 18.6441C24.9867 19.7481 24.4118 20.7846 23.7193 21.7337C23.8177 21.5991 23.9194 21.4611 24.0179 21.3265C23.3381 22.2554 22.5503 23.0901 21.6735 23.8103C21.8006 23.706 21.9308 23.5983 22.0579 23.4939C21.1621 24.2276 20.1837 24.8368 19.1418 25.3046C19.2943 25.2373 19.4468 25.17 19.5961 25.1027C18.5287 25.5772 17.4074 25.9037 16.2606 26.0686C16.429 26.045 16.5974 26.0215 16.7689 25.9979C15.5999 26.1628 14.4119 26.1628 13.2429 25.9979C13.4112 26.0215 13.5796 26.045 13.7511 26.0686C12.6044 25.9037 11.483 25.5772 10.4157 25.1027C10.5682 25.17 10.7207 25.2373 10.87 25.3046C9.82805 24.8368 8.84966 24.2276 7.95386 23.4939C8.08092 23.5983 8.21116 23.706 8.33823 23.8103C7.46149 23.0901 6.6737 22.2554 5.99391 21.3265C6.09238 21.4611 6.19403 21.5991 6.29251 21.7337C5.60001 20.7846 5.02505 19.7481 4.5835 18.6441C4.64703 18.8057 4.71056 18.9672 4.7741 19.1254C4.3262 17.9946 4.01807 16.8065 3.86242 15.5916C3.88465 15.77 3.90689 15.9483 3.92912 16.1301C3.77347 14.8983 3.77347 13.6496 3.92595 12.4178C3.90371 12.5962 3.88148 12.7746 3.85924 12.9563C4.01489 11.738 4.31984 10.5466 4.76774 9.4124C4.70421 9.57394 4.64068 9.73549 4.57715 9.89367C5.01869 8.7864 5.59366 7.74644 6.28615 6.79735C6.18768 6.93197 6.08603 7.06996 5.98755 7.20458C6.67052 6.27569 7.45831 5.43766 8.33505 4.71743C8.20799 4.82176 8.07775 4.92946 7.95068 5.03379C8.45894 4.61983 8.9926 4.24288 9.55168 3.90969C9.96464 3.66064 10.3014 3.1861 10.4284 2.70145C10.5555 2.21681 10.4983 1.57399 10.2378 1.14656C9.97417 0.71577 9.58345 0.335461 9.09743 0.217666C8.586 0.0897742 8.08092 0.140258 7.6235 0.412869Z" fill="#0495FB"/>
<path d="M14.0022 1.52712C14.0022 1.85776 14.0022 2.1884 14.0022 2.51903C14.0022 3.31765 14.0022 4.11372 14.0022 4.91233C14.0022 5.87372 14.0022 6.83511 14.0022 7.79396C14.0022 8.62564 14.0022 13.4548 14.0022 14.2864C14.0022 14.6908 13.9972 15.0952 14.0022 15.5022C14.0022 15.5073 14.0022 15.5149 14.0022 15.52C14.0022 15.9117 14.1695 16.3211 14.4416 16.5984C14.7012 16.8629 15.1281 17.0613 15.5 17.046C15.8869 17.0282 16.2888 16.8985 16.5584 16.5984C16.828 16.3008 16.9978 15.932 16.9978 15.52C16.9978 15.1893 16.9978 14.8587 16.9978 14.5281C16.9978 13.7295 16.9978 8.93338 16.9978 8.13477C16.9978 7.17338 16.9978 6.21199 16.9978 5.25314C16.9978 4.42147 16.9978 3.59233 16.9978 2.76065C16.9978 2.35626 17.0028 1.95187 16.9978 1.54493C16.9978 1.53984 16.9978 1.53221 16.9978 1.52712C16.9978 1.13545 16.8305 0.725967 16.5584 0.448741C16.2988 0.181689 15.8719 -0.0166934 15.5 0.00111015C15.1131 0.0189137 14.7112 0.148625 14.4416 0.448741C14.172 0.746314 14.0022 1.11256 14.0022 1.52712Z" fill="#0495FB"/>
</svg>
