<svg width="33" height="24" viewBox="0 0 33 24" fill="none" xmlns="http://www.w3.org/2000/svg">
<path d="M22 13.0848V15.402C22 15.701 21.8406 16 21.5749 16H11.4251C11.2126 16 11 15.7757 11 15.402V13.0848C11 10.2443 12.6473 8.00176 14.6135 8.00176H18.3333C20.4058 7.92701 22 10.2443 22 13.0848Z"/>
<path d="M13 3.5C13 1.55556 14.5556 0 16.5 0C18.4444 0 20 1.55556 20 3.5C20 5.44444 18.4444 7 16.5 7C14.5556 7 13 5.44444 13 3.5Z"/>
<path d="M8 21.7963V23.5311C8 23.755 7.88406 23.9788 7.69082 23.9788H2.4C2.24541 23.9788 0 24.4067 0 21.4119V20.9841C0 18.8575 1.19807 17.9907 2.62802 17.9907H5.33333C6.84058 17.9348 8 19.6696 8 21.7963Z"/>
<path d="M1.59961 14.5669C1.59961 13.1408 2.66628 12 3.99961 12C5.33294 12 6.39961 13.1408 6.39961 14.5669C6.39961 15.993 5.33294 17.1338 3.99961 17.1338C2.66628 17.1338 1.59961 15.993 1.59961 14.5669Z"/>
<path d="M25 21.7963V23.5311C25 23.755 25.1159 23.9788 25.3092 23.9788H30.6C30.7546 23.9788 33 24.4067 33 21.4119V20.9841C33 18.8575 31.8019 17.9907 30.372 17.9907H27.6667C26.1594 17.9348 25 19.6696 25 21.7963Z"/>
<path d="M31.4004 14.5669C31.4004 13.1408 30.3337 12 29.0004 12C27.6671 12 26.6004 13.1408 26.6004 14.5669C26.6004 15.993 27.6671 17.1338 29.0004 17.1338C30.3337 17.1338 31.4004 15.993 31.4004 14.5669Z"/>
<path d="M9 7C7.5 7 4.5 7.7 4.5 10.5"/>
<path d="M24 7C25.5 7 28.5 7.7 28.5 10.5"/>
</svg>
