<svg width="24" height="30" viewBox="0 0 24 30" fill="none" xmlns="http://www.w3.org/2000/svg">
<path d="M20.1724 17.2436L15.9187 15.9678L15.8577 15.7248C15.7772 15.5029 15.6278 15.3118 15.4325 15.1789L15.0073 14.8751L15.3715 14.5106C15.6773 14.2015 15.9434 13.8546 16.1618 13.4786C16.64 12.8033 17.0281 12.0681 17.3162 11.2924C17.4373 10.9895 17.5593 10.6857 17.6804 10.3819L17.7414 10.2595L17.8625 10.1997C18.1613 9.96544 18.3399 9.60972 18.3487 9.23111V7.95615C18.362 7.69112 18.2754 7.43138 18.1056 7.2271L17.9209 7.10472V5.16146C17.9209 5.15706 17.9209 5.15354 17.9209 5.14914C17.9209 2.32627 15.5898 0.00264149 12.7558 0H10.9375C8.10343 0.00264149 5.77238 2.32627 5.77238 5.14914C5.77238 5.15354 5.77238 5.15706 5.77238 5.16146V7.10472L5.71227 7.22622C5.55138 7.4349 5.46564 7.69201 5.46917 7.95527V9.23023C5.47801 9.60884 5.65657 9.96456 5.95536 10.1988L6.07646 10.2586L6.13746 10.381C6.23204 10.6945 6.35403 10.9991 6.50166 11.2915C6.80133 12.0619 7.18851 12.7954 7.65613 13.4777C7.89923 13.8423 8.20332 14.2068 8.44641 14.5097L8.81061 14.8742L8.38542 15.178C8.19006 15.3109 8.04066 15.502 7.96022 15.7239L7.89923 15.9669L3.64552 17.2427C2.43094 17.6064 1.03337 21.1284 0 26.7151C3.62608 28.8477 7.75779 29.98 11.9691 29.9976C12.4959 30.0073 13.0236 29.9879 13.5487 29.9377C17.2393 29.7053 20.8221 28.602 24 26.7195C22.8455 21.2508 21.448 17.6073 20.1724 17.2436Z"/>
</svg>
