<svg width="29" height="36" viewBox="0 0 29 36" fill="none" xmlns="http://www.w3.org/2000/svg">
<path opacity="0.9" d="M23.16 0H0V36H28.8V6.6L23.16 0ZM22.92 1.44L27.24 6.48H22.92V1.44ZM27.66 34.8H1.2V1.14H21.72V7.68H27.66V34.8Z"/>
<path opacity="0.9" d="M20.2197 7.92002V7.02002H10.4397H5.21973V7.92002H10.4397H20.2197Z"/>
<path opacity="0.9" d="M20.2197 10.44V9.54001H10.4397H5.21973V10.44H10.4397H20.2197Z"/>
<path opacity="0.9" d="M20.2197 13.02V12.06H10.4397H5.21973V13.02H10.4397H20.2197Z"/>
<path opacity="0.9" d="M24.2399 29.16H4.91992V30.06H24.2399V29.16Z"/>
<path opacity="0.9" d="M9.06047 19.98H6.48047V29.4H9.06047V19.98Z" />
<path opacity="0.9" d="M17.5204 19.98H14.9404V29.4H17.5204V19.98Z"/>
<path opacity="0.9" d="M21.7802 17.52H19.2002V29.4H21.7802V17.52Z"/>
<path opacity="0.9" d="M13.2607 16.44H10.6807V29.34H13.2607V16.44Z"/>
</svg>
