<svg width="30" height="30" viewBox="0 0 30 30" fill="none" xmlns="http://www.w3.org/2000/svg">
<path fill-rule="evenodd" clip-rule="evenodd" d="M26.4225 16.4714C26.4947 15.9848 26.5355 15.494 26.5446 15.0021C26.551 14.5096 26.5101 14.0176 26.4225 13.5328L29.6846 11.0438C29.8237 10.9305 29.9185 10.7718 29.9524 10.5956C29.9863 10.4194 29.9571 10.237 29.87 10.0801L26.791 4.89241C26.6956 4.73485 26.548 4.6155 26.3738 4.55526C26.1997 4.49502 26.01 4.49757 25.8375 4.56245L22.0205 6.06181C21.2223 5.45031 20.341 4.95561 19.4033 4.59252L18.8194 0.629918C18.795 0.452551 18.7062 0.290445 18.5699 0.17432C18.4335 0.0581936 18.2593 -0.00385191 18.0802 0.000185331H11.9234C11.7422 0.000312645 11.5666 0.0632076 11.4264 0.17798C11.2863 0.292752 11.1901 0.452352 11.1542 0.629918L10.5693 4.59252C9.64082 4.97434 8.76233 5.4677 7.95317 6.06181L4.13608 4.56245C3.96301 4.50259 3.77486 4.50264 3.60177 4.56245C3.42868 4.62226 3.2807 4.73849 3.18156 4.89241L0.106915 10.0758C0.0124224 10.2306 -0.0210739 10.4151 0.0129862 10.5932C0.0470464 10.7714 0.146223 10.9306 0.291177 11.0397L3.55437 13.5285C3.43152 14.5042 3.43152 15.4915 3.55437 16.4672L0.291177 18.9561C0.152422 19.0698 0.0579721 19.2285 0.0242983 19.4046C-0.00937559 19.5808 0.0198656 19.7632 0.106915 19.92L3.18476 25.1077C3.28055 25.2652 3.42833 25.3842 3.60259 25.4444C3.77685 25.5047 3.96669 25.5022 4.13932 25.4375L7.95637 23.9381C8.75423 24.5496 9.6351 25.0443 10.5725 25.4074L11.1574 29.37C11.189 29.5497 11.2839 29.712 11.4251 29.8276C11.5662 29.9432 11.7442 30.0043 11.9266 29.9998H18.0834C18.2647 29.9998 18.4404 29.9372 18.5806 29.8224C18.7209 29.7076 18.817 29.5477 18.8527 29.37L19.4375 25.4074C20.3598 25.032 21.2291 24.5381 22.0237 23.9381L25.8707 25.4375C26.0438 25.4974 26.232 25.4973 26.4051 25.4375C26.5782 25.3777 26.7261 25.2616 26.8253 25.1077L29.9032 19.92C29.9907 19.7633 30.0201 19.5808 29.9864 19.4045C29.9527 19.2283 29.858 19.0695 29.7189 18.9561L26.4225 16.4714Z"/>
  <circle cx="15" cy="15" r="5" fill="#F9F9FB"/>
</svg>
