<svg width="14" height="13" viewBox="0 0 14 13" fill="none" xmlns="http://www.w3.org/2000/svg">
<path d="M13.5773 0.0228597L0.196348 5.50893C-0.0582185 5.61331 -0.0674643 5.98596 0.181561 6.10395L3.1397 7.50573C3.21982 7.54375 3.28066 7.6155 3.30703 7.70316L4.57619 11.9209C4.6403 12.1338 4.88687 12.2164 5.05758 12.0821L7.26669 10.3441C7.37219 10.2611 7.51648 10.2572 7.62597 10.3343L11.331 12.9445C11.5158 13.0746 11.7678 12.9642 11.8083 12.7353L13.9946 0.382352C14.0388 0.133025 13.8033 -0.0697926 13.5773 0.0228597ZM5.46877 8.10395L5.0696 10.4736L4.03917 7.0807L11.1036 2.5019L5.46877 8.10395Z" fill="#555555"/>
</svg>
