<svg width="1440" height="536" viewBox="0 0 1440 536" fill="none" xmlns="http://www.w3.org/2000/svg">
<path d="M1440 306.561V0H0.00012207V463.216C23.5369 450.683 116.733 425.619 301.221 425.619C531.831 425.619 771.831 523.468 1064.41 523.468C1298.48 523.468 1412.33 378.863 1440 306.561Z" fill="#F9F9FB"/>
<path d="M1064.41 523.468C1298.48 523.468 1412.33 378.863 1440 306.561V385.612C1357.75 491.173 1154.93 536 1064.41 536C674.93 536 487.136 447.309 301.221 447.309C152.488 447.309 38.4352 489.727 0.00012207 510.935V472.856C23.5369 460.324 116.733 425.619 301.221 425.619C531.831 425.619 771.831 523.468 1064.41 523.468Z" fill="#F3F4FA"/>
</svg>
