<svg width="109" height="50" viewBox="0 0 109 50" fill="none" xmlns="http://www.w3.org/2000/svg">
<path d="M75.0402 36.4455H69.9102L62.8002 19.6755C62.9802 21.1555 63.1152 22.4955 63.2052 23.6955C63.2952 24.8955 63.3402 26.3255 63.3402 27.9855V36.4455H59.7402V15.7155H64.7502L71.9802 32.5155C71.8602 31.7155 71.7402 30.6605 71.6202 29.3505C71.5002 28.0405 71.4402 26.7355 71.4402 25.4355V15.7155H75.0402V36.4455Z" fill="url(#paint0_linear)"/>
<path d="M93.2172 15.7155L92.7972 18.8655H87.3972V36.4455H83.4071V18.8655H77.8271V15.7155H93.2172Z" fill="url(#paint1_linear)"/>
<path d="M101.169 15.2657C102.629 15.2657 103.899 15.4757 104.979 15.8957C106.059 16.3157 107.069 16.9557 108.009 17.8157L106.059 20.0657C105.319 19.4457 104.574 18.9957 103.824 18.7157C103.074 18.4357 102.269 18.2957 101.409 18.2957C100.449 18.2957 99.6743 18.5107 99.0843 18.9407C98.4943 19.3707 98.1993 19.9757 98.1993 20.7557C98.1993 21.2757 98.3143 21.7057 98.5443 22.0457C98.7743 22.3857 99.1893 22.7057 99.7893 23.0057C100.389 23.3057 101.279 23.6357 102.459 23.9957C104.499 24.6357 106.034 25.4307 107.064 26.3807C108.094 27.3307 108.609 28.7157 108.609 30.5357C108.609 31.7757 108.294 32.8757 107.664 33.8357C107.034 34.7957 106.129 35.5457 104.949 36.0857C103.769 36.6257 102.369 36.8957 100.749 36.8957C99.1693 36.8957 97.7543 36.6407 96.5043 36.1307C95.2543 35.6207 94.1793 34.9257 93.2793 34.0457L95.3193 31.7657C96.1193 32.4457 96.9493 32.9607 97.8093 33.3107C98.6693 33.6607 99.6193 33.8357 100.659 33.8357C101.799 33.8357 102.719 33.5657 103.419 33.0257C104.119 32.4857 104.469 31.7257 104.469 30.7457C104.469 30.1457 104.349 29.6507 104.109 29.2607C103.869 28.8707 103.459 28.5207 102.879 28.2107C102.299 27.9007 101.459 27.5757 100.359 27.2357C98.1593 26.5557 96.5693 25.7357 95.5893 24.7757C94.6093 23.8157 94.1193 22.5557 94.1193 20.9957C94.1193 19.8557 94.4193 18.8557 95.0193 17.9957C95.6193 17.1357 96.4543 16.4657 97.5243 15.9857C98.5943 15.5057 99.8093 15.2657 101.169 15.2657Z" fill="url(#paint2_linear)"/>
<path d="M25.3176 29.2224C25.1009 29.5033 24.8942 29.7716 24.6867 30.0399C24.5376 30.2324 24.4709 30.4374 24.5992 30.6666C24.6534 30.7641 24.6684 30.8533 24.5742 30.9333C24.4717 31.0183 24.4117 30.9174 24.3501 30.8708C23.6892 30.3699 23.0309 29.8666 22.3734 29.3599C22.3101 29.3108 22.2001 29.2691 22.2409 29.1599C22.2826 29.0483 22.3776 29.0399 22.4901 29.0574C22.7584 29.0999 22.9409 28.9633 23.0942 28.7566C23.3476 28.4133 23.6059 28.0724 23.8734 27.7399C23.9826 27.6049 24.0167 27.5091 23.8867 27.3574C23.6334 27.0616 23.3992 26.7491 23.1717 26.4333C23.0559 26.2733 22.9876 26.2324 22.8509 26.4208C22.5201 26.8783 22.1684 27.3224 21.8242 27.7699C21.6767 27.9624 21.6017 28.1649 21.7292 28.3966C21.7809 28.4908 21.8092 28.5841 21.7126 28.6649C21.5934 28.7641 21.5284 28.6408 21.4592 28.5874C20.8076 28.0958 20.1592 27.5991 19.5126 27.1008C19.4484 27.0516 19.3384 27.0133 19.3734 26.9033C19.4092 26.7883 19.5026 26.7749 19.6167 26.7933C19.8842 26.8374 20.0676 26.7049 20.2226 26.4991C20.6617 25.9183 21.1034 25.3383 21.5542 24.7658C21.6726 24.6149 21.6917 24.5083 21.5634 24.3433C20.4976 22.9766 19.4409 21.6024 18.3809 20.2308C18.3609 20.2058 18.3326 20.1874 18.2659 20.1283V20.4974C18.2659 25.6899 18.2701 30.8824 18.2609 36.0749C18.2592 36.7524 18.4626 37.2841 19.0926 37.5899C19.3734 37.7266 19.2359 37.9649 19.2392 38.1524C19.2434 38.3874 19.0284 38.2699 18.9209 38.2708C17.0726 38.2791 15.2251 38.2791 13.3767 38.2708C13.2676 38.2708 13.0551 38.3833 13.0542 38.1574C13.0526 37.9683 12.9217 37.7283 13.1959 37.5899C13.8359 37.2683 14.0326 36.7166 14.0326 36.0324C14.0259 28.7024 14.0267 21.3724 14.0309 14.0424C14.0317 13.3316 13.8951 12.7258 13.1576 12.4049C12.9042 12.2949 13.0584 12.0216 13.0559 11.8299C13.0526 11.6333 13.2492 11.7266 13.3526 11.7258C15.5534 11.7199 17.7534 11.7199 19.9534 11.7258C20.0667 11.7266 20.2809 11.6283 20.2751 11.8508C20.2692 12.0533 20.4284 12.3158 20.0784 12.4474C19.6426 12.6116 19.4859 12.9616 19.5751 13.4149C19.6334 13.7158 19.7617 13.9874 19.9476 14.2291C21.5351 16.2891 23.1234 18.3483 24.7109 20.4074C24.7342 20.4374 24.7567 20.4674 24.7951 20.5183C25.0626 20.1683 25.3151 19.8408 25.5651 19.5116C25.6967 19.3374 25.7284 19.1416 25.6342 18.9441C25.5842 18.8399 25.5676 18.7591 25.6584 18.6766C25.7576 18.5866 25.8201 18.6833 25.8817 18.7299C26.5526 19.2374 27.2217 19.7483 27.8892 20.2608C27.9542 20.3099 28.0484 20.3566 27.9801 20.4699C27.9259 20.5599 27.8476 20.5699 27.7526 20.5491C27.4642 20.4849 27.2792 20.6324 27.1176 20.8499C26.8342 21.2333 26.5467 21.6149 26.2459 21.9858C26.1226 22.1366 26.1059 22.2391 26.2392 22.3991C26.5351 22.7533 26.8067 23.1266 27.1026 23.5116C27.5567 22.9191 27.9842 22.3633 28.4101 21.8066C28.5609 21.6108 28.6051 21.3991 28.4851 21.1749C28.4326 21.0774 28.4551 21.0074 28.5259 20.9408C28.6226 20.8491 28.6859 20.9458 28.7476 20.9924C29.4192 21.5008 30.0876 22.0116 30.7559 22.5233C30.8201 22.5733 30.9151 22.6199 30.8476 22.7333C30.7934 22.8233 30.7151 22.8333 30.6201 22.8124C30.3317 22.7483 30.1484 22.8966 29.9851 23.1124C29.5092 23.7449 29.0242 24.3699 28.5434 24.9991C28.4709 25.0949 28.3776 25.1716 28.4934 25.3199C29.5451 26.6741 30.5892 28.0341 31.6951 29.4708V29.0891C31.6951 24.0349 31.6926 18.9808 31.6992 13.9266C31.7001 13.2524 31.4992 12.7258 30.8517 12.4274C30.5659 12.2958 30.7301 12.0274 30.7226 11.8291C30.7151 11.6324 30.9159 11.7266 31.0184 11.7258C32.9042 11.7199 34.7901 11.7199 36.6767 11.7249C36.7801 11.7258 36.9734 11.6433 36.9592 11.8508C36.9459 12.0408 37.0992 12.2966 36.8359 12.4174C36.1534 12.7291 35.9767 13.2841 35.9776 13.9858C35.9876 21.3408 35.9876 28.6958 35.9776 36.0508C35.9767 36.7416 36.1667 37.2841 36.8159 37.5974C37.0917 37.7299 36.9626 37.9749 36.9559 38.1624C36.9476 38.3716 36.7392 38.2716 36.6251 38.2716C34.6259 38.2783 32.6276 38.2783 30.6284 38.2724C30.5126 38.2716 30.3059 38.3666 30.2976 38.1591C30.2892 37.9733 30.1717 37.7508 30.4451 37.5974C30.9767 37.3008 31.0784 36.8933 30.7601 36.3691C30.2501 35.5299 29.6034 34.7891 29.0084 34.0116C27.7867 32.4158 26.5559 30.8283 25.3176 29.2224Z" fill="url(#paint3_linear)"/>
<path fill-rule="evenodd" clip-rule="evenodd" d="M25.1617 0.000833333L25.3225 0.00166667L25.4842 0.005L25.645 0.00833333L25.8058 0.0125L25.9658 0.0183333L26.1258 0.025L26.2858 0.0325L26.445 0.0408333L26.6042 0.0508333L26.7633 0.0616667L26.9225 0.0733333L27.0808 0.0858333L27.2392 0.0991667L27.3967 0.113333L27.5542 0.129167L27.7117 0.145833L27.8692 0.163333L28.0258 0.181667L28.1825 0.200833L28.4942 0.2425L28.65 0.265L28.805 0.288333L28.96 0.3125L29.115 0.3375L29.2692 0.363333L29.4233 0.390833L29.5767 0.418333L29.73 0.4475L29.8833 0.4775L30.0358 0.508333L30.1883 0.54L30.34 0.5725L30.4917 0.605833L30.6433 0.640833L30.7942 0.675833L30.945 0.7125L31.095 0.749167L31.245 0.7875L31.3942 0.826667L31.5433 0.866667L31.6925 0.9075L31.8408 0.949167L31.9892 0.991667L32.1367 1.035L32.2842 1.07917L32.5775 1.17083L32.7233 1.2175L33.015 1.31417L33.16 1.36417L33.3042 1.41417L33.4483 1.46583L33.5925 1.51833L33.7358 1.57083L33.8783 1.625L34.1633 1.735L34.305 1.79167L34.5867 1.90667L34.7275 1.96583L34.8675 2.02583L35.0067 2.08583L35.1458 2.1475L35.4225 2.2725L35.56 2.33667L35.6975 2.40167L35.8342 2.46667L35.9708 2.53333L36.1067 2.6L36.2425 2.66833L36.3775 2.73667L36.5117 2.80583L36.6458 2.87667L36.7792 2.9475L36.9125 3.01917L37.045 3.09167L37.1767 3.165L37.3083 3.23917L37.44 3.31417L37.5708 3.39L37.7008 3.46667L37.83 3.54333L37.9592 3.62167L38.0875 3.7L38.2158 3.78L38.3433 3.86L38.4708 3.94083L38.5975 4.0225L38.7233 4.105L38.9733 4.27167L39.0983 4.35667L39.2217 4.44167L39.4683 4.615L39.5908 4.7025L39.7125 4.79083L39.9542 4.96917L40.0742 5.06L40.1933 5.15083L40.3125 5.2425L40.4308 5.335L40.6658 5.52167L40.7825 5.61667L40.8983 5.71167L41.0142 5.8075L41.1292 5.90417L41.2433 6.00167L41.3567 6.09917L41.47 6.19833L41.5825 6.2975L41.8058 6.4975L41.9167 6.59917L42.0267 6.70083L42.1358 6.80333L42.245 6.90667L42.3533 7.01083L42.4608 7.115L42.5675 7.22L42.6742 7.32583L42.78 7.4325L42.885 7.53917L42.9892 7.64667L43.0933 7.755L43.1967 7.86417L43.2992 7.97333L43.4008 8.08333L43.5025 8.19417L43.7025 8.4175L43.8017 8.53L43.9008 8.64333L43.9983 8.75667L44.0958 8.87083L44.1925 8.98583L44.2883 9.10167L44.3833 9.2175L44.4783 9.33417L44.665 9.56917L44.7575 9.6875L44.8492 9.80667L44.94 9.92583L45.0308 10.0458L45.2092 10.2875L45.2975 10.4092L45.385 10.5317L45.5583 10.7783L45.6433 10.9017L45.7283 11.0267L45.895 11.2767L45.9775 11.4025L46.0592 11.5292L46.14 11.6567L46.22 11.7842L46.3 11.9125L46.3783 12.0408L46.4567 12.17L46.5333 12.2992L46.61 12.4292L46.6858 12.56L46.7608 12.6917L46.835 12.8233L46.9083 12.955L46.9808 13.0875L47.0525 13.2208L47.1233 13.3542L47.1942 13.4883L47.2633 13.6225L47.3317 13.7575L47.4 13.8933L47.4667 14.0292L47.5333 14.1658L47.5983 14.3025L47.6633 14.44L47.7275 14.5775L47.8525 14.8542L47.9142 14.9933L47.9742 15.1325L48.0342 15.2725L48.0933 15.4133L48.2083 15.695L48.265 15.8367L48.375 16.1217L48.4292 16.2642L48.4817 16.4075L48.5342 16.5517L48.5858 16.6958L48.6358 16.84L48.6858 16.985L48.7825 17.2767L48.8292 17.4225L48.9208 17.7158L48.965 17.8633L49.0083 18.0108L49.0508 18.1592L49.0925 18.3075L49.1333 18.4567L49.1733 18.6058L49.2125 18.755L49.2508 18.905L49.2875 19.055L49.3242 19.2058L49.3592 19.3567L49.3942 19.5083L49.4275 19.66L49.46 19.8117L49.4917 19.9642L49.5225 20.1167L49.5525 20.27L49.5817 20.4233L49.6092 20.5767L49.6367 20.7308L49.6625 20.885L49.6875 21.04L49.7117 21.195L49.735 21.35L49.7575 21.5058L49.7992 21.8175L49.8183 21.9742L49.8367 22.1308L49.8542 22.2883L49.8708 22.4458L49.8867 22.6033L49.9008 22.7608L49.9142 22.9192L49.9267 23.0775L49.9383 23.2367L49.9492 23.3958L49.9592 23.555L49.9675 23.7142L49.975 23.8742L49.9817 24.0342L49.9875 24.1942L49.9917 24.355L49.995 24.5158L49.9983 24.6775L50 25L49.9992 25.1617L49.9983 25.3225L49.995 25.4842L49.9917 25.645L49.9875 25.8058L49.9817 25.9658L49.975 26.1258L49.9675 26.2858L49.9592 26.445L49.9492 26.6042L49.9383 26.7633L49.9267 26.9225L49.9142 27.0808L49.9008 27.2392L49.8867 27.3967L49.8708 27.5542L49.8542 27.7117L49.8367 27.8692L49.8183 28.0258L49.7992 28.1825L49.7783 28.3383L49.7575 28.4942L49.735 28.65L49.7117 28.805L49.6875 28.96L49.6625 29.115L49.6367 29.2692L49.6092 29.4233L49.5817 29.5767L49.5525 29.73L49.5225 29.8833L49.4917 30.0358L49.46 30.1883L49.4275 30.34L49.3942 30.4917L49.3592 30.6433L49.3242 30.7942L49.2875 30.945L49.2508 31.095L49.2125 31.245L49.1733 31.3942L49.1333 31.5433L49.0925 31.6925L49.0508 31.8408L49.0083 31.9892L48.965 32.1367L48.9208 32.2842L48.875 32.4308L48.8292 32.5775L48.7825 32.7233L48.7342 32.8692L48.6858 33.015L48.6358 33.16L48.5858 33.3042L48.5342 33.4483L48.4817 33.5925L48.4292 33.7358L48.375 33.8783L48.32 34.0208L48.265 34.1633L48.2083 34.305L48.1508 34.4458L48.0933 34.5867L48.0342 34.7275L47.9742 34.8675L47.9142 35.0067L47.8525 35.1458L47.79 35.2842L47.7275 35.4225L47.6633 35.56L47.5983 35.6975L47.5333 35.8342L47.4667 35.9708L47.4 36.1067L47.3317 36.2425L47.2633 36.3775L47.1942 36.5117L47.1233 36.6458L47.0525 36.7792L46.9808 36.9125L46.9083 37.045L46.835 37.1767L46.7608 37.3083L46.6858 37.44L46.61 37.5708L46.5333 37.7008L46.4567 37.83L46.3783 37.9592L46.3 38.0875L46.22 38.2158L46.14 38.3433L46.0592 38.4708L45.9775 38.5975L45.895 38.7233L45.8117 38.8483L45.7283 38.9733L45.6433 39.0983L45.5583 39.2217L45.4717 39.345L45.385 39.4683L45.2975 39.5908L45.2092 39.7125L45.12 39.8333L45.0308 39.9542L44.94 40.0742L44.8492 40.1933L44.7575 40.3125L44.665 40.4308L44.5717 40.5483L44.4783 40.6658L44.3833 40.7825L44.2883 40.8983L44.1925 41.0142L44.0958 41.1292L43.9983 41.2433L43.9008 41.3567L43.8017 41.47L43.7025 41.5825L43.6025 41.6942L43.5025 41.8058L43.4008 41.9167L43.2992 42.0267L43.1967 42.1358L43.0933 42.245L42.9892 42.3533L42.885 42.4608L42.78 42.5675L42.6742 42.6742L42.5675 42.78L42.4608 42.885L42.3533 42.9892L42.245 43.0933L42.1358 43.1967L42.0267 43.2992L41.9167 43.4008L41.8058 43.5025L41.6942 43.6025L41.5825 43.7025L41.47 43.8017L41.3567 43.9008L41.2433 43.9983L41.1292 44.0958L41.0142 44.1925L40.8983 44.2883L40.7825 44.3833L40.6658 44.4783L40.5483 44.5717L40.4308 44.665L40.3125 44.7575L40.1933 44.8492L40.0742 44.94L39.9542 45.0308L39.8333 45.12L39.7125 45.2092L39.5908 45.2975L39.4683 45.385L39.345 45.4717L39.2217 45.5583L39.0983 45.6433L38.9733 45.7283L38.8483 45.8117L38.7233 45.895L38.5975 45.9775L38.4708 46.0592L38.3433 46.14L38.2158 46.22L38.0875 46.3L37.9592 46.3783L37.83 46.4567L37.7008 46.5333L37.5708 46.61L37.44 46.6858L37.3083 46.7608L37.1767 46.835L37.045 46.9083L36.9125 46.9808L36.7792 47.0525L36.6458 47.1233L36.5117 47.1942L36.3775 47.2633L36.2425 47.3317L36.1067 47.4L35.9708 47.4667L35.8342 47.5333L35.6975 47.5983L35.56 47.6633L35.4225 47.7275L35.2842 47.79L35.1458 47.8525L35.0067 47.9142L34.8675 47.9742L34.7275 48.0342L34.5867 48.0933L34.4458 48.1508L34.305 48.2083L34.1633 48.265L34.0208 48.32L33.8783 48.375L33.7358 48.4292L33.5925 48.4817L33.4483 48.5342L33.3042 48.5858L33.16 48.6358L33.015 48.6858L32.8692 48.7342L32.7233 48.7825L32.5775 48.8292L32.4308 48.875L32.2842 48.9208L32.1367 48.965L31.9892 49.0083L31.8408 49.0508L31.6925 49.0925L31.5433 49.1333L31.3942 49.1733L31.245 49.2125L31.095 49.2508L30.945 49.2875L30.7942 49.3242L30.6433 49.3592L30.4917 49.3942L30.34 49.4275L30.1883 49.46L30.0358 49.4917L29.8833 49.5225L29.73 49.5525L29.5767 49.5817L29.4233 49.6092L29.2692 49.6367L29.115 49.6625L28.96 49.6875L28.805 49.7117L28.65 49.735L28.4942 49.7575L28.3383 49.7783L28.1825 49.7992L28.0258 49.8183L27.8692 49.8367L27.7117 49.8542L27.5542 49.8708L27.3967 49.8867L27.2392 49.9008L27.0808 49.9142L26.9225 49.9267L26.7633 49.9383L26.6042 49.9492L26.445 49.9592L26.2858 49.9675L26.1258 49.975L25.9658 49.9817L25.8058 49.9875L25.645 49.9917L25.4842 49.995L25.3225 49.9983L25.1617 49.9992L25 50L24.8383 49.9992L24.6775 49.9983L24.5158 49.995L24.355 49.9917L24.1942 49.9875L24.0342 49.9817L23.8742 49.975L23.7142 49.9675L23.555 49.9592L23.3958 49.9492L23.2367 49.9383L23.0775 49.9267L22.9192 49.9142L22.7608 49.9008L22.6033 49.8867L22.4458 49.8708L22.2883 49.8542L22.1308 49.8367L21.9742 49.8183L21.8175 49.7992L21.6617 49.7783L21.5058 49.7575L21.35 49.735L21.195 49.7117L21.04 49.6875L20.885 49.6625L20.7308 49.6367L20.5767 49.6092L20.4233 49.5817L20.27 49.5525L20.1167 49.5225L19.9642 49.4917L19.8117 49.46L19.66 49.4275L19.5083 49.3942L19.3567 49.3592L19.2058 49.3242L19.055 49.2875L18.905 49.2508L18.755 49.2125L18.6058 49.1733L18.4567 49.1333L18.3075 49.0925L18.1592 49.0508L18.0108 49.0083L17.8633 48.965L17.7158 48.9208L17.5692 48.875L17.4225 48.8292L17.2767 48.7825L17.1308 48.7342L16.985 48.6858L16.84 48.6358L16.6958 48.5858L16.5517 48.5342L16.4075 48.4817L16.2642 48.4292L16.1217 48.375L15.9792 48.32L15.8367 48.265L15.695 48.2083L15.5542 48.1508L15.4133 48.0933L15.2725 48.0342L15.1325 47.9742L14.9933 47.9142L14.8542 47.8525L14.7158 47.79L14.5775 47.7275L14.44 47.6633L14.3025 47.5983L14.1658 47.5333L14.0292 47.4667L13.8933 47.4L13.7575 47.3317L13.6225 47.2633L13.4883 47.1942L13.3542 47.1233L13.2208 47.0525L13.0875 46.9808L12.955 46.9083L12.8233 46.835L12.6917 46.7608L12.56 46.6858L12.4292 46.61L12.2992 46.5333L12.17 46.4567L12.0408 46.3783L11.9125 46.3L11.7842 46.22L11.6567 46.14L11.5292 46.0592L11.4025 45.9775L11.2767 45.895L11.1517 45.8117L11.0267 45.7283L10.9017 45.6433L10.7783 45.5583L10.655 45.4717L10.5317 45.385L10.4092 45.2975L10.2875 45.2092L10.1667 45.12L10.0458 45.0308L9.92583 44.94L9.80666 44.8492L9.6875 44.7575L9.56917 44.665L9.45166 44.5717L9.33417 44.4783L9.2175 44.3833L9.10167 44.2883L8.98583 44.1925L8.87083 44.0958L8.75667 43.9983L8.64333 43.9008L8.53 43.8017L8.4175 43.7025L8.30583 43.6025L8.19417 43.5025L8.08333 43.4008L7.97333 43.2992L7.86417 43.1967L7.755 43.0933L7.64667 42.9892L7.53917 42.885L7.4325 42.78L7.32583 42.6742L7.22 42.5675L7.115 42.4608L7.01083 42.3533L6.90667 42.245L6.80333 42.1358L6.70083 42.0267L6.59917 41.9167L6.4975 41.8058L6.3975 41.6942L6.2975 41.5825L6.19833 41.47L6.09917 41.3567L6.00167 41.2433L5.90417 41.1292L5.8075 41.0142L5.71167 40.8983L5.61667 40.7825L5.52167 40.6658L5.42833 40.5483L5.335 40.4308L5.2425 40.3125L5.15083 40.1933L5.06 40.0742L4.96917 39.9542L4.88 39.8333L4.79083 39.7125L4.7025 39.5908L4.615 39.4683L4.52833 39.345L4.44167 39.2217L4.35667 39.0983L4.27167 38.9733L4.18833 38.8483L4.105 38.7233L4.0225 38.5975L3.94083 38.4708L3.86 38.3433L3.78 38.2158L3.7 38.0875L3.62167 37.9592L3.54333 37.83L3.46667 37.7008L3.39 37.5708L3.31417 37.44L3.23917 37.3083L3.165 37.1767L3.09167 37.045L3.01917 36.9125L2.9475 36.7792L2.87667 36.6458L2.80583 36.5117L2.73667 36.3775L2.66833 36.2425L2.6 36.1067L2.53333 35.9708L2.46667 35.8342L2.40167 35.6975L2.33667 35.56L2.2725 35.4225L2.21 35.2842L2.1475 35.1458L2.08583 35.0067L2.02583 34.8675L1.96583 34.7275L1.90667 34.5867L1.84917 34.4458L1.79167 34.305L1.735 34.1633L1.68 34.0208L1.625 33.8783L1.57083 33.7358L1.51833 33.5925L1.46583 33.4483L1.41417 33.3042L1.36417 33.16L1.31417 33.015L1.26583 32.8692L1.2175 32.7233L1.17083 32.5775L1.125 32.4308L1.07917 32.2842L1.035 32.1367L0.991667 31.9892L0.949167 31.8408L0.9075 31.6925L0.866666 31.5433L0.826667 31.3942L0.7875 31.245L0.749167 31.095L0.7125 30.945L0.675833 30.7942L0.640833 30.6433L0.605833 30.4917L0.5725 30.34L0.54 30.1883L0.508333 30.0358L0.4775 29.8833L0.4475 29.73L0.418333 29.5767L0.390833 29.4233L0.363333 29.2692L0.3375 29.115L0.3125 28.96L0.288333 28.805L0.265 28.65L0.2425 28.4942L0.221667 28.3383L0.200833 28.1825L0.181667 28.0258L0.163333 27.8692L0.145833 27.7117L0.129167 27.5542L0.113333 27.3967L0.0991667 27.2392L0.0858333 27.0808L0.0733333 26.9225L0.0616667 26.7633L0.0508333 26.6042L0.0408333 26.445L0.0325 26.2858L0.025 26.1258L0.0183333 25.9658L0.0125 25.8058L0.00833333 25.645L0.005 25.4842L0.00166667 25.3225L0.000833333 25.1617L0 25L0.000833333 24.8383L0.00166667 24.6775L0.005 24.5158L0.00833333 24.355L0.0125 24.1942L0.0183333 24.0342L0.025 23.8742L0.0325 23.7142L0.0408333 23.555L0.0508333 23.3958L0.0616667 23.2367L0.0733333 23.0775L0.0858333 22.9192L0.0991667 22.7608L0.113333 22.6033L0.129167 22.4458L0.145833 22.2883L0.163333 22.1308L0.181667 21.9742L0.200833 21.8175L0.221667 21.6617L0.2425 21.5058L0.265 21.35L0.288333 21.195L0.3125 21.04L0.3375 20.885L0.363333 20.7308L0.390833 20.5767L0.418333 20.4233L0.4475 20.27L0.4775 20.1167L0.508333 19.9642L0.54 19.8117L0.5725 19.66L0.605833 19.5083L0.640833 19.3567L0.675833 19.2058L0.7125 19.055L0.749167 18.905L0.7875 18.755L0.826667 18.6058L0.866666 18.4567L0.9075 18.3075L0.949167 18.1592L0.991667 18.0108L1.035 17.8633L1.07917 17.7158L1.125 17.5692L1.17083 17.4225L1.2175 17.2767L1.26583 17.1308L1.31417 16.985L1.36417 16.84L1.41417 16.6958L1.46583 16.5517L1.51833 16.4075L1.57083 16.2642L1.625 16.1217L1.68 15.9792L1.735 15.8367L1.79167 15.695L1.84917 15.5542L1.90667 15.4133L1.96583 15.2725L2.02583 15.1325L2.08583 14.9933L2.1475 14.8542L2.21 14.7158L2.2725 14.5775L2.33667 14.44L2.40167 14.3025L2.46667 14.1658L2.53333 14.0292L2.6 13.8933L2.66833 13.7575L2.73667 13.6225L2.80583 13.4883L2.87667 13.3542L2.9475 13.2208L3.01917 13.0875L3.09167 12.955L3.165 12.8233L3.23917 12.6917L3.31417 12.56L3.39 12.4292L3.46667 12.2992L3.54333 12.17L3.62167 12.0408L3.7 11.9125L3.78 11.7842L3.86 11.6567L3.94083 11.5292L4.0225 11.4025L4.105 11.2767L4.18833 11.1517L4.27167 11.0267L4.35667 10.9017L4.44167 10.7783L4.52833 10.655L4.615 10.5317L4.7025 10.4092L4.79083 10.2875L4.88 10.1667L4.96917 10.0458L5.06 9.92583L5.15083 9.80667L5.2425 9.6875L5.335 9.56917L5.42833 9.45167L5.52167 9.33417L5.61667 9.2175L5.71167 9.10167L5.8075 8.98583L5.90417 8.87083L6.00167 8.75667L6.09917 8.64333L6.19833 8.53L6.2975 8.4175L6.3975 8.30583L6.4975 8.19417L6.59917 8.08333L6.70083 7.97333L6.80333 7.86417L6.90667 7.755L7.01083 7.64667L7.115 7.53917L7.22 7.4325L7.32583 7.32583L7.4325 7.22L7.53917 7.115L7.64667 7.01083L7.755 6.90667L7.86417 6.80333L7.97333 6.70083L8.08333 6.59917L8.19417 6.4975L8.30583 6.3975L8.4175 6.2975L8.53 6.19833L8.64333 6.09917L8.75667 6.00167L8.87083 5.90417L8.98583 5.8075L9.10167 5.71167L9.2175 5.61667L9.33417 5.52167L9.45166 5.42833L9.56917 5.335L9.6875 5.2425L9.80666 5.15083L9.92583 5.06L10.0458 4.96917L10.1667 4.88L10.2875 4.79083L10.4092 4.7025L10.5317 4.615L10.655 4.52833L10.7783 4.44167L10.9017 4.35667L11.0267 4.27167L11.1517 4.18833L11.2767 4.105L11.4025 4.0225L11.5292 3.94083L11.6567 3.86L11.7842 3.78L11.9125 3.7L12.0408 3.62167L12.17 3.54333L12.2992 3.46667L12.4292 3.39L12.56 3.31417L12.6917 3.23917L12.8233 3.165L12.955 3.09167L13.0875 3.01917L13.2208 2.9475L13.3542 2.87667L13.4883 2.80583L13.6225 2.73667L13.7575 2.66833L13.8933 2.6L14.0292 2.53333L14.1658 2.46667L14.3025 2.40167L14.44 2.33667L14.5775 2.2725L14.7158 2.21L14.8542 2.1475L14.9933 2.08583L15.1325 2.02583L15.2725 1.96583L15.4133 1.90667L15.5542 1.84917L15.695 1.79167L15.8367 1.735L15.9792 1.68L16.1217 1.625L16.2642 1.57083L16.4075 1.51833L16.5517 1.46583L16.6958 1.41417L16.84 1.36417L16.985 1.31417L17.1308 1.26583L17.2767 1.2175L17.4225 1.17083L17.5692 1.125L17.7158 1.07917L17.8633 1.035L18.0108 0.991667L18.1592 0.949167L18.3075 0.9075L18.4567 0.866667L18.6058 0.826667L18.755 0.7875L18.905 0.749167L19.055 0.7125L19.2058 0.675833L19.3567 0.640833L19.5083 0.605833L19.66 0.5725L19.8117 0.54L19.9642 0.508333L20.1167 0.4775L20.27 0.4475L20.4233 0.418333L20.5767 0.390833L20.7308 0.363333L20.885 0.3375L21.04 0.3125L21.195 0.288333L21.35 0.265L21.5058 0.2425L21.6617 0.221667L21.8175 0.200833L21.9742 0.181667L22.1308 0.163333L22.2883 0.145833L22.4458 0.129167L22.6033 0.113333L22.7608 0.0991667L22.9192 0.0858333L23.0775 0.0733333L23.2367 0.0616667L23.3958 0.0508333L23.555 0.0408333L23.7142 0.0325L23.8742 0.025L24.0342 0.0183333L24.1942 0.0125L24.355 0.00833333L24.5158 0.005L24.6775 0.00166667L24.8383 0.000833333L25 0L25.1617 0.000833333ZM24.8575 3.00083L24.715 3.00167L24.5733 3.00417L24.4308 3.0075L24.29 3.01167L24.1483 3.01583L24.0075 3.02167L23.8667 3.02833L23.7258 3.03667L23.5858 3.045L23.445 3.05417L23.3058 3.06417L23.1658 3.075L23.0267 3.0875L22.8875 3.1L22.7492 3.11417L22.61 3.12833L22.4725 3.14333L22.3342 3.16L22.1967 3.17667L22.0592 3.195L21.9217 3.21333L21.785 3.23333L21.6483 3.25417L21.5125 3.275L21.3758 3.2975L21.2408 3.32L21.105 3.34417L20.97 3.36833L20.835 3.39417L20.7008 3.42L20.5667 3.4475L20.4325 3.475L20.2992 3.50417L20.1658 3.53333L20.0325 3.56333L19.9 3.595L19.7675 3.62667L19.635 3.65917L19.5033 3.6925L19.3717 3.7275L19.2408 3.7625L19.11 3.79833L18.9792 3.835L18.8492 3.8725L18.7192 3.91L18.59 3.94917L18.4608 3.98917L18.3325 4.03L18.2033 4.07083L18.0758 4.11333L17.9475 4.15583L17.82 4.19917L17.6933 4.24417L17.5667 4.28917L17.44 4.335L17.3142 4.38167L17.1883 4.42917L17.0633 4.47667L16.9383 4.52583L16.8133 4.57583L16.6892 4.62583L16.5658 4.67667L16.4425 4.72833L16.3192 4.78083L16.1967 4.83417L16.0742 4.88833L15.9525 4.94333L15.8308 4.99833L15.7092 5.055L15.5892 5.11167L15.4683 5.16917L15.3483 5.2275L15.2292 5.28667L15.11 5.34583L14.9908 5.40667L14.8725 5.4675L14.755 5.52917L14.6375 5.59167L14.52 5.655L14.4033 5.71917L14.2875 5.78333L14.1717 5.84833L14.0558 5.915L13.9408 5.98083L13.8267 6.04833L13.7125 6.11667L13.5992 6.185L13.4858 6.25417L13.3733 6.32417L13.2608 6.395L13.1492 6.46583L13.0375 6.53833L12.9267 6.61083L12.8158 6.68417L12.7058 6.7575L12.5967 6.8325L12.4875 6.9075L12.3792 6.98333L12.2708 7.05917L12.1633 7.13667L12.0558 7.21417L11.9492 7.2925L11.8433 7.37167L11.7375 7.45083L11.6325 7.53167L11.5275 7.6125L11.4233 7.69333L11.3192 7.77583L11.2158 7.85833L11.1133 7.94167L11.0108 8.02583L10.9092 8.11L10.8083 8.195L10.7075 8.28083L10.6075 8.36667L10.5075 8.45333L10.4083 8.54083L10.31 8.62917L10.2125 8.7175L10.115 8.80667L10.0175 8.89667L9.92083 8.98667L9.825 9.0775L9.73 9.16917L9.635 9.26167L9.54083 9.35417L9.4475 9.4475L9.35417 9.54083L9.26167 9.635L9.16917 9.73L9.0775 9.825L8.98667 9.92083L8.89666 10.0175L8.80667 10.115L8.7175 10.2125L8.62916 10.31L8.54083 10.4083L8.45333 10.5075L8.36666 10.6075L8.28083 10.7075L8.195 10.8083L8.11 10.9092L8.02583 11.0108L7.94167 11.1133L7.85833 11.2158L7.77583 11.3192L7.69333 11.4233L7.6125 11.5275L7.53167 11.6325L7.45083 11.7375L7.37167 11.8433L7.2925 11.9492L7.21417 12.0558L7.13667 12.1633L7.05917 12.2708L6.98333 12.3792L6.9075 12.4875L6.8325 12.5967L6.7575 12.7058L6.68417 12.8158L6.61083 12.9267L6.53833 13.0375L6.46583 13.1492L6.395 13.2608L6.32417 13.3733L6.25417 13.4858L6.185 13.5992L6.11667 13.7125L6.04833 13.8267L5.98083 13.9408L5.915 14.0558L5.84833 14.1717L5.78333 14.2875L5.71917 14.4033L5.655 14.52L5.59167 14.6375L5.52917 14.755L5.4675 14.8725L5.40667 14.9908L5.34583 15.11L5.28667 15.2292L5.2275 15.3483L5.16917 15.4683L5.11167 15.5892L5.055 15.7092L4.99833 15.8308L4.94333 15.9525L4.88833 16.0742L4.83417 16.1967L4.78083 16.3192L4.72833 16.4425L4.67667 16.5658L4.62583 16.6892L4.57583 16.8133L4.52583 16.9383L4.47667 17.0633L4.42917 17.1883L4.38167 17.3142L4.335 17.44L4.28917 17.5667L4.24417 17.6933L4.19917 17.82L4.15583 17.9475L4.11333 18.0758L4.07083 18.2033L4.03 18.3325L3.98917 18.4608L3.94917 18.59L3.91 18.7192L3.8725 18.8492L3.835 18.9792L3.79833 19.11L3.7625 19.2408L3.7275 19.3717L3.6925 19.5033L3.65917 19.635L3.62667 19.7675L3.595 19.9L3.56333 20.0325L3.53333 20.1658L3.50417 20.2992L3.475 20.4325L3.4475 20.5667L3.42 20.7008L3.39417 20.835L3.36833 20.97L3.34417 21.105L3.32 21.2408L3.2975 21.3758L3.275 21.5125L3.25417 21.6483L3.23333 21.785L3.21333 21.9217L3.195 22.0592L3.17667 22.1967L3.16 22.3342L3.14333 22.4725L3.12833 22.61L3.11417 22.7492L3.1 22.8875L3.0875 23.0267L3.075 23.1658L3.06417 23.3058L3.05417 23.445L3.045 23.5858L3.03667 23.7258L3.02833 23.8667L3.02167 24.0075L3.01583 24.1483L3.01167 24.29L3.0075 24.4308L3.00417 24.5733L3.00167 24.715L3.00083 24.8575L3 25L3.00167 25.285L3.00417 25.4267L3.0075 25.5692L3.01167 25.71L3.01583 25.8517L3.02167 25.9925L3.02833 26.1333L3.03667 26.2742L3.045 26.4142L3.05417 26.555L3.06417 26.6942L3.075 26.8342L3.1 27.1125L3.11417 27.2508L3.12833 27.39L3.14333 27.5275L3.16 27.6658L3.17667 27.8033L3.21333 28.0783L3.23333 28.215L3.25417 28.3517L3.275 28.4875L3.2975 28.6242L3.32 28.7592L3.34417 28.895L3.36833 29.03L3.39417 29.165L3.42 29.2992L3.475 29.5675L3.53333 29.8342L3.56333 29.9675L3.62667 30.2325L3.65917 30.365L3.6925 30.4967L3.7275 30.6283L3.7625 30.7592L3.79833 30.89L3.835 31.0208L3.91 31.2808L3.94917 31.41L3.98917 31.5392L4.03 31.6675L4.07083 31.7967L4.11333 31.9242L4.15583 32.0525L4.19917 32.18L4.28917 32.4333L4.335 32.56L4.38167 32.6858L4.42917 32.8117L4.47667 32.9367L4.52583 33.0617L4.57583 33.1867L4.62583 33.3108L4.67667 33.4342L4.72833 33.5575L4.78083 33.6808L4.83417 33.8033L4.88833 33.9258L4.99833 34.1692L5.055 34.2908L5.11167 34.4108L5.16917 34.5317L5.2275 34.6517L5.34583 34.89L5.40667 35.0092L5.4675 35.1275L5.52917 35.245L5.59167 35.3625L5.655 35.48L5.71917 35.5967L5.78333 35.7125L5.84833 35.8283L5.915 35.9442L5.98083 36.0592L6.04833 36.1733L6.11667 36.2875L6.185 36.4008L6.25417 36.5142L6.32417 36.6267L6.395 36.7392L6.46583 36.8508L6.53833 36.9625L6.61083 37.0733L6.68417 37.1842L6.7575 37.2942L6.9075 37.5125L7.05917 37.7292L7.21417 37.9442L7.2925 38.0508L7.45083 38.2625L7.6125 38.4725L7.69333 38.5767L7.77583 38.6808L7.85833 38.7842L7.94167 38.8867L8.02583 38.9892L8.11 39.0908L8.195 39.1917L8.28083 39.2925L8.36666 39.3925L8.45333 39.4925L8.54083 39.5908L8.62916 39.69L8.7175 39.7875L8.80667 39.8858L8.98667 40.0792L9.0775 40.175L9.16917 40.27L9.26167 40.365L9.35417 40.4592L9.54083 40.6458L9.635 40.7383L9.73 40.8308L9.825 40.9225L9.92083 41.0133L10.0175 41.1033L10.115 41.1933L10.2125 41.2825L10.31 41.3708L10.4083 41.4592L10.5075 41.5467L10.6075 41.6333L10.7075 41.7192L10.8083 41.805L10.9092 41.89L11.0117 41.9742L11.1133 42.0583L11.2158 42.1417L11.3192 42.2242L11.4233 42.3067L11.5275 42.3875L11.7375 42.5492L11.9492 42.7075L12.0558 42.7858L12.2708 42.9408L12.4875 43.0925L12.7058 43.2425L12.8158 43.3158L12.9267 43.3892L13.0375 43.4617L13.1492 43.5342L13.2608 43.605L13.3733 43.6758L13.4858 43.7458L13.5992 43.815L13.7125 43.8833L13.8267 43.9517L13.9408 44.0192L14.0558 44.085L14.1717 44.1517L14.2875 44.2167L14.4033 44.2808L14.52 44.345L14.6375 44.4083L14.755 44.4708L14.8725 44.5325L14.9908 44.5933L15.11 44.6542L15.3483 44.7725L15.4683 44.8308L15.5883 44.8883L15.7092 44.945L15.8308 45.0017L16.0742 45.1117L16.1967 45.1658L16.3192 45.2192L16.4425 45.2717L16.5658 45.3233L16.6892 45.3742L16.8133 45.4242L16.9383 45.4742L17.0633 45.5233L17.1883 45.5708L17.3142 45.6183L17.44 45.665L17.5667 45.7108L17.82 45.8008L17.9475 45.8442L18.0758 45.8867L18.2033 45.9292L18.3325 45.97L18.4608 46.0108L18.59 46.0508L18.72 46.09L18.8492 46.1275L18.9792 46.165L19.11 46.2017L19.2408 46.2375L19.3717 46.2725L19.5033 46.3075L19.635 46.3408L19.7675 46.3733L20.0325 46.4367L20.165 46.4667L20.2992 46.4958L20.4325 46.525L20.7008 46.58L20.835 46.6058L20.97 46.6317L21.105 46.6558L21.2408 46.68L21.5125 46.725L21.6483 46.7458L21.785 46.7667L21.9217 46.7867L22.1967 46.8233L22.3342 46.84L22.4725 46.8567L22.61 46.8717L22.7492 46.8858L22.8875 46.9L23.1658 46.925L23.3058 46.9358L23.445 46.9458L23.5858 46.955L23.7258 46.9633L23.8667 46.9717L24.0075 46.9783L24.1483 46.9842L24.29 46.9883L24.4308 46.9925L24.5733 46.9958L24.715 46.9983L25 47L25.1425 46.9992L25.285 46.9983L25.4267 46.9958L25.5692 46.9925L25.71 46.9883L25.8517 46.9842L25.9925 46.9783L26.1333 46.9717L26.2742 46.9633L26.4142 46.955L26.555 46.9458L26.6942 46.9358L26.8342 46.925L26.9733 46.9125L27.1125 46.9L27.2508 46.8858L27.39 46.8717L27.5275 46.8567L27.6658 46.84L27.8033 46.8233L27.9408 46.805L28.0783 46.7867L28.215 46.7667L28.3517 46.7458L28.4875 46.725L28.6233 46.7025L28.7592 46.68L28.895 46.6558L29.03 46.6317L29.165 46.6058L29.2992 46.58L29.4333 46.5525L29.5675 46.525L29.7008 46.4958L29.835 46.4667L29.9675 46.4367L30.1 46.405L30.2325 46.3733L30.365 46.3408L30.4967 46.3075L30.6283 46.2725L30.7592 46.2375L30.89 46.2017L31.0208 46.165L31.1508 46.1275L31.2808 46.09L31.41 46.0508L31.5392 46.0108L31.6675 45.97L31.7967 45.9292L31.9242 45.8867L32.0525 45.8442L32.18 45.8008L32.3067 45.7558L32.4333 45.7108L32.56 45.665L32.6858 45.6183L32.8117 45.5708L32.9367 45.5233L33.0617 45.4742L33.1867 45.4242L33.3108 45.3742L33.4342 45.3233L33.5575 45.2717L33.6808 45.2192L33.8033 45.1658L33.9258 45.1117L34.0475 45.0567L34.1692 45.0017L34.2908 44.945L34.4117 44.8883L34.5317 44.8308L34.6517 44.7725L34.7708 44.7133L34.89 44.6542L35.0092 44.5933L35.1275 44.5325L35.245 44.4708L35.3625 44.4083L35.48 44.345L35.5967 44.2808L35.7125 44.2167L35.8283 44.1517L35.9442 44.085L36.0592 44.0192L36.1733 43.9517L36.2875 43.8833L36.4008 43.815L36.5142 43.7458L36.6267 43.6758L36.7392 43.605L36.8508 43.5342L36.9625 43.4617L37.0733 43.3892L37.1842 43.3158L37.2942 43.2425L37.4033 43.1675L37.5125 43.0925L37.6208 43.0167L37.7292 42.9408L37.8367 42.8633L37.9442 42.7858L38.0508 42.7075L38.1567 42.6283L38.2625 42.5492L38.3675 42.4683L38.4725 42.3875L38.5767 42.3067L38.6808 42.2242L38.7842 42.1417L38.8867 42.0583L38.9883 41.9742L39.0908 41.89L39.1917 41.805L39.2925 41.7192L39.3925 41.6333L39.4925 41.5467L39.5908 41.4592L39.69 41.3708L39.7875 41.2825L39.885 41.1933L39.9825 41.1033L40.0792 41.0133L40.175 40.9225L40.27 40.8308L40.365 40.7383L40.4592 40.6458L40.5525 40.5525L40.6458 40.4592L40.7383 40.365L40.8308 40.27L40.9225 40.175L41.0133 40.0792L41.1033 39.9825L41.1933 39.885L41.2825 39.7875L41.3708 39.69L41.4592 39.5908L41.5467 39.4925L41.6333 39.3925L41.7192 39.2925L41.805 39.1917L41.89 39.0908L41.9742 38.9883L42.0583 38.8867L42.1417 38.7842L42.2242 38.6808L42.3067 38.5767L42.3875 38.4725L42.4683 38.3675L42.5492 38.2625L42.6283 38.1567L42.7075 38.0508L42.7858 37.9442L42.8633 37.8367L42.9408 37.7292L43.0167 37.6208L43.0925 37.5125L43.1675 37.4033L43.2425 37.2942L43.3158 37.1842L43.3892 37.0733L43.4617 36.9625L43.5342 36.8508L43.605 36.7392L43.6758 36.6267L43.7458 36.5142L43.815 36.4008L43.8833 36.2875L43.9517 36.1733L44.0192 36.0592L44.085 35.9442L44.1517 35.8283L44.2167 35.7125L44.2808 35.5967L44.345 35.48L44.4083 35.3625L44.4708 35.245L44.5325 35.1275L44.5933 35.0092L44.6542 34.89L44.7133 34.7708L44.7725 34.6517L44.8308 34.5317L44.8883 34.4117L44.945 34.2908L45.0017 34.1692L45.0567 34.0475L45.1117 33.9258L45.1658 33.8033L45.2192 33.6808L45.2717 33.5575L45.3233 33.4342L45.3742 33.3108L45.4242 33.1867L45.4742 33.0617L45.5233 32.9367L45.5708 32.8117L45.6183 32.6858L45.665 32.56L45.7108 32.4333L45.7558 32.3067L45.8008 32.18L45.8442 32.0525L45.8867 31.9242L45.9292 31.7967L45.97 31.6675L46.0108 31.5392L46.0508 31.41L46.09 31.2808L46.1275 31.1508L46.165 31.0208L46.2017 30.89L46.2375 30.7592L46.2725 30.6283L46.3075 30.4967L46.3408 30.365L46.3733 30.2325L46.405 30.1L46.4367 29.9675L46.4667 29.835L46.4958 29.7008L46.525 29.5675L46.5525 29.4333L46.58 29.2992L46.6058 29.165L46.6317 29.03L46.6558 28.895L46.68 28.7592L46.7025 28.6233L46.725 28.4875L46.7458 28.3517L46.7667 28.215L46.7867 28.0783L46.805 27.9408L46.8233 27.8033L46.84 27.6658L46.8567 27.5275L46.8717 27.39L46.8858 27.2508L46.9 27.1125L46.9125 26.9733L46.925 26.8342L46.9358 26.6942L46.9458 26.555L46.955 26.4142L46.9633 26.2742L46.9717 26.1333L46.9783 25.9925L46.9842 25.8517L46.9883 25.71L46.9925 25.5692L46.9958 25.4267L46.9983 25.285L46.9992 25.1425L47 25L46.9992 24.8575L46.9983 24.715L46.9958 24.5733L46.9925 24.4308L46.9883 24.29L46.9842 24.1483L46.9783 24.0075L46.9717 23.8667L46.9633 23.7258L46.955 23.5858L46.9458 23.445L46.9358 23.3058L46.925 23.1658L46.9125 23.0267L46.9 22.8875L46.8858 22.7492L46.8717 22.61L46.8567 22.4725L46.84 22.3342L46.8233 22.1967L46.805 22.0592L46.7867 21.9217L46.7667 21.785L46.7458 21.6483L46.725 21.5125L46.7025 21.3767L46.68 21.2408L46.6558 21.105L46.6317 20.97L46.6058 20.835L46.58 20.7008L46.5525 20.5667L46.525 20.4325L46.4958 20.2992L46.4667 20.165L46.4367 20.0325L46.405 19.9L46.3733 19.7675L46.3408 19.635L46.3075 19.5033L46.2725 19.3717L46.2375 19.2408L46.2017 19.11L46.165 18.9792L46.1275 18.8492L46.09 18.72L46.0508 18.59L46.0108 18.4608L45.97 18.3325L45.9292 18.2033L45.8867 18.0758L45.8442 17.9475L45.8008 17.82L45.7558 17.6933L45.7108 17.5667L45.665 17.44L45.6183 17.3142L45.5708 17.1883L45.5233 17.0633L45.4742 16.9383L45.4242 16.8133L45.3742 16.6892L45.3233 16.5658L45.2717 16.4425L45.2192 16.3192L45.1658 16.1967L45.1117 16.0742L45.0567 15.9525L45.0017 15.8308L44.945 15.7092L44.8883 15.5883L44.8308 15.4683L44.7725 15.3483L44.7133 15.2292L44.6542 15.11L44.5933 14.9908L44.5325 14.8725L44.4708 14.755L44.4083 14.6375L44.345 14.52L44.2808 14.4033L44.2167 14.2875L44.1517 14.1717L44.085 14.0558L44.0192 13.9408L43.9517 13.8267L43.8833 13.7125L43.815 13.5992L43.7458 13.4858L43.6758 13.3733L43.605 13.2608L43.5342 13.1492L43.4617 13.0375L43.3892 12.9267L43.3158 12.8158L43.2425 12.7058L43.1675 12.5967L43.0925 12.4875L43.0167 12.3792L42.9408 12.2708L42.8633 12.1633L42.7858 12.0558L42.7075 11.9492L42.6283 11.8433L42.5492 11.7375L42.4683 11.6325L42.3875 11.5275L42.3067 11.4233L42.2242 11.3192L42.1417 11.2158L42.0583 11.1133L41.9742 11.0117L41.89 10.9092L41.805 10.8083L41.7192 10.7075L41.6333 10.6075L41.5467 10.5075L41.4592 10.4083L41.3708 10.31L41.2825 10.2125L41.1933 10.115L41.1033 10.0175L41.0133 9.92083L40.9225 9.825L40.8308 9.73L40.7383 9.635L40.6458 9.54083L40.5525 9.4475L40.4592 9.35417L40.365 9.26167L40.27 9.16917L40.175 9.0775L40.0792 8.98667L39.9825 8.89667L39.8858 8.80667L39.7875 8.7175L39.69 8.62917L39.5908 8.54083L39.4925 8.45333L39.3925 8.36667L39.2925 8.28083L39.1917 8.195L39.0908 8.11L38.9892 8.02583L38.8867 7.94167L38.7842 7.85833L38.6808 7.77583L38.5767 7.69333L38.4725 7.6125L38.3675 7.53167L38.2625 7.45083L38.1567 7.37167L38.0508 7.2925L37.9442 7.21417L37.8367 7.13667L37.7292 7.05917L37.6208 6.98333L37.5125 6.9075L37.4033 6.8325L37.2942 6.7575L37.1842 6.68417L37.0733 6.61083L36.9625 6.53833L36.8508 6.46583L36.7392 6.395L36.6267 6.32417L36.5142 6.25417L36.4008 6.185L36.2875 6.11667L36.1733 6.04833L36.0592 5.98083L35.9442 5.915L35.8283 5.84833L35.7125 5.78333L35.5967 5.71917L35.48 5.655L35.3625 5.59167L35.245 5.52917L35.1275 5.4675L35.0092 5.40667L34.89 5.34583L34.7708 5.28667L34.6517 5.2275L34.5317 5.16917L34.4108 5.11167L34.2908 5.055L34.1692 4.99833L34.0475 4.94333L33.9258 4.88833L33.8033 4.83417L33.6808 4.78083L33.5575 4.72833L33.4342 4.67667L33.3108 4.62583L33.1867 4.57583L33.0617 4.52583L32.9367 4.47667L32.8117 4.42917L32.6858 4.38167L32.56 4.335L32.4333 4.28917L32.3067 4.24417L32.18 4.19917L32.0525 4.15583L31.9242 4.11333L31.7967 4.07083L31.6675 4.03L31.5392 3.98917L31.41 3.94917L31.2808 3.91L31.1508 3.8725L31.0208 3.835L30.89 3.79833L30.7592 3.7625L30.6283 3.7275L30.4967 3.6925L30.365 3.65917L30.2325 3.62667L30.1 3.595L29.9675 3.56333L29.8342 3.53333L29.7008 3.50417L29.5675 3.475L29.4333 3.4475L29.2992 3.42L29.165 3.39417L29.03 3.36833L28.895 3.34417L28.7592 3.32L28.6242 3.2975L28.4875 3.275L28.3517 3.25417L28.215 3.23333L28.0783 3.21333L27.9408 3.195L27.8033 3.17667L27.6658 3.16L27.5275 3.14333L27.39 3.12833L27.2508 3.11417L27.1125 3.1L26.9733 3.0875L26.8342 3.075L26.6942 3.06417L26.555 3.05417L26.4142 3.045L26.2742 3.03667L26.1333 3.02833L25.9925 3.02167L25.8517 3.01583L25.71 3.01167L25.5692 3.0075L25.4267 3.00417L25.285 3.00167L25.1425 3.00083L25 3L24.8575 3.00083Z" fill="url(#paint4_linear)"/>
<defs>
<linearGradient id="paint0_linear" x1="86.8211" y1="38.2991" x2="78.5898" y2="11.7037" gradientUnits="userSpaceOnUse">
<stop stop-color="#CB3D8A"/>
<stop offset="0.57" stop-color="#417AD8"/>
<stop offset="1" stop-color="#0495FB"/>
</linearGradient>
<linearGradient id="paint1_linear" x1="86.818" y1="38.2991" x2="78.5867" y2="11.7037" gradientUnits="userSpaceOnUse">
<stop stop-color="#CB3D8A"/>
<stop offset="0.57" stop-color="#417AD8"/>
<stop offset="1" stop-color="#0495FB"/>
</linearGradient>
<linearGradient id="paint2_linear" x1="86.8201" y1="38.2993" x2="78.5889" y2="11.7039" gradientUnits="userSpaceOnUse">
<stop stop-color="#CB3D8A"/>
<stop offset="0.57" stop-color="#417AD8"/>
<stop offset="1" stop-color="#0495FB"/>
</linearGradient>
<linearGradient id="paint3_linear" x1="36.9919" y1="38.2994" x2="13.0118" y2="11.704" gradientUnits="userSpaceOnUse">
<stop stop-color="#CB3D8A"/>
<stop offset="1" stop-color="#0495FB"/>
</linearGradient>
<linearGradient id="paint4_linear" x1="11.7023" y1="11.7023" x2="38.2977" y2="38.2977" gradientUnits="userSpaceOnUse">
<stop stop-color="#CB3D8A"/>
<stop offset="0.24" stop-color="#BE4391"/>
<stop offset="0.76" stop-color="#0E90F5"/>
<stop offset="1" stop-color="#0495FB"/>
</linearGradient>
</defs>
</svg>
