<svg width="330" height="301" viewBox="0 0 330 301" fill="none" xmlns="http://www.w3.org/2000/svg">
<path opacity="0.04" d="M180.481 28.5746C139.198 -8.94415 72.2449 -8.94415 30.9621 28.5746C-10.3207 66.0934 -10.3207 126.939 30.9621 164.461C69.0802 199.107 129.021 201.674 170.489 172.364L199.166 198.432V215.416L292.621 300.347L330 266.374L236.551 181.442H217.863L189.18 155.383C221.427 117.696 218.602 63.2173 180.481 28.5746ZM49.6532 147.474C18.6928 119.333 18.6928 73.6931 49.6532 45.5615C80.6103 17.424 130.829 17.424 161.79 45.5615C192.747 73.6961 192.747 119.333 161.79 147.474C130.829 175.612 80.6103 175.612 49.6532 147.474Z" fill="black"/>
</svg>
